<mxfile host="app.diagrams.net" modified="2023-07-28T23:30:30.309Z" agent="Mozilla/5.0 (Macintosh; Intel Mac OS X 10_15_7) AppleWebKit/537.36 (KHTML, like Gecko) Chrome/115.0.0.0 Safari/537.36" etag="nEYkUMt6flMIPtuv2ZNy" version="21.6.6" type="device">
  <diagram id="KMcxD_Hfu1oPM4u3RyKm" name="Page-1">
    <mxGraphModel dx="1536" dy="906" grid="1" gridSize="10" guides="1" tooltips="1" connect="1" arrows="1" fold="1" page="1" pageScale="1" pageWidth="850" pageHeight="1100" math="0" shadow="0">
      <root>
        <mxCell id="0" />
        <mxCell id="1" parent="0" />
        <mxCell id="4VwqD9fQMVnzG3LPeEwB-141" value="Front" style="text;html=1;strokeColor=none;fillColor=none;align=center;verticalAlign=middle;whiteSpace=wrap;rounded=0;shadow=0;fontSize=15;fontStyle=0" parent="1" vertex="1">
          <mxGeometry width="1077" height="20" as="geometry" />
        </mxCell>
        <mxCell id="6eo6OXU-UzH0dI5WJR4X-10" value="" style="group" vertex="1" connectable="0" parent="1">
          <mxGeometry x="0.012486304783486446" y="35" width="1078.3063820796626" height="101" as="geometry" />
        </mxCell>
        <mxCell id="tZHTCvnpL6UQP9EpiQgh-2" style="vsdxID=6;fillColor=#cccccc;gradientColor=none;shape=stencil(nZBLDoAgDERP0z3SIyjew0SURgSD+Lu9kMZoXLhwN9O+tukAlrNpJg1SzDH4QW/URgNYgZTkjA4UkwJUgGXng+6DX1zLfmoymdXo17xh5zmRJ6Q42BWCfc2oJfdAr+Yv+AP9Cb7OJ3H/2JG1HNGz/84klThPVCc=);strokeColor=#808080;strokeWidth=0;points=[];labelBackgroundColor=none;rounded=0;html=1;whiteSpace=wrap;" parent="6eo6OXU-UzH0dI5WJR4X-10" vertex="1">
          <mxGeometry x="29.326131177758796" width="537.4618408202779" height="54.92877906976745" as="geometry" />
        </mxCell>
        <mxCell id="tZHTCvnpL6UQP9EpiQgh-3" style="vsdxID=7;fillColor=#1a1a1a;gradientColor=none;shape=stencil(nZBLDoAgDERP0z3SIyjew0SURgSD+Lu9kMZoXLhwN9O+tukAlrNpJg1SzDH4QW/URgNYgZTkjA4UkwJUgGXng+6DX1zLfmoymdXo17xh5zmRJ6Q42BWCfc2oJfdAr+Yv+AP9Cb7OJ3H/2JG1HNGz/84klThPVCc=);strokeColor=none;strokeWidth=0;points=[];labelBackgroundColor=none;rounded=0;html=1;whiteSpace=wrap;" parent="6eo6OXU-UzH0dI5WJR4X-10" vertex="1">
          <mxGeometry x="30.56096596424996" y="1.2848837209302317" width="534.9921712472956" height="52.35901162790698" as="geometry" />
        </mxCell>
        <mxCell id="tZHTCvnpL6UQP9EpiQgh-4" style="vsdxID=8;fillColor=none;gradientColor=none;image;aspect=fixed;image=data:image/png,iVBORw0KGgoAAAANSUhEUgAAE4gAAAG9CAIAAAB2DAtlAAEAAElEQVR4nOzdd5SkV33n/+feJ1foMD3d0zMajcJolIUQIAGSQASRWewFbDDBlm2M8cEsPtaxdxe8Z38+jrvGGBuvvGDD7mIBJjiAjUgGgQSSQAgz0qCAZno0mpw6VXrivb8/rqbc6p7p6VShq96vo6PTU13hVur61n3u537FQw89tGvXLt/3lVIW0B+EEEopx3Fe/epXe56ntRZCHD9+/IMf/KCUstOjAwAAAIAeJIRI03TDhg2//du/bf75wx/+8JFHHgmCQGvd6dGtJ0qpIAhe/epXO47T6bGgF5hZkYmJibvvvjsMQ2YIAQAAAAAAAAAAAAAAWsEsoHrVq141MjJiVkwJIe69997HH3/c933WUHU/KWWj0bjxxhu3b9/efAbvuuuuw4cPu67LM4j+IYTIsmzDhg3Orl277rrrrsHBwTzPOz0qoK2SJHnxi1/cDKbGcbxv374wDPkwAAAAAIA1Z+ZVa7WaUkoIIYS4//77v/zlLzMjsSxCiDzPwzB82cte5jiO+T7b6UFhfVNK2ba9e/fuz33ucyMjI7wfAQAAAAAAAAAAAAAAWkFKOTs7++xnP9sEU7XWtm3fc889d99998DAAJuJdz/btk+ePLlp06bt27crpUxjvPvuu+/AgQNkkdBXhBBJkgwMDDi+7w8ODg4MDLDsDP0miqK563eFEL7vm5xqB0cFAAAAAD3JhFE9z2ue4vv+wMBAuVw+64yEOKXFY+wwfcoi5xFCKKV832/bqNAnXNdlhhAAAAAAAAAAAAAAAKB1pJRCCNu2554YhuHg4GC5XCaY2v1s286yzHXduScWCoXBwcEgCMgioX+YPiWFQsHRWuendHpUQFst/NheyiJgAAAAAMDKzPvCZWYklFKLT6pKKdM0jeO457+s2bbteZ5t24s8IKZjKtPQWHPMEAIAAAAAAAAAAAAAALSUWZ4xbxGUUsos2GBF0LqwyDPY88vbgKbmOkan0yMBAAAAAAA4o1qtNjQ0dMUVV5xzzjnj4+NKqd5rnaqU2rt37+HDh/fv399oNMIwZKIZAAAAAAAAAAAAAAAAAAB0LYKpAAAAAACgS2VZ9qIXveinfuqnRkZGOj2W1nrRi16U5/mhQ4c+9alPPfzww4VCgWwqAAAAAAAAAAAAAAAAAADoTgRTAQAAAABA15FSVqvV1772tW9605vSNG00Gp0eUcsJIbZu3fqbv/mbf/Inf/KTn/wkCAKtdacHBQAAAAAAAAAAAAAAAAAAMB/BVAAAAAAA0F2EEHEcb9u27XWve10cx1prKWWnB9UOjUYjDMO3vvWtf/iHf6i1FkKQTQUAAAAAAAAAAAAAAAAAAN2mL5Z1AgAAAACAdUQIkabps571rDAM8zwXQqzyCtUc3Rz1tG07iqJt27add955cRyv/o4DAAAAAAAAAAAAAAAAAACsOYKpAAAAAACg60gpt2zZYrqGruZ6tNZa63AO27aVUms1ztPe3CqvRAixZcuW1g0SAAAAAAAAAAAAAAAAAABgNZxODwAAAAAAAOBplFJBEGzdunWVwVSttW3bjuPs2rXrwQcfzLLs/PPPv/rqqwcHBxuNhpSn366rmSxdwU17npfn+eozpZs3byaYCgAAAAAAAAAAAAAAAAAAuhPBVAAAAAAA0INMKjWKottvv/2+++5TSgkhlFJbtmx55zvfuX379iiK5mVTTb9T13Vt29ZaZ1mmlDI5VSHEWXOqUsqDBw+Wy+VisbjKWGmWZau5OAAAAAAAAAAAAAAAAAAAQOucvjcIAAAAAADAemfb9uc///k777yzWCyWSqVisTgwMHDkyJGPfOQj09PTjuM0m6NalqW19jwvDMOpqal9+/YdOHAgTVPXdcMwDMPQdV2ttemGOvdSTUop13XvuOOOb33rW67r5nm+mpGvpk8sAAAAAAAAAAAAAAAAAABAS9ExFQAAAAAA9BrT+PTYsWP33Xffhg0b5sZEy+XyoUOH/u3f/u0lL3lJlmUmAmrO/+STT37pS1969NFHoygSQoyMjJTL5e3bt2/fvn3btm0bN240HVbTNM3zXGs9r42q1jqKot27d1skSwEAAAAAAAAAAAAAAAAAQO9ytNbqlE4PBmir07a4AQAAAAD0AK21bdt79uxpNBrFYnHuF0CllG3bExMTL3nJS5pndhznxIkTH/jAB6anpwuFggmgHjt27PDhww8//LBt26VS6fzzz7/00ksvvPDCrVu3Dg4OmgumaWomVWzbTtP0iSeeGBwcVEoRTAUAAAAAAAAAAAAAAACA3tbM5ZFRQv8QQpjXPB1TAQAAAABAb3Jd10RMF3Kcf58SMSnWv//7v5+ZmRkcHMyyrHlx13VNxDRN0x//+Mc7d+70PG9wcPCCCy644oorzj///M2bN4dhaM7zne9858SJE1rrycnJoaGhZjtWAAAAAAAAAAAAAAAAAACAXkIwFQAAAAAA9BohRJZl27dvLxQKWZZJKZs70kkpsyzbsWOH+afW2vO848ePP/zww2EYNlOp5lfN/wshwjA0/6xUKg888MD9998fBMGGDRvGx8fHxsYmJycfeeSRIAhMD1UiqQAAAAAAAAAAAAAAAAAAoFcRTAUAAAAAAL1GCJGm6YYNG1772tf+7d/+bblctm3bsiyt9cmTJ6+99tpnPetZcRybwKqUslKpRFFkznMmSinzg+M4ruuaU06cOHHkyJE8z23b9n2fPCoAAAAAAAAAAAAAAAAAAOh5BFMBAAAAAEAPklImSfLKV74yTdMvf/nLjUZDKeV53k033fRzP/dzrutmWSaE0FoLIfbv3x/HcalUMpc1J5ofmq1Wm+ae6Lqu53nmZ6WUPqVd9xIAAAAAAAAAAAAAAAAAAKDdCKYCAAAAAICelabpT/3UTz3/+c/fs2dPFEUXXXTROeeco5QyqdTm2aIoUkoJIer1uumhmue51tp1Xdd1pZTWEkKqQgillO/7vu+TTQUAAAAAAAAAAAAAAADQe8xiKkMpNe/E5W7rL4SYu45rZVcCoCMcy7KklFJK3rHoNws/ugAAAAAAvafRaIyMjIyNjVmWpZRKksSa85XQNE0977zzCoVCvV6/7rrrrr/+esdxZmZmfvKTnzzxxBNHjx6tVqtCCNd1HcdZJKQqpazX69dcc83Q0FCj0Zg7AwsAAAAAAAAAAAAAAAAAPaBWq5nVU47jBEFgfq5Wq5ZlmU4AS9zW30RSkyQxC7rmchzH931zha24C2tICEEuD/3GvOyFEI5Sqlar2bad53mnRwW0Fa95AAAAAOgHUso0TZt51NPuUlQsFrMs27p16y/+4i+GYWhOvOGGG5IkOXbs2JNPPrlr1649e/acPHmyXq9LKU1I1VyV1tpcrenCetNNNzU3AgQAAAAAAAAAAAAAAACAXvK85z0vDEMp5YkTJx555BHbtl3Xvfbaa23btm37wIEDExMTrusuHtQUQuR5HkXR1q1bL7300m3btpkkapqmR44c+clPfrJnzx4ppe/7Xb4WK03TarWa5znBVPQPIUSapq7rOnmeT01N5XlOSA99RWtt2zZNUwEAAACgH5wpj2qdmuIcGBhwXffZz352GIbVatW2bfNbKeWWLVu2bt16/fXX12q1o0ePPvzww48++ujBgwenp6fTNBVCOI6jlMrz3HGcN77xjVdccUUURbRLBQAAAAAAAAAAAAAAANBjtNZveMMbNm3aZFnWzp07H3zwQSllEAS33HKL67qWZX3jG994+OGHPc9bJKhpUm1hGL7pTW+6/vrrC4XCvDMkSfLjH//485///IEDBwqFQndmU00/gziOJycni8Vidw4SaAXT6zgIAseyLFoGow+ZD4BOjwIAAAAAcEZtm6nIsmxgYGB0dHRsbMyyLNu258ZKkyQxI3Fd94ILLrjwwgtf85rXTE9PHzx4cM+ePdPT00888cTQ0NA555zzjGc84+KLL46iiO+bAAAAAAAAAAAAAAAAAHrSwmVdWutqtRoEge/7cRwvvnrKpFIHBgZ+4zd+47zzzouiKIqiIAiaZ0jTNMuya6655sILL7ztttseffTRrs2mWpYlhDC5vE4PBGgf87IXQjidHgkAAAAAAMB8Qohm29JWM1sXPfe5zx0aGlo4bdrstqq1juPYnLlUKl155ZVXXnmlZVlZltm2LYTQWq9VKvWsV6KUUkqx6RJWY5FOwgAAAAAAAAAAAAAAAMBp/du//dvw8LCUcmJiwrZts+BKnnLW5ShmydMv//Ivn3feedVqNQzDOI7vueeeiYmJOI7PPffcK6+8csuWLbVarVwuv/vd7/6jP/qjY8eOua5LR0ag2yw1mNr8u2DWWVqnAu6sYGsdrXXzQV74q06MCAAAAACAdhBCJEly4sSJLVu2tCF7KaVMkuRVr3pVnudJkiyyfV1zGiTP8yzLzNiEEFmWKaWWMq+6FFrrLMsWOYMQolAoMCEDAAAAAAAAAAAAAAAAoJ2EEB//+MfzPNdaB0EwNDSUpunSLy6lrNVqr3rVq6688spqtVooFA4ePPjXf/3Xe/futU5l1orF4tvf/vYbbrihVqsNDAy88Y1v/PCHP+y6bsvuE7rFmVbEsVKudU4bUVx6bvEswVSzvLK5INL84Zj7K9OgYzkDxlI12600H/Nmc2fHceb9CgAAAACAnmGCqQcOHLj66qvbdqNKqaVPYC3cqGut+ruasOsTTzxxpnysycHu2rUrCAI6pmJlhBB5nhcKhXPPPbfTYwEAAAAAAAAAAAAAAECbiFMWz4ItHlZ67WtfWyqVpJSHDx/+4Q9/uKz1S3meF4vFm266Kcsyz/Mqlcptt9128ODBcrnc7O2Xpunf/M3fDA4OXnHFFY1G46qrrrrwwgv37t3r+/5pB7b4AJrJOOJv3an5BGmt8zw3q/jmxRV57lpECCGlbL71mmsgTaRxKdHFMwZTzfVGUZSmaZ7nUkrzBg7D0LZt27bDMHQcR2udJAmLINec1tr3fcuysixrNBqmDUuSJGmaaq0bjYaU0nVd13WllLzBAAAAAAA9xrbtiYkJazmbb/UArbXjOLVa7cCBA67rLrzvWmvbtmdnZ//bf/tvtm0v68HRWg8PD4dhyDRCjxFCnDx5clkTdEKIKIp27NjxoQ99qJVDAwAAAAAAAAAAAAAAQLeQUqZpGsexUsp13UU24m/21VtIa/3qV796dHTUsqxdu3bdd999QRAscQBCiDiOL7nkkrGxsSRJCoXCnXfe+eSTTw4NDZl+iobrukmSfO1rX7v88suVUmEYXnHFFT/5yU/MPv4LxzP3sgt/mySJZVm2bQdBQAKrq5jFTnmeJ0milDJL48zL0vM83/dt25ZSLneZHJbF5IHzPDd/HEyEO4oiy7Icx2n+oTjTU3D6YKoQol6vx3Gc57nv+4VCwfM8x3HsOaSUQgjXdcMwbN3d62d5nmdZZjLA5jl2XdecaBKq9XrddL4Ow5D3GAAAAACgZyilgiDYuXPnQw89dNVVV9VqtTNNdPYSrbWU0vO8z3zmM4cOHSqVSmeaBhVCBEFw2uTqIvI8L5VKhUKB2dUeI4RoNBpmsm7plzIvttaNCgAAAAAAAAAAAAAAAF3CJACr1eqmTZuuueaawcHB8fHx4eHhheuITJu97373u1/5yleKxeJpFxrVarWBgQHHcer1+rI6HQoh8jzfunWr4zhxHFuW9fjjjzuOM+9WTG72wIEDs7OzhULBsqxt27Y5zvwEnBAiSZKtW7fecssteZ6f9uayLNu7d6/Wes+ePQ899FCj0SgUCqc9M9pMSpllWb1ez/PcBCBNdHFuerH5cz+sHuwIpZRJLJoOxkEQNEOqJroYRZFZrBgEwWn/Gpzmbam1Pn78uEk8mnhxs2exmMM8qSZZTsfUNddcWmoe+bm01kIIx3HMm7BWq0VRNDQ01NHxAgAAAACwlsxUw9/8zd/8yq/8ypVXXtnp4bRJnuf/9E//9M1vfvNMs7pNZrpguR1Tm3MLqx4puogQwrwYlv7MNi/S0oEBAAAAAAAAAAAAAACg40wcNMuym2+++fWvf325XDanm3TSvDPneW7b9mOPPbbIQhTTxHJlcUGttcmaSimTJJmcnDztlUgp6/X6zMxMqVSyLKtQKJho28Jr833/wgsvPO19MSdeeuml5p+PP/74pz71qT179hQKBZbNdJaUslqtNhoNk0dtNkqdl15s/szz1SILQ4vN5YWm7YFt22mazs7ONhqNwcHBhc+FY1nW3Lip1vrEiRN5nodhaP552jfnXKRSW+Gsbxvz1FiWZfYJmJyc3LBhg5Ry7qV44wEAAAAA1imtteM4tVrtz//8z5/1rGddcsklvd3qUwhx/Pjxhx566LHHHmPqEwAAAAAAAAAAAAAAAMDqmXSf67q/9mu/9qxnPStN02ab09PGwZRSQRCkadqiwViWZZKoQggTeJuXhLIsS2stpYzjuFarmd8ukoDVWqdpeqaei3Ov+aKLLnrf+973mc985utf/3pvL0XrQnOfHSHE7OxsrVYLgqCZR2W9XBdqpko9z4uiaG50sRlEdbTWSZIkSZLnuZSy0WgkSRIEAc/oemGW6jYaDbMTQPMvo9mBoLNjAwAAAABgxcwXXq31vffee88993R6OK1lNqiybfusvVIBAAAAAAAAAAAAAAAAYCmEEI1G413veteznvWser1+1qiREEJK2aIWhiaqZhZHaa1d1y2Xy5OTk/N6+5kwre/7ZiWV4ziLr6dqZuRO+6vmz1EUSSnf9ra3nTx58oEHHmCZVtuY8LD52fTvrVarruuSR10vzMrGOI4rlYoJdQshTBbVyfN8enpaa53nuWVZaZouzJqj+0kpp6amsiwzz535/9jYGE8lAAAAAKCr5HluZhKbM4yLfHU1e2sVCgVzkRbNeHYDc++a8zOLn3M1t8J0Xk9a2XNqXm/mJcc8OwAAAAAAAAAAAAAAQI+RUtbr9euvv/6GG26o1+vNSKpZKHKmFqMtXV8khIiiyIwhDMPR0dE9e/b4vj/vbEqpUqk0NDSU57lp5rf4GrNFfquUMlFbE5fLsuznfu7nJiYmzAPCSqqWMoHGqampKIpMjwrLsprZN6wvUspKpRLHsXXqjTw6OuoIIcIwDILALAw1zY47PVQsm9kqIAzD5jrCOI55owIAAAAAuofWWkrpeZ75ZxiGUkrHcZYYN+3hVKp16t6ZmZnFzynnWO4Xf8dxXNclgthjhBC2bZuZvaVfRAjhuq5t2+aQQ7FYZB4JAAAAAAAAAAAAAACgZ5i+o2EY/vRP//S8hSVhGFqnGgzMu5Tpheg4TiuGZGKK+/fvb970ZZddds8998wbhpQySZILLrhgYGCgXq/7vt+8yML1LWYNzCJdXqWUWZZlWWYWzCRJMjY29vKXv/zTn/50uVxmwUx7BEFggqnmKTDhZKwvzeiieR7NHwrHenqcnXfU+kXbEwAAAABA1zKzEtPT0x/96EdNEG7nzp0zMzNRFJGTXBYhRJqmeZ4vN5hqNvxzXZepg95Tq9WW9T4SQmRZtm/fvo997GNmonDfvn1BEPDaAAAAAAAAAAAAAAAA6A2mpeFll122adOmOI6b2+ULIb7//e/fd999lUrltC1DpZRTU1NzO+ct93Zt2z7T7vye5+3fv//YsWOjo6NxHD/3uc+98847JyYmBgYGzEhMcNF13Ve+8pWmEUKWZY888sjCoZoFaUeOHPnjP/7j0y56MWc4//zzb7rppg0bNphsqpQyz/OrrrrqC1/4AuvW2oboYm+Y9zxqrVsSYQcAAAAAAJjLTPNNTU3ddtttZvMz3/cJSa7MipvHzs7O8oD3pLM22l1ICFGpVG677TbLssz78aqrruLlAQAAAAAAAAAAAAAA0DPMmpDmwhKllO/7e/fu/V//63+Z5qVnWiti2/aKV3YlSTI7O2tubt5gTLvF2dnZe++99/Wvf30URWEY/uqv/upHPvKRvXv3mjVRSqnBwcG3v/3tO3bsqNVqxWLxxz/+8e7du0+75boQIo7jRx999EyDMSnciYmJW2+9de7pnuc5jmOiqiu4jwAMgqkAAAAAAKAdzA52w8PDJpiqtVZKMbW3AitOD/Jo97AVvCpc1x0eHjaXFUKQSgUAAAAAAAAAAAAAAOglSqkLLrig+U+zfGvXrl1KqYGBgTzPz7SaqNkUcVmEEGmaXnXVVb/2a7/med7cazCp1EcfffSee+4pFotf+9rXnvGMZ1x00UXVanV8fPy//Jf/8sMf/vDxxx9PkmTbtm3XXHPN+Ph4rVYLgqDRaHz2s59dZDBCiDAMF/mt4zizs7PzMqgru4MA5iGYCjzFtOTu9CgAAAAAoJcJIcyEZnNejwm+duLRxlxa6zzPzQ+2bXd6OAAAAAAAAAAAAAAAAD1OStnOneVNx9R5J6ZpajoKrDicqZRSSuV5PrcnqrnCNE23bt06Nw3bHIlZM/atb32rUCg0Go2PfvSj7373u88777woiqSUN95444033mjOnCRJvV4vFov1ev1jH/vY3r17i8XivP6r88Zzpl+Z5Wq2bbOhP9AKxPCApzrGjI+PDw4O0okbAAAAAFoniiK+cwHdxkzBp2na6YEAAAAAAAAAAAAAAAD0JrM8o1QqnXvuuZZlta2t2sLo6eqXbxWLRc/zbNsOw9BcvxCiVCr5vl8sFl3XXfziSinf90+cOPEnf/In3/zmN5VSQRDMPYPneZ7n7dq163/8j/9x//33L55KXQp28wdahI6pgGVZllJKSnn55Zd/61vfGhoayrKs0yMCAAAAgF6T53m9Xp/bLhVAl9BaR1FUKBTYsQsAAAAAAAAAAAAAAGDNSSkbjca5557r+75pH9rpEa2QEOIf/uEfisWilPLYsWOe5wkhoii6/fbbHcc5013TWjuOc+DAgSAITKdW3/fjOP6///f/fuMb37jsssu2bdsWBIEQIk3To0ePPvroo48//rhlWatPpQJoHYKpgGVZllkY/Za3vOXBBx+cmZkZGBjI87zTgwIAAACAHiGEcBzn6NGjSZI4DnMRQNcRQkxPTw8NDXmel+e5OQDQ6UEBAAAAAAAAAAAAAACse0IIKWWe53Ec/8zP/IyUUinV5cHUxdeNfOc73zFhUcdxCoWC1jrLsjvvvHORS5nMjuu6zVyuiaq6rnvkyJH9+/fPfUC01rZtB0GglFpKtKfLH0ygh7EYFLCsUx9yxWLx13/91z/ykY8cPHjQbNvQ6XEBAAAAwLqntc7z/MSJE1NTU50eC4DTE0IoparV6ubNm4Mg8DzPtu1ODwoAAAAAAAAAAAAAAGDdy7IsSRIp5dvf/vZLL71Uay2l7PSgTs9ERk0TgkUCNUEQWJYlhMiyLIoic6Lv+yaYc6ZLmd8mSbLwdN/3F44ky7KFp5+W2YTdZGXJAQHtRDAVeIpZgnnJJZf8wR/8wbe//e3HH3+8Uql07ec9AAAAAKwLtm3ned5oNM477zxybkCXU0pJKcMwPHr0aBRFvGfRDzrSHJjDYAAAAN2sIyWiRZUIAADQxSgRAQAAMM/SS0QhRJ7nGzduHBkZ+Zmf+ZkLLrjArM1o6fBWzHQ0VUpFUVSpVNI0XbwoVUqVSqXzzjuvFTWzlDKKoomJCZOVXfzMAwMDruuGYZjneZ7n1NJA2xBMRV8znzfNTx3zAR+G4Stf+cpXvvKVnRwZAAAAAABAhyRJEscx0/ToE0s5Qjb3uOC8t8bci2utl3JtvLkAAAC63FmLOtMxYO4/z3RxSkQAAIDesHhRZ/o+za0Sz1oiLt5IauE1AAAAoNssvUTUWheLxXmhlebZWjvKZXJd9+DBg7t3765UKkmSLJ7wlFLWarVnPetZf/Znf7bmwVQTef3e97735je/2XHOHnzzPM9xnNHR0csuu6xYLGZZ1m2PLdCrCKair2VZlmWZUsp83jc/Ds0uFOajSEq5lE8yc6kWjhUAAACrs8RtxtI0NWWhPsWas6HJckvEJa48AwCgq3ie53lep0cBdJe5JaL5YV6JyGEtAACAfrOwRLRO1YeUiAAAAP1pkRLRWrC/CQAAAPqBqQnzPM+yzFqwEFEpZdt2N6ww1Fp7nvfoo4/u3LlTSmnbtvn/IheRUpo4qOM4rQimOo5j27bruq7rnvX6zSO8d+/eI0eOvOAFLxgcHCSbCrTHyoOpc1dpoxV4hFtKSlmv1//iL/5iYGDAcRzzceV5nm3bSZKkp+R5PjMz88gjjyzymSSEyLKsXC7/xV/8RalUWkqjcAAAALSNKc/iOP5P/+k/TU5OLjIJYuZWrrjiCs/z3FPM1EmzPjTbgE1NTT366KOLJ12llI1G44/+6I8uvfRSs+9Ja+4fAABrj/ko9DxTIlYqlfe85z31ev2sh/ouu+yywcFB27ZNcWj+n2VZcyIxy7JGo/Hwww+bo4lnYiYSP/CBD5x33nnMIgIAAHQbU6G9//3vf/jhh8MwXGRXYiHE5ZdfXiqVmgeajSzLmhOJWZbVarUf//jHi+9ubNv27Ozsrbfe+qIXvYhZRAAAgO5066237t27NwiCM5V2Zt5vx44dY2NjUkpzlHlhiWg88sgjtVptkTlJUyL+zu/8znOf+1xKRAAAgG5jKrS//Mu//OpXvzowMJDn+WnPZkrEc8455/zzzxdC+L7fXI6Y53nzQHOSJFmWPf7442EYdnCphtbacZzJycmHH37Y8zzT9c2as9PKaYtSKaXpBteKBm/NOJW5ldM+OPNajwghgiCIoujBBx+88cYbORzfY1jL1LWWF0w1f1AM13UdxzHvcN6xa848qrZtZ1mm5zjT5xZWRmvtum4QBGEYFgqFYrHoum69Xm80GvV6vV6vJ0nSaDR27dp11mDq4OAgzw4AAEDXUko9+uijR48ePdPuWUKIPM+LxeJll13mOE4QBIVTfN9vNBqmRKzVamma1uv1hx56aPGNvqSUtVqtXq+38m4BANASzPWhH5jy75FHHqlUKovXdVrrCy+80KwkKxaLZiLRHNCqnxLHcbVafeSRR+I4XnwiMU3TKIrMkTzeawAAAN1GCLFnz54HH3ywVCotsppKSnnRRRe5ruv7vplCDMMwDMM4jueWiFmWmb1LFin8bNuenJycnp6mySoAAEDXevzxxx9++OFisbhIMDWO4/Hx8a1bt9q2XSwWm1WiKRHNsWbLsrIs271798mTJxeZk7Rte2pqanZ2lhIRAACgOwkhDhw4sHPnzg0bNiwSTI2iyHXdiy++WEpZKpXMgeZCoZCmqVlYGEWRiQh1w3YkUsoDBw5kWeZ53txK1bbtRqORJMnCYtiskKxWq1LKVmRTLcvSWk9PT5+2eDbptjAMXddtPgtKKc/zTp48OTU1NTIysvi+0uhycwOMRqdH1JuUUs0Q+MpCi2cJpjafSMuytNZxHMdx7LquUsqsngmCwLSIXOE9wBkIIarVqvmkCcPQrFjSWpte2Ob55mFfPbNDg/lZa62Uar6prFO7JjiOUygUzhpMXfw8AAAA6Dgzs7N4MLVQKJgS0ZR2pjI8U4l41mBq8/8AAADoQkKIQqGQ5/lZg6mO45y1RLRtu1Ao2LZ91mAqJSIAAEA3C4LABAkWD6YuvUQ8azA1jmPHWd6W4gAAAGinMAwXLxHNEWTXdc9aIpql84sfa7ZtO0kSSkQAAIBu5nmeKREXCabatm26j84rEU2V2Dzb3EhLB2mtm3ujGGa35ZmZmR07dlxzzTUXXnjhvKlO0yvV7MYyL866JvI8L5VKt956axiG80pxc+T9oYce+tGPfnTixImBgYG5Aas8zxuNBrtFry9z04tGkiTmm5GU0rZtAnStY/KoWZYppUxo0Tr1jCzlYT/jd1fz589k8fM8T9PU8zylVK1W833fcZxGo2ESsc1bxdoyOx8IIcIwzPPc/LH2fd9snGB26LfYEKv1zMf/4uvJTH3QzlEBAABgudQpZwqmLr2oWzhDdKZbXOFYAQAA0BaLl4jGErcIbJaIZ51IXOFYAQAA0BbNum7xym1tS0SW1AAAAHQzNcdpz7Csou6sc5KUiAAAAN3vrLOI66uok1ImSVKpVJo5NHOKZVm/9mu/9q53vWvDhg0Lg2Naa8/z9u3bF8dxEAQraLS4CNNopFgsvuc97ymXywsfZ611mqa7d+/+0Ic+9KUvfalYLJokavPiazgYtI6JLmqtkyRpNBpKqTRNrVMvADO7bp5W1lq0yNwAqtl0ybIs01bT7NFp0sKLvKdOH0w1baOzLMvz3CT1Hccxz2i5XDa3VyqVrKUdbsGKmWdOKWX20zIpZNOxttFo1Ot1x3HMk93pkeLfnTXICgAAet4iB5DaPBKYLa86/sibOaaODwMAAHQQJWL3MM9Fx/dbNJO9vAAAAOhnixxqp0hosy6ZRaREBAAAFhOJXcOUiB1fmUmJCAAALErErtE/KwBNj8OhoaEPfvCDL3rRi6rV6szMzGmjoa7rzszMbNiwIc/ztQ2mmjaKWZadPHkyjuOFt26Sbtu3b7/tttv+9m//9vd///c7vgYAy2XSp+b5bQYjmx2G5zVQ7ZN3X/vN+4hpvtfSNJ37pNi2faanYH4w1VzAtC12HMfzvIW31Hya1+he4Iyaz6L5Z/M9Zrp1m636TTtsno7u0fHZKAAAAHQbs4cQAAAA0MRRMQAAgG7T8WPuzCICAABgHkpEAACAbrO28cuuFcfxf//v//3mm28+duyYECIIgiAI5p3HBFPr9frAwMDg4GCWZWs4ANOOdXp6ulQqnbZjarPbnxDiV37lV3bv3v3xj398aGiIvprriIk+mtBjp8fSv+bFTU+bPjXRxTNdw/xvrVrrKIoKhYLjOCb3uMhVo7OasWPLsuI4Jg/Zceb9sm/fvgMHDpgOt50eEQAA6AAhRHPznnma24u0f1T9yWzctWXLlgsuuKBTD7u53T179hw9etR8yerIMAAAQGeZIvC0xz8oEdvM7LhZKpWuuuqqTo3BPN1Hjx7dvXs3s4gAAPStRWYRTV8mioS2EUJkWTY8PHzppZd2agzm6T548OATTzxBiQgAQN9aZBaRErHNTIm4cePGiy++uFNjME/39PT0I488Yts2zz4AAP2JErF7mBndIAg6eKC5PWzbnp2dffOb3/za17722LFjtm0HQXD48OH7778/iqK5qSXT07JWq3me5/v+midCpZSVSsV1Xdd15/0qz/PNmzdfd911vu/HcTw9Pf3e9773nnvu2bt378IALbpTnue2bZu9ePhT1uVMdFFrHcfxwnipM++sJlbueZ7J8ZN17H7mr7nrumu7wQBWwLxrvvCFL9x+++2bN29O07TTIwIAAO2mtbZt+9ixY7Ozs/PmfbTW4+PjpVKJDZnaxnXdI0eOvP71r//P//k/d+phN7f7d3/3d//8z/+8adMmSkQAAPqQ1tpxnOnpaXPMZl6JuGXLlkKhQInYNuYo2vbt2z/+8Y936tiGebrvu+++3/u93zvnnHMoEQEA6EOmRJycnDxx4sTcEtFsojEyMjIyMpJlGZtHt4dt29PT01dfffVf/uVfdmoM5kDznXfe+aEPfWjr1q1JknRqJAAAoIOklPV6/dChQ3PrQFMijo6ODg8PUyK2jeM4J0+evOGGG/7n//yfHd8B+Td+4zfGxsb6pDEXAACYR0pZrVaPHDkyr0RUSg0MDJgigRKxPaSUURQNDQ19+tOf7uF9Q8wWLQMDA+94xztMQCkIgu9///t/+Id/ePz4cXOeeffdLJRt0QNy2is3r3mt9Qtf+MLf+Z3f8TwvSZKxsbE3vvGNv//7v18oFFoxEqwtc5TEdV2zfILoYvczy+NN2nTe/vvOvPNJKT3Ps3he1w/zV9XzvB7+eFsvzHNRLpfL5fLAwACTQQAA9CFTeUdRpJSaV54ppQYHB8vlMqmDtjHbcQ0MDHR6INbAwECpVOLZBwCgP5n5dK11vV6f10HdlIjFYpEioW2klKYdVqcHYoVhODg4WCqVmNQFAKAPmRIxz/MoiuaWiGbRz+Dg4NDQEKmDtpFSpmna2RLRPNfFYtF8QSgWi1SJAAD0IdOdwuyA3DyRErEjzEH/oaGhTg/E8jxveHi4WCyyOhQAgP4kpbRtu1qtzisR8zwfGBgYGhoimNo2UsqZmZkNGzb0dlUmhIii6NJLLx0fH4/j2HXder1+2223nThxYnBw8LT33ZzYotfhIlcuhPjXf/3Xiy666F3vetfMzEwcx8973vPK5TIN/9YFIYTjOKbzc6fHgiUxb0Pbtq0F6XTntOfmw2ndoQ979zAB73q97rouTwoAAP3GfPrnea6UmrcljFIqz3Pzq84NsI8IIeI47p6vNrZt1+t1z/MoEQEA6Ddaa3NoUCmllKJE7KBmidgNVaKJo9Trdd/3KREBAOg3ZyoRTa+D/JRuKFp6nhAiSZIuqceUUpSIAAD0M631wqlCSsT2M7OIVsvW1i+LmUWMosj3/U6PBQAAdAAlYvdI0zTP83UaotNam7loy7IWrluYx+yvXSgU6vV6oVDYu3fvoUOHisVitwU+pZSFQmHXrl1xHJvnxXVdKeUiqy+av5r7gKBTumTlBpZr4bNGMBVYY1prE0nNsmxeEwwAAIAeY744mIV0yyp7zOyYmQ5oRb3UXNjneV43TB+YEtGyLEpEAADQ87q2RLQsSymVZZnv+11SItq2bdt2kiRsXwIAAHqbKRFNsbfcErG5I36rS8RuqMcoEQEAQP9YTYloLmV+aMXYTMyje2YRpZSO4yRJ0iVVKwAAQIuYHFMz/Ln0yqcNs4iWZcVxHATBeqzHtNa+70spi8Vi88TFpx/zPJ/32+6848sapJQyDMO5p8x9QNB+RBd7xmmCqVJK2m+uOzxf3cbzvHq97jineYsBAAD0BillFEVHjx7N83xwcHBkwwZrKUWp1lqIo0ePmo3/N23aZNt2K6rZOI4LhUKSJGt+zStj5neq1apt2y2dAgMAAOggKWWj0Th27Fie58PDwxuGhpZY9iitjxw92mg0XNcdHR1txRIrIYRpLJAkSZcc3tBae55XqVRc16VEBAAAvcosJjty5EiSJMVicWx0VGhtLaEeE0IcP3lydnbWcZxNmza1IhggpazX657ndcksoglX+L5v7jXLNgAAQK8SQmRZduTIkTRNS+Xy2MjI0i957MSJaqVi2/bGjRuLxeKal4jNWcRGo7G217wypkT0PK9ara4gxwsAALBemBLx2LFjJv+5aWzMXkJvUrPR2+T09NTUlBBibGysUCi0okSM43idztdprYMguO+++w4cOJBlmTkq7TjOE088sUjOtkuOp68V8zqZnp7++Mc/3jzRrG0wO253cGz9TAixHt9Tfe60zxcdU3sHz1r3MJ/WUso4jk331E6PCAAAtMnijaG01kqpbthXdfXMPZ2ZmanX67ZtT05OhkNDlm2f9WLCtpN6fWZ6Wtr27OxsoVAYGhrK83wNq1khRJqmQogWRV5Xxuxl67puHMe0OwAAoK+YIrBPSkTLsqanpxuNhpRycnIyGBzUZz1eqLW07ahSmZ2ZkbZtDult2rRpzUtEk0d1HCeO47W62lUyRTUlIgAAfWiJJWIPHP81K35mZ2crlYrjONNTU4XBQadQ0GcrgIUQeZJMTU1preM4np6eHhsba8Usotba1GNrdbVrwvf9OI7piAUAQB/qhxLRsizbtmdmZqrVarNElJ53lstoLaTMomh6asqyrDiOT5w4seYdq0wcwpSI9Xp9Da959TzPo0QEAKA/9UOJaMIXU1NTMzMzruvOzsyEpVIwNKSyTJztcLPQenJy0kz0TU5OBkHQioPvWZYVi8Xu2QF56Uxxu3v37kceeaQ5eLOB8lodoW6umF3iI9+RwJrZo/DOO++cN5J5PVTRTkQX16mFzxrBVKAlzKe1aZrKZBAAADD0KZ0eyNrI8zyOY9u2bSlTrYcPHBi37VTrRb5LaMvyhNgTx7mUzqntjswDsrYPS5qmYRh220NtSsRarZbnOVs9AQDQVxYpAnusRFRKxXEspZRSpkqN7N8/urQS8bEoapaI//6rtS4Ri8ViV+14ag7RmRLRHDPumVcCAAA4q8WLwFbMmHWKSZZKKaUQqW0XDh/e7rrJ2UpEV4gjSbJfKe/U3nOteEzMyv41vMI1YdbhJUmSZVlXbb0HAABazZSIZ5q86qUS0cwi2rYthUgsq3zo0HmOc9YS0RNif5LstyxfSrMpcCtmVpMkWfO86+o1S0QONAMA0G/6ZxbRlIiO40ghMsdxTpy4dGYmtazFj+zaQsxm2f4ss207z3PrbI/YCjR7lXXPUebl0lr7vh8EwbwT1yqVahqxOo6zlJCn2S6wIxFfKWWpVJp3Ym/sIb5OEV1cv+b99Th9MJXvrusOz1cX0lqHYTg2NsbHFQAA/cPsLzUzMzM9PW3PaR9qlpgPDAxs3LjRfA/v4CDXipTy2LFjWmthWbHWz2w0bnDdqtaL7FGmLKssxJfS9EEpA8tSSpVKpbGxMdPgdA0Hdvz48e6skM0hw9HR0d54DQAAgKUwJWKWZUePHp17erNE3LBhQ8+UiEKII0eOxHEsLCtR6tpG4xrXrS+hRPz7LHv4VIkYBMGal4hCiG4uET3PGx0d7fRAAABA+zS7dB4/fnzhr4rF4pqXQ51iZsNmZ2dnZmbMLOL2KHqDUpWzlYgFIf4ty35gWb5lKaXMUdc1fExMK9fJyckkSdbkCtecbdsbNmxYq64FAACg+zWbRB06dGhezaO1bsVB1U5p3tNKpeJIGWl9aaPxas87a4lYFOK7WfaAEMGpK1nbhXmmRDx58mSWZWt1nWvLlIiu61IiAgDQJ0zNI6U8fPjwvC1uTdRwbGysZw40SylPnDhRq9UcKRPL2pQkb1CqalmLlIhm75KDSn3vVEDXdd01f0yklLOzs7Vaba2usCNat1l2lmUjIyObNm3yPO+smwCa5+jQoUMTExMdKWvJ9XQVs+M5327Wl9M+X3RM7R1sqN+FtNZKKT7AAADoH+bTf5F2WKY26L16W1hWImVNyrOmDqQQc4+Xtugx6fLCuCdfAwAA4Ez6qkScey9MiVjvjhLRzJ127YNs7nKnRwEAANqnf0rEefdUWFa2tFlES4hYCOvUBdf8MTHFYZfPIi7+OgEAAD2mn0vEdGklohBiXlultV2YR4kIAAC6Tf+UiMbcElEJUZOyfrZgaiZE4+mPTx+uRVxD8hRTGDed9symft6+ffvY2JhlWUspU1uUj507Timl+X/PvC96GNHFdWrhs0YwFQAAAMAaEJYlT/23CGlZfNkAAADoE5SIAAAAmIcSEQAAAPNQIgIAAGChs5aIegk1JJalXq83Go1arRbHseu6WZa5rus4pw+d5Xl+/vnnb968OY5j63RZtbYxzVdd15VS1mo1pVSapj3TTLiHEV1cj077lJ3mbwT9cNcjni8AAAAAAAAAAAAAAAAAAAAAAAAAy3LVVVdZlhVF0QUXXLB///4kSYIgOHHihGmg2jybSaUODQ2ZVGoHs4VmJAcPHkySxPf92dnZ5zznOaZ76sjICNnULkd0sWfQMRUAAAAAAAAAAAAAAAAAAAAAAAAAesrCjJhJb849Jcuy/+//+/+e8YxnNBoNpVS9XldKhWF48uTJhdFBpdTw8PDc61w8XtiihJrW2rbt4eHhNE2FEJdddtmnPvUppVShUPh//+//3XfffYVCQSnVPL+U8zvszv0t2o/o4nq08FkjmNo7eNYAAAAAAAAAAAAAAAAAAAAAAAAACCGSJDHRTXOK1trzPNd1F2ZT8zxP09S27XK5nOd5oVAIw3DeFZo4aBiGWmvTTNV1Xc/zzpRN1VpHUdSKu2ZZlhCiVCqlaWp6b+Z5rpTK83zhYLTWtVpt3mWDIGjRwHBWRBd7BsFUAAAAAAAAAAAAAAAAAAAAAAAAAOgRQog0Tbdt2zY+Pp7nuTnRtu2DBw8eOnRoXjbV5MjM/5sJz9P2FBVCzL2slHJhzLWppcFUy7KUUkqpxVu2mu6vV199dfMUKWUcx48++ujiF0SLiFM6PRCsgdMEU6WUJize/tFgxXi+sFxzd7zo7EiA/sH7DgDQ5fioAtqP9x0AoMvxUQW0H+87AECX46MKaD/edwCALsdHFdB+vO8AAEshhIii6MYbb7z55pvNKabN6Re+8IXPfvazi7Q5Pat5F9RaLxJMXdlNrBUhRJ7nQ0ND7373u+eePjU19b73vU8pRTyyI4gurlML3y+nCaYC6Hlm6wvTo/y0m1gAaAVTP9m27TgOVRQAoNsIIbIsy7KMEhFoGyGEPIUSEQDQhSgRgY5gFhEA0M3MKq5michHFdAezVlE13WtLljQCQDAXM0S0fSq6vRwgH4hpRRCmFlEIQQlIgDgTIQQSZIopRqNhpQyz/NCoZCmab+lMbXWjUaj+bPruvV6vbNDAnoDwVSgvwghlFJRFOV5LqW0LMu27U4PCugXSqksy9I0dRzH933mgwAAXWJuiSiEMIcuOj0ooF8opcyeQbZt+77PPnAAgK7SaDSaG8RSIgJto7U2s4iUiACALhRFUZZlZhbRHG4G0AbmQLPWOk1T3/dt26ZEBAB0jziOsyyzLIsDzUA7mSi4mUikRAQALG7u1vlaa7O7QacH1QHN+UzzIDC9CawJgqlAHzGRg0ajIYRwXde2bbMGutPjAvqF67pmj8A8z+v1ehAEzAcBADrOfDaZ7dAoEYH2m1siNhqNMAwJHgAAuoHZL1YI4TgOJSLQZrZtu65rSsQoioIgoEQEAHSJer3ePNBsdlLo9IiAfuE4jpTSBA+iKPJ933EcSkQAQDdoNBpaa/NRZVkWJSLQNs0SsTmLyFpEAAAAtB/BVKC/xHFs1pNlWXbkyJFGoxHHcacHBfSLIAiCINi0aZNZ0Ml8EACgG2it4zi2bdu27SzLDh8+HEURJSLQNkEQFAqF0dFRx3HMIUO2swUAdIO5s4jHjx+vVCrmlE6PC+h9Wmvf94MgGBsbM/FUsqkAgG4ghGhuXKKUOnz4cL1ej6Ko0+MC+kWzRDTvQTOHTzYVANBZQgjzkeS6rtb6xIkTs7OzlIhA2/i+H4bhyMiI53mWZbEWEQAAAB1BMBXoF0KIJEmUUq7rJkmyZ88e0xeL9WRA28RxPDU11Wg0LrjgArNNIPNBAIDOMiWi1tqkUicmJqrVKiUi0E5RFE1PT09PT59//vm+7+d5HscxwQMAQAc1ZxHNcue9e/dWKhVKRKCdkiSZnp6uVqsXXngh2VQAQDcQQqRpakrEPM+feOKJmZkZIYQ52gWgDeI4npmZmZ6ePu+880qlktlx0iKbCgDoHCFElmVZlplZxH379k1NTTGLCLRTHMfT09OTk5MXXnhhoVDIsoy1iAAAAGg/gqlAH8myzBwdPHToUKPR8DxPa81XUKBtpJS2bc/MzOzdu7eZTY3jmKZYAIAOMiWilPLAgQPVatVsZ9vpQQF9xHEcy7Lq9frExMT27ds9z8vzvNFocMgQANBBpkQUQhw5coQSEWg/IYRt241GY2JigmwqAKBLZFlmkqjHjx+fmZnhQDPQZubIcpIkpkQslUpZlpFNBQB0VpqmzRJxamrKdV3LsvhUAtrGrEVM03TPnj3bt29vZlN936dEBADMo7VWSimlLMsyP3Twk0IIS0ohpTBDaOcso3kErKc/IABWiQ0sgX5hDg1KKbMsq1artm13tqQA+pB5GzqOMzMzMzExYd6SQogoivI8Z8tAAED7NUvENE0rlQoHJ4D2a5aIcRzv2bMnSRLbtqWUlIgAgE4xc4ZCCK317Oys+aHTgwL6jtbaZFP37NmTpqlt22YWUSlFiQgA6Agzi6iUmpmZ4UAz0H5mFtG8+yYmJqrVquM4Uso4jk1uvNMDBAD0HbOU33wGVatV8wMlItBOzRIxz/M9e/bU63VKRADAaWmtPc+TUhYKhTAMC4WClLJTexMLYaWprtTSaj2r1rNKLU0S1Z5PLSFEeEqhUHBdt1AotOOGgV5Hx1SgLwgh8jw3xwtrtRrrm4EOMsGD2dnZuX1TTccDmmIBANqpWSIKIdgADOgsc8gwjuPdu3dfdNFFnudZlhXHse/7lIgAgPYzs4hxHKdpaiYuALSfKRGjKDIdD+ibCgDoIDN5aOYo8jzv9HCA/tWMiNM3FQDQJcwR5yiKmKwAOsWUiCab2uybSokIAGgyq9YPHDiwa9euOI7NxILv+0eOHGn/J4UQVprp8bFgfGiTJRytlevIA0ejJw9VXUe0dCxCiDiO/+3f/s380zws09PTfFYCq0cwFegXzU/NZtODzo4H6GenzaYSPAAAtB8fOkD3MMGDJEnMIUPP8/I8p0QEAHSQaXrQ6VEAfY1sKgAAAOZp7jVJNhUA0CWYRQQ6zmRTsywjmwoAWEhrHYbh3Xfffeedd8493XGcMAzb/DEhhVWNrZdcrN767Lga51qr4bL9V3cN/vnfzQ6X7bxlYzHr9qempj70oQ/NPV0I4fs+sRpgldjsHACADpibTTVzQ0KIKIpoaAwAANC3mn1T9+zZE8exbduUiAAAAH1ubjY1TdNmiaiUokQEAADoW82+qdVq1XEcKWUcx1mWUSICAAD0JzOLaPqm1ut1SkQAwFxaa9d1C0/num5HNi8QQqRJWp2p1iq1WqVWnaklSdqeTyshxLwHIQzDNtwu0PMIpgIA0BnNbOoTTzxhsqlmkRnBAwAAgL61MJtqDhlSIgIAAPQtsqkAAACYxxxcJpsKAACAJlMiLsymcqAZAGCd6nI/VwdbagshpC2fYst2fk6pBdp200API5gKAEDHmGzqzMyM6ZsqhDCLzFhVBgAA0LdM8CBJkomJiWbf1DiOmQwFAADoW2RTAQAAMA/ZVAAAAMxz2mxqFEWUiAAAAGgdgqkAAHRSs29qM5sqhEiSpNPjAgAAQMc0+6ZOTEwkSWKCB5SIAAAA/ey02dQ4jju4oTUAAAA667TZ1DRNKREBAAD61txsaq1WMyVikiRsggwAAIAWcTo9AAAA+t3cbOoFF1xg23ae52mauq7LUcO1xd5vq8drEgCA9mhmU3fv3n3RRRd5npdlWZZllIhrjhJx9XhNAgDQHnOzqRdeeKHrumYW0fM8Po7XFiXi6vGaBACgPeZmU7dv314oFLIsS5LE930+jtcWJeLq8ZoEAKA9mtnUiYmJCy+8sFAomFlESsQ1R4m4erwmAQDoAQRTAQDoPJNNnZmZ2b9//3nnnWc6YjkOH9NrRkqptWaH4FUSQriuK4RgFz0AANqgmU09ePDg+eefb/aypURcQ+ZIISXi6rmua1ZAdnogAAD0PlMiNhqNffv2bd++3XTEcl230+PqHVJKy7LSNKW2WSVKRAAA2qYZPNi/f/9FF11k27bZ3o5V8mvFPJJZllHbrJLjOLZta62ZjwUAoNVMiZhl2d69ey+++GLXdc2BZvNZ3OnR9QIhhBAiy7I8zzs9lvXNvCyptIH2mDdR0J+fCDwIQCuwnBEAgK7QzKZGURQEQZ7nSikmg9aEEGJ2dnZqaipJEmYxVsMEUwcGBjZs2MArEwCANjDBg9nZ2UajUSwWzeIns1YeqySlrFarJ06cSJKEwmaVXNctl8sjIyOdHggAAH3BzCLWarVarTYwMECJuIaEELVa7eTJk0mSsKRsNYQQjuMUi8XR0dFOjwUAgL5gZhHr9frs7OzIyEiapnmeu67LrNfqCSEajcaJEyfiOOZA8yo1S0SzqXSnhwMAQI8zJWKSJDMzM2aKxqxF7PS4eoFpOnL8+PEoiphFXCXXdYMg2LRpEyUi0Gpa63nfak3GvlPj6ZSFf7c5xAasXquCqbw/l4Xd4AAAhlIqjuMwDDs9kN4hpWw0GgcPHtRa9+f3qDWklMrzvF6v27Y9NDSU5zmPJwAA7cGkwdoSQphWtFmWSSkpaVYpjuN6vS6l3LhxY5ZlPJ4AALSB1jqKosHBQevUkjIqxlUyLQ4OHjyYpikl4ipprU2JKIQYGxsjwgEAQNtQE64tIUSe5wcPHkyShBJx9ZIkaTQaUsqxsTFeqwAAtE0URWbJHFM0ayXP8/3798dxTIm4emYWUWu9ZcuWTo8F6GVaa9d1Hedp2bEsy9I07cjfMa11nqs81+aHtn1DFEIUCoV5I4njuD23jhYhurgsLYournEw1TypWZZFUWRGzF4gi5BSmkfM8zzHcaj7AQCWZTFbsYZMGLVWqymlHMeZW0ut4HFuXnw9PkerGfzcy0opTXx6PT4IAAAAhpSyXq/neb76EtE6VSytx+poTUpE61SVWKvVNmzYsB4fBwAA1ik+dteQ1tpsb5dl2bzGEcwiruCy1qkSkfUcAABg/TIlYrVaTdOUWUTzw+pLRNu2K5XKyMjIenwcAABYp/jYXVumREyShBLR/LCaO24u7jhOHMdsXAK0jvnD9ZrXvOalL31pFEVSyjzPwzD8l3/5ly996UulUqnNCSatLc+zhwYDJ3a1VoNl2/edVv8NMM2uN2/efOutt54ahnZd9/jx4x/4wAdo0rMemSBenueNRkMpRXRxca2OLq5ZMNW0UK/X62mamnepOeLo+/5a3UTvyfPcPJ31et2yLMdxgiCwbZt4KgAALbWyArS5ydl6LF5NQbnKO26t5+kwAAAAw9QzSZIsPLiVZdlyr81Mf1nrs0Q0uyOvvkQEAADoVSurlHqgRLRWVxvPPWXNRgYAANA58yYSmUVc1mVpXQIAAHqGaZKRpunCX1EiLuuyc0tE86iu6egAzKe1DoKgVCp5nmeCqb7ve57X/ky40lbo6QeedB87MKAsW2vte/In+2uhb6nWj0VKOTAwYH42kbcoilp+q1hrJrrYaDTSNDVtq0zqkujiIkx00UQ+rRZEF9cmmCqEaDQaSZLYtl0oFEyC1vyKHSwWMfeByrIsSZJqteo4ThiGplzr7PAAAOhJZnfbYrG4rI9aIUQURVmWOY5TLBZbN7xWMKVamqa2ba/4jnPIEAAA9JKFB7e01uVyebmVUpIkcRx7nlcqldbXTI4QIo7jOI5NfbvcO252HOQYIQAA6G1CiJWViOaYaalUWl/1kpkJNEvrVnPH11dhDAAAsCxKqWKxuKwyTwiRZVmj0XBdt1AorLsSMU3TKIpWVhvHcZymKQeaAQBAL1lYzimlSqXScq+kWSKux7WISZJEUbSytYhZlpnLMosItJPJpJmVwHmedySVaj3VLlU88WTj4UcPe66rtdaW5bvC92R7htPcR8Ck4lewrQA6yxzJiuPYtu0gCExDTfMrPlYW0ero4mqDqWYQlUpFCFEqlUyVYKzymvtE84GSUhYKBaVUo9GYnZ0tlUqO49A6FQCAtWWmRS688MIrr7wyjuMlHvbTWvu+//DDDz/++ONBEIyOjq6v44WWZR06dKher2/duvWqq65KkmTpd9zzvJ/85CePPfaY7/sUeAAAoCeZxVXDw8PPf/7z0zRdeqXkuu7hw4d/8IMfFAqF0dHRVo9zbUkpjx8/XqlUzj///Msvv3y5tfGPf/zjPXv2UCICAIBeZUrE0dHRa6+9dlkloud5Tz755I9+9CPXdUdGRlzXXUf1kpTy6NGj9Xp948aNz3ve85ZbGx86dOiHP/yhbdutHicAAECnKKV833/+85+/9IPFWmvHcSqVyne+8x0hxMaNGx3HWV8l4vT09Ozs7ObNm6+99trlHmjet2/fgw8+yCwiAADoVUKIPM/DMLz++uuXXvCYEnFycvK+++6TUm7cuHF9beQhpZycnKxUKuPj49dcc82ySkTHcWZmZu655x5mEYH2E0/XqWFobXmuGCo5rvvUt2Ol2xcpnHvHO/s4YLnMk0V0ccXmRRdN19nZ2dlisei67iqji6sKppqMeL1eLxQKZigEKVfDPHrFYjHP82q16vt+EAQ8pAAArDmttalblj4nYrYLMv9cv72hVnnHAQAAetsqS8RWDq0lzOApEQEAABaxyhJx3RVO8wZPiQgAALDQsg4WNyffmpddd4UTJSIAAMBZLavy6ZkDzRYlIoAV0drKlZaKSCGWyuwEUavVwjD0fZ/o4iqZR69QKARBUK1W8zxfZXRx5RtsNJvIm96eeZ6v+KowV57nUspyuZymaRRF62sTFAAAAAAAAAAAAAAAAAAAAAAAAAAAVsykUuv1uuntmWUZkeY1kee5EMJEFxuNxmqiiyu/pNa6VquVSiUppda6m/uGCSHk03X5aM37pFwux3G89Ab3AAAAAAAAAAAAAAAAAAAAAAAAAACsa1rrarVaLBZt2+7y6OL6YqKLWmuTTY3jeMWPrbPiQZintpmi7DZCCPOg5HmepqnJ8ppfaa0dx3EcxyR6zUPZybGegVKqXC5XKhUppXkLdXpEAAAAAAAAAAAAAAAAAAAAAAAAANYBk6USpzRP6Tdz73WX9zuEIYSoVCqFQsE01Oz0cHqTUqpUKlWrVdu2VxZdXEkwVUpZr9dt2/Y8L8/zFVxDS5kXXJIkaZpKKcMw3LJly8DAgFLKxGillDMzMydPnqzX60op13V937csSynV6bHPJ4QIgqBerw8MDPAuAgAAAAAAAAAAAAAAAAAAAAAAALAUWZalaZokiZQyz3PHcbowCNZqJmXW/FlrnaZpZ4eExUkpG42GEMLzvC6M+/WSVUYXVxJMNW/IcrncbX+MTHy/0WhYlrVt27arr776vPPOGx8f37BhQxiGzReiCdZOTU0dPnz4iSee2Llz54EDByzLCsOw27qnaq09z4uiKE1Tx3G6amwAAKxf+pQWnb9r9e0dBwAAWIr+rJQoEQEAABbRt5VS395xAACAs1pW2dNLlRIlIgAAwJn0baXUt3ccWEeUUoVC4etf//pdd93VfAMKIaIoKhQKfRL201q7rnvy5Mnf/d3fnXu6Usq0P+zUwNaE1rrNd8G8kNpwo1rrOI7L5XKfvFA7aJXRxWUHU03m2HVd27a76tmVUmZZliTJJZdc8opXvOKqq67yPM+yLKVUnudJkriuazqmJkni+/6WLVu2bt167bXXvu51r9u5c+dXv/rV3bt3u67rum5X3S/LsorFYq1WGxgY6PRAAADoEY7j+L6vtZZSLuX8Sinf95uVlpRyPX4P0Vrbtm0axS/3jrd4aAAAAJ0nhPB9Xwix9ErJ8zzXdc0/l3ip7mFqWq31imvjVo8QAACg46SUyy0Rfd+fWyJKKdfRQqvmtOcqa2MAAIAe1qyUlnh+pZTrunEcm3+u0xLRTB6u4EAzJSIAAOgHpkRceo1nSsR5s4gtG93aW02J6LquyXcAaCchRL1er1ar5s3bfAuvrz8+q5fn+eTk5NxThBC2bXdqPKtknsrm3+R23rSZFdFatzR5Z6KLjuN0W3SxV2mtC4XCyqKLK1lDFsdxqVTqqjkyKWUcx2EYvuMd77j22muFEEmS5Hlu23az5fT+/ftNJHV8fDxJEs/zfN83TV+vu+66Zz/72ffdd9/nPve5mZmZIAi654VrFghqrfM877c//QAAtIJt28eOHdu5c+eyer/btn3ixAnHcZRSlUqldcNrBSGEUspxnJMnT+7cuXNZdY6Ucmpqav1+9QIAAFgKKWWtVnvwwQeXWylVq1UzAVqpVLpqruyspJRpmrque/To0TzPV1AbUyICAIDeJqWcmZlZbolo2/bMzIxt21prUyuuoyrRlIi2bVer1ZXVxhzKBAAAvc0sSNu1a9eydjE2q9osyzIl4roLpsZx7LruzMzMCg40z87OMosIAAB6m+k6+NBDDy3rUiZsY6JElUplfTXJMCWi4zhTU1MrKBGjKFpf9xfoDVLKed/O1tE307UihFi4fdL6fRxs286yrFarxXEcRdGylv2sUhAErusGQRAEQUtjsV0YXexhq4kuLjuYmqapEMKkMpZ72RYxNcrWrVvf/e53j4+PNxqNMAyFEBMTEw8++OBDDz1kJvWmpqbSNPU8b3h4OM/zcrl89dVXX3XVVdu2bTNtVG+44YYdO3Z88IMfPHbsmO/73XMHLctyHCdN0yAIeFMBALAapmtorVabnZ1d7mVt23ZdN8uy48ePt2JsLSWldF13xXd8fS2hAwAAWBazE2SaphMTE8u9rJTSTNocO3asFWNrKTPnXq1WZ2ZmlntZSkQAANDbTImYJMmKS0Sl1MmTJ1sxtpYyu4OvpjamRAQAAD3MrLbct2/fCi7ouq5S6sSJE60YWEuZhYJxHFMiAgAAzNNsPPjEE08s97KmRMzzfJ2WiK7rNhqNFZSI5rKUiED78b6zeuhBkFJWKpWjR48mSWI+jNp569Vq1bIsIUSxWBwfH/c8Tym15mPIsqzboov9wHXdJEnCMFzWm2V5wVSzP0dXVQNCiDRNBwcH3/ve927cuLFer4dheNddd/3rv/7r4cOHzWjNOjnHcUyw88SJE0KIkydPPv7441/60pe2bNnyile84vnPf369Xh8bG/uN3/iNP/iDP4iiqHtW12mtPc9rNBpBEHR6LAAArD8LP9Adx3GclfSNN1e1Tjf+N+XQau44AABAz1g4Hyql9H1/BVdFiXjafwIAAKw7C+uZ/iwRrVXfcQAAgJ6xsLwRQvRhiWh2f15Z71NmEQEAQM+jRFzBZdd8PADQJ8w6n5MnTx4+fFhKKaUtpbCEpdrWMVUIKaVWWmtdq9X27t27bdu2QqGwtvFR071yYYdbtJRSyvM8k8pc1gWXvexMKdVVz64QIkmSl7/85Rs3bqzVaq7rfuxjH7vzzjs9z/N9v1wuN2sXrbX52Yy/mVN98sknb7vttscff/ytb31rrVYbHx9/6Utf+vd///fd0/PX7MrcJYMBAGB9Mfs7LDyxI4PpuNXfcbPHW98+gAAAoAeYesZs/sWiKGvtSkTXdc0PazIqAACA9jP1zLwT+7a8WeUdZxYRAAD0huYaubkTX/1Z5KzJLKJZdsgqOAAAsE6ZeqZQKJh6hhJxrUpEIQQHmoG+IoQlpZBSmPc9BxOWxbbter1+9OhRszWAEFaSJHmqgyAQUlgtfiSFEFmW1ePICxyzPUGe50eOHDnvvPPW/Mu+Umpl2x9gNVb2PC47mGpCksu9VOvkeV4qlZ7znOckSVIsFr/85S9//etfHxkZUUqd6XjnvCowCIIwDL/85S+fc845N998c5qm11133Ze//OU8z9vc0XgRZiT8xQUAYFnMzEW5XC6VStVqtXs+2devPM/DMBweHjZTQp0eDgAAwEoopYrF4tDQ0PT0NCXN6plU6oYNGzo9EAAAgBVqLikbGhqanJykRFw9UyKOjIxwcBMAAKxTpkQ0s4hTU1OUiKtnmrps3LixGT/o9IgAAACWTSkVBMHw8PDJkyc7PZYeIaUcGRmhRAT6hxBWmupKLfW8pza49BzpeZKDCUt34sQJpZTjOJZlJXG6Zev4NTdeMnpO2XbsVh+UEVLE9fTQnsn77/5xrVZ1HMe27UajMT09vXHjxizL1vAvOf0dO8I8g8v9UF5eMFVrbWLHXfLsmv6827ZtGx4ezvM8juP77ruvWCyaVOoSr8Q8ZMVi8Vvf+tYLXvACy7I2bNgwPj6+f/9+z/O6556akqt7HnwAANYLIcQ555xTq9XMRmWdHs76prUuFAqe5ymlOj0WAACAlRNCbN68uVQqUSKuntY6DENKRAAAsN4ppTZt2mSOM1IirpLWOgiCIAgoEQEAwLqmtTaziJSIq6eUCsPQlIg8mAAAYJ0yi/nHxsaKxeLaxm/609xZRB5MoKVMa+K5p5ypC2CLh2GlmR4fC8aHNlnC0Vq5jjxwNHryUNV1RBuGs7BH4/o6iiGESNO00WjYti2EFUfphTu2/fSvXu8U8izL2zUGZ+sV51945fhn/+obtXrNtm0hRLVa3bBhw9qmUvM8Jz3Xfs3oouM4S3/wl90xtdtorT3PcxzHNDg1r7zl9nM3DYXL5bJt22maep7XPZFUAACwSmbTlMHBwU4PpBeYcnN9fRMDAABYyEz7UCKuCVMiMpMGAAB6w8DAQKeH0AuYRQQAAD1Da02JuCYoEQEAQM/QWpdKpU6PohdQIgLtIYRIkiRN07knuq572sxUS9d+SGFVY+slF6u3PjuuxrnWarhs/9Vdg3/+d7PDZTtv8aoTrXW1Wp17ihAiDMPW3upay/Pc/NlUSju294LXPkOGab2SSXt+5rZldFyvj14YPvfFV331H77rFG2rxS8bdL91H0y1Tr2IlVJBEPyH//AfPvjBD+Z57jjOUpbECSGklOaP7Gtf+1rbtpMksXhjAADQc/K8TZvB9Dw2JwMAAD2DEnGtUCICAICewY4ba4USEQAA9AxKxLVCiQgAAHoGJeJaoUQEWk0IEUXRDTfccPXVVydJYgLhvu9///vf/8EPfhAEwby/ZqZfoolZmcaBC7uMrnI8aZJWZ6q11NVaucpOkqDVfwpMI8Ph4eFf+IVfMKdorR3HmZ2d/Yd/+If10rRZa23bdhzHpptlkiRjY2ND42Eap7bTtlSqZVmWtO04zrZcOBwEgdL5unj00FK9EEw1pJSNRuOaa6755V/+5dtvv71Sqfi+77pu8wzNv5hzX/dpmsZxHIbhO9/5ziuuuKLRaKzt300AANAlKHwBAAAwDyUiAAAAFqJKBAAAwDyUiAAAAJiHEhHAuiCESNP0ggsuuO666+aefuTIkXvvvTcMw3kxK9OQM8/zKIqUUnEc12o1IcQapvGFENKWMpdaW9KW7flzqpQKw/CGG26Ye+L09PQ//uM/tuHWW0ErHYS+68lEWe3/QNJa+0XPcZ0ky9p+4+g6vRNMtSxLSlmv12+66abt27d//etf37Vr18mTJ02fYtu2bdvWWpuwe/PEjRs3XnXVVS972cs2b95cr9fNeTp9PwAAAAAAAAAAAAAAAAAAAAAAAABghYQQSZIopUwbvzzPC4WC6Z4692y2bb///e9XSkVRdNVVV916661xHCdJUq/XOzXytaW1bjQazZ9d163Vap0d0ipp3cn0m1YdvXl0k54KplqWZf5Ejo+P/9Iv/dLs7Oxjjz22a9cupdT09PTRo0cdx8mybHx8fGBgwHGcq666aseOHQMDA2mapmlaKBTiOO70PQAAAAAAAAAAAAAAAAAAAAAAAACAVRFCyFO01lKevk/pnj176vV6vV7fuHHjOeec02g0CoVCpVLpmfyhlNL8YB6E5j87xTwLPfPwom/1SDDV/F2IouhLX/rSi1/84uHh4SzLgiB4znOec+2111qWZXpJmxbSQRDYtm0ulaZplmWu605NTX3jG9+48cYbfd/njQ0AAAAAAAAAAAAAAAAAAAAAAACg5/m+b37wPC89Jcuyzo6qV2mtkyRxHKfj+VhglXokmGpZltbatu0777zz7rvvvummm5797Gdv3brVJMjTNBVChGFozqmUyrLMcRyT+z948OADDzzwrW99y3Gcl7zkJaRS0fN4kQMAAAAAAAAAAAAAAAAAgFViOSIAAEBv0ForpZRSWmsxR6fH1YNM/G3btm3Hjh0zLRg7PSJg5XonmGoUi8UjR458/vOf/+pXv7pjx47x8fEdO3ace+65zTOYN3CtVjt8+PCxY8d27tx55MiRSqVi3tXmD2gHxw+0SLPlutba933btpkPAroTFTwAoG3mloh8AAEAAKDJlIiO47iumyQJhSLQhfgSBwBoJ/O5w/FlAAAAzGOOOPu+n6aplJKKEehCzCICALqSmPNfvzCdUZVSUsparfa2t73t5S9/+f79+//0T/+0VqvZtm3OY4LBnR4ssAy9FkxVSjmOUywW0zTduXPnD3/4Q9u2i8Xi3PMIIbIsq9frlmWZtTWDg4NRFCmlOjRqoB3M8UKllOd5tm0zGQR0IbN7QhiGfCQBANrDHIHQWruu6/t+tVplBxOgO/H1DQDQNqZENDPtruvGcczHENCFhBCFQsHMIvI9DgDQas1gquM4QRA0Gg3Hcfj0AbqQWeBoET8AALSF+bixbTsIgtnZWUpEoNuYN2mxWNRam3WJnR4RAKBjmq1QLctq9kTt4GiEzoQWllZCa8tq30ia6/PnPiDtYcKoUsowDC3LEkKMj49bljU0NGQKaRNzq1arvu97nkeUAOuI7PQA1p7WOs9zc0i+XC4XCoXs6dI0tSyrVCqVSiXf94UQeZ7zlRg9rxlMtW1706ZNeZ7zcQV0myzLhoeHHcdRSgkhWPcJAGg183FjPnc2bNhgJlw6PSgAT5Om6cjISBiGZq6jubYMAIAWmTsjsWnTJmvO8TkAXSJJkoGBgSAIzLc5UgcAgDZobtW/ceNGKWWe550eEYCnSdN0cHBwcHAwyzIONAMA2kAIYdu2Wc2/ceNG13XNulwA3SNJkkKhUCqVzCQ/JSIA9C2tted5UspisRiGYbFYlFJ6ntehzwWtHT8PNuTBcB4M58EGLd32ZFOFEOEphULBdd1CodCe27Usq1KpvOAFL7jqqqtmZ2fNKaZ+zrLMpFKjKCqXy6973es2bdpUqVTYUQLrSK91TJ2ruVzmtIfkWUyDfmNKiiiK8jwfGRmxLOvYsWNJkphPsk6PDoBl2/bmzZs3b95sQkGu65rNpzs9LgBAj2uWiCaYevTo0TRNKRGBbmC6GY+Ojm7atMmUiJ7nUSICANrAlIhKqXK5vG3bNlMimvxbp4cGwHIcZ2RkZHx83GyczCwiAKANzIHmRqOhlCqVShdccMGhQ4fiOGYWEegGppvx6Ojo5s2bzdb8juOQOgAAtJopEbMsU0oFQXD++eebEpFZRKBL2LY9MjKyZcsW27azLKNEBIC+ZVYfPfHEEz/4wQ+SJDF9znzf379/v+u6bf5oyJVV9K27Hlb/9J3ctoXWWsq0UqkUA5m3ON0lpYyi6N57722eYtv27Oxsqx8BM1djWdYtt9xy8803J0nysY997IEHHmjuPGt+yLJsw4YN733ve7dt23bzzTfffvvt999/f3N3CaDL9XIwFcA8tm27rpskieu6GzduHBoaiqKIr5pAl/B93/M8pVSe5x3digYA0Ee01rZtO45j9lA3JWKj0ej0uAA8pVkiZlkmpWz/jDAAoA+ZEtG0OBBCjIyMmFlEDnoBXWJeicgsIgCgPcyHThzHrusODAyUSqVGo8FnENAlPM/zfd+UiOafvD0BAG0ghPB9P45jy7LK5fLFF19sNkTu9LgAWJZleZ7neZ5lWeZd6fs+JSIA9CetdRAE99xzz7e//e3mBiImrRoEQfs/HaQU1VryxL4p13O11pa2bFvadmt3NjFHwKenp//qr/5q7olSyiAIWrqvitZaa/3Od77zuuuuq1arpVLpqquuuv/+++eexwRTh4eHzz333CzLSqXSe97zno985CP33ntvoVDgMD26H8FUoI+Yjcq01mbBipSyVCp1elAAnmKOFJqNAztS6wMA+tPCErFcLnd6UACe0iwRzUwoJSIAoD1MiWhZVpqmpkQsFAo0OgC6BCUiAKAjzGI1rbXZvsS2bQ40A91Da53neZ7n5kBzp4cDAOgXpmu31jqOYzOLGIYhs4hAl9Bamw4ZlIgAAHPw1/f9eSd26hiTLYXvO67rnBpAmwYihCgWi/NObGnsU0pZqVTe9KY3XXfddbVarVAo3HHHHf/wD//ged7c3iFKqSAI9u3b91//6399+9vffsUVVzQajXe+850nT558/PHHwzAkm4ouRzAV6C9aa9/3bduO41gpxZoVoHuYmVnXddnCFgDQfkEQZFmWJEmapp0eC4CnEUJ4nkevVABAm5nDk1JKSkSgCwkhmEUEALSfKRHNgeYsy/gYArqKEMJxHBphAQDazGxf0iwROz0cAE9jSkTP84QQVIkA0Oc6GENdSJ8aT/uH1M6EpxCi0Whcfvnlr3jFKxqNRqFQuP322++4446BgYGFm7mYuvrIkSN/8Rd/8aY3vemFL3yhEOI1r3nNn/3Zn7VtwMCKEUwF+o7Zq8y2bfZOALqNlJJpIABAR5gS0XGcPM87PRYAT0OJCADoFEpEoGtRIgIAOkVrbdt2oVBgB2Sg2wghpJS8MQEA7ae1FkKYPk58EgFdpVki8t4EAKAjhBA//dM/7TiO67p33nnnV77yleHh4TMdfNdah2GY5/n/+T//Z3R09Morr7zyyisvv/zyRx55hKap6HIEU4F+ZL5nSik7PRAA8zENBADolGaJyPpmoHuY9yNvSQBAp1AiAl2IEhEA0FnmM4gIHNBVKBEBAB1n4qmUiED3oEQEAKCDhBBJkmzbtm379u2WZU1MTNx+++3lcnnxfKlSyrZt13X//u//fseOHUEQvOxlL3vkkUf4QEeXI5YGAAAAAPh3TGQA3YP3IwCgS/CRBHQP3o8AgC7BRxLQPXg/AgC6BB9JQPfg/QgAQAeZYOoVV1zh+74Q4jvf+U6apkvZDFop5fv+xMTEzp07tdY7duwYGxszl23PyIEVIJgKAAAAAAAAAAAAAAAAAAAAAAAAAD3FNLefqz+DjnKBFt2Q1tpxnB07dliWNT09vXPnziAIFm+XOu/iDz74oBCiWCxecMEFBFPR5ZxODwAAAAAAAAAAAAAAAAAAAAAAAAAAsGZM984sy+ae6Lqu67od6bAtLEsKLYXWlrYsS1uiPaPQWtdqtaeNRIggCFp0W57nbdiwwbKsycnJSqVi2/bSH23HcY4ePRrHse/7IyMjS0+0Ah3RC8HUZl5fa621XlkWfG5bZLMfwFoOEQAAAAAAAAAAAAAAAAAAAAAAAABaTwiRZdm2bdvGxsZMvlFrbdv24cOHDx8+7DhOm7OpwrIyLeqp41q2uWVH5K5ttXoQSqkwDJ/xjGf8+0iESJLksccea9EjoLU2YeB9+/ZFUVQqlebdkBBCKbUwdGq6rR47dqxarfq+n+d5K4YHrKH1HUzVWkspZ2ZmoigSQhQKhfHx8aNHj3qet6y3n5QyTdMtW7b4vp8kSaPRmJ2dJZsKAAAALIs+9d/iZwAAAECf0JSIAAAAWGCJJSJVIgAAQP9gFhEAAADzMIu4JoQQjUbjxhtvvPnmm80pSikp5Re+8IXPfvazAwMD7QymSilqkXr+5cFvvHo0Tm2tdalg3/HD/At3Hi4V7Na1BRVC5Hk+NDT067/+63NPn5qaet/73qeUWllzxLMykbRCoWDb9rxfaa2TJJFSFovFhbeeZdnIyEihUGheCdDN1n0w1XXdI0eOHD169Nxzz7Us66UvfenOnTtNz2Kt9Vl7Fptuq1EUSSlf8pKXKKUcx3nyySePHTvmeV5HOlOjl4hTOj0QAADQPot8+os52jyqVph3L6QQrhCOZS3yPVhZliuEnHPBVjwm5tq6uZjvmdcAAABYor4tEZ2ll4hPv5IWlYhrdW2t0OXDAwAAa66vSsS5d2Tps4iOENapKb6+LRG7fIQAAGBt9VWJOPefyzvQPOco8Jo/IN3/CHf/CAEAwNpa/NO/h0tEYWYIFy0RdXMW8enX02+ziGclhEiSRCnVaDSklHmeFwqFNE3bf7+EpTMtN4WNGzYfqcau1mq4bD+4bzRT7RiK1rrRaDR/dl23Xq+39ObSNLUs69xzzw2CYG60zdz6F7/4xZ07d6Zpap4XPWcyPMuyTZs2hWGotY7jeL2/AtHz1ncw1bIsKWWj0fja1772zne+s1arXX311e9617s+97nPHT9+3HEcz/Pmhsu11nPfk3me1+v1PM83bdr05je/+fLLL6/VasVi8atf/Wqe512+lh3dz3wkxHF81oA0AADoGWZvlDzPT/vbNE3jOM6yrDe+KD7ty7BlVbPspGXVz3a8MLGsep6LU1W6qZeyLFvbgWVZ5jjd+GXHfMtgsgAAgL5iSsQzFTw9ViLOm1OtZNnk0krEhlLNEjHP8ziO1/ZImBAiz3PXddfqCteQEEIpFcdxpwcCAADaZ/ES0cyYdWRhUCvked6cLxWWVc/zk2laO1uJGFtWJcvEqc3gTYm4hrOIWmvbtrv8QTYHmlm0AABAn9Ba53luFi4v1EslormnzQV1wrJqSy4Ra3neLBHNUdc1XJhnSsRunqo1dznPc0pEAAD6xOIlojnC2M3Vy7LMW4uYKHUyTetP3+B4Hm1ZnmXNPD3vt+aPiZQySZL1/iALIeQpWmvT3q8zI7GsVIlqLGuJ1NpyY5mkum1DkXO+TZhHo3U3VKvV9u7de/HFFw8NDY2Ojh48eLDZOrHZoPHJJ58UQgRBsPDpuOKKK7TWWZY9+eSTjuPwFQDdrBvXai+LUqpYLN59990XXXTRS17yklqtdv3111955ZX33Xffj370o71791arVXNOKaXjOGmaNt+T5XL54osvfuYzn/m85z2vWCyaVOq3v/3t73//+8VikTAhVkkplSTJ5ORkpwcCAADax3xfTZJk3ldWs0NKrVbTWvfSV0Szn4uyrEDKB8bGHrTtxe+bOZg3XakEMzPKsqSU9Xp9cnLSXM8aDizLsg7OnizC5JZnZmY6PRAAANA+pgSq1+unLRGr1WqPLSTK81xKqS2r4Dj3bNz4fSnPWiI6tj05MxNUKsqybNuO4/jkyZNKqbUt59I0bemxpZUxqdQsy6anpzs9FgAA0D6mRDT7oM/7ldmXuRUzZh0xd75UWVZoWY+PjR3yfXW2AlgKUWs03MlJM4sYRVGLZhG7c+8Ss+SoUqn0wGsAAAAsnRCi2cBnLrOmucdKRDNZpyyrIMTDmzZNuO7ZDzRLWanX/elpUyKmadqKhXlZlnme14WPs8mlzM7OduHYAABA6wgh6vX6wo5rQghTDq35QdVOMffIlIi+1kc3bPh/xWJ+tnsnLCvJMnnihDWnRFzzg+898yB3CWFZUlhSWNqypLB69aG1bfuRRx552cteViwWb7zxxk984hNBEDT3cDTZVM/zLMuam1wTQsRxvHXr1mc/+9lKqZmZGdOysZeWlKD3rPtgqmVZWuswDD/72c8KIV784hdnWeb7/stf/vKbb7750KFDe/bsmZiYEEJUKpUDBw6ce+65pVLJsqzt27dv37598+bNQogoikzA9Wtf+9rnPve5IAh432L1kiQpFAq2bfNyAgCgf5glZWda7O66bhAEvbEBitbacZxCoVCtVm3btm07GBiQtm0tWvloy5JSlh1ncnpaKaWU8jwvCIK13aXMtMNqNBq+76/Vda4J89XD933XdSkRAQDoH6ZwajQapy0ATDnUYyXiyZMnpZSu6wYDA0LKs5aItpQlKSdnZ80uHo7jmEMya1siuq4bRVFXVWJmJHEcB0HQVQMDAACtZgqn0xYA5ldrPmPWKWa+tFgsmp3atNZBqeSGoT5bASyEKBUKJ2ZmTDctM7O65rOIWutardZts4hmOz/XdX3fp0QEAKCvSCmby5TnMkuWe6lEdBynWCzOzs46jmNZVlAuu5539gPNQpSC4OSpEtG27TAM13Zm1ewiV6/Xu61ENMvTKREBAOhDJmx5pl+t+UHVTmmWiNVq1XGcPM/9YtEbGDjrvdOW5QrhzsxEUWSmIsMwPG1RvRqmJUlvPNRoD6VUEAS7du3avXv3jh07brjhhm9/+9tHjhzxfb/5Fea0TW6EEEmS/PRP/3QYhkKI+++//+TJk+VyuTeWlKBX9UgwVUqplPr4xz++e/fuV73qVVu3blVKpWk6Pj6+devWm266yZyt0WiY96e5YJqmSZKYWZt9+/bdcccd3/3ud4vF4sItJYBlMfv+mlAKnwEAAPSVxRui6lPaOaTWyfN8cHAwy7IsywYGBqQQOsvOchkhVJ77rjs6Nlar1YIgKJVKWZZZpxblrwnzBcFxnDiOu2cyyMwSCiEcx6FEBACgryxeBPZeiTg0NJTneZZlw8PDwrKWUiLmeR74/ujoaKPR8DxveHjYHCxsUYkopeySB1wIkWWZOc5KiQgAQF/ptxKxVCqNjIzEcVwqlXzXzdP0rHN22rIcKUdHR2dnZ13XHRoaasUsohDC87zumUU0QzJBi57ZvwYAACxd/5SIWZaVy+UkSZIkKZfLruMs6UCz1q5tj46OmrjC8PCwUmptHxNTj5kd7s60G3WbmSGZTZ8pEQEA6ENLWY7YzvG0TpZlQ0NDzchPsVDI09SyrLPePSHl6Ojo9PS0EGJkZCTP81Y8Jr7vm41CeuYBPy0ppWlS0iXF8Lpm9h/87ne/e/HFF4dh+La3ve1P//RPsyw709oAIYSUcmZm5jWvec11112XJEmWZd/85jfZmwbdrxeCqdapdUWlUumuu+76wQ9+cP311z/3uc/dsmXLwMCA+a3ZLczsCWEW+pgZhJmZmT179tx777333XdfHMcmSs77FqthZoKyLPM8j9cSAADoYaauHh8fN/9USllLWb8lhLasDRs2bNiw4alLtWZsnuclSdI9R+aUUkmSBEFAiQgAAHqY6d6wefNmq3kcdGklomVZIyMjzStpRclkSkTTurZLggeWZVEiAgCAfiCEGBsbMz8rpZZYjCmtBwcHBwcHrVaWiK7rxnHcVe0OoihisREAAOh5UspNmzaZn5dxoFnroaGhoaEhq8WziHEcZ2fNyraLaZfqeV6nBwIAANBaQoiNGzean5daIlqW0rpQKBSLRauVJaLJaiZJsn4Tm/rpTnueSqVSrVbr9XqlUrHWdJfALtG8R23Y+kcpVSwWv/3tb19xxRXXXXfdpZde+u53v/sjH/lIo9EIgmDhbtpJktTr9de+9rVvectbarVasVj84he/eOTIkXK5vOZNgIG11SPBVOvUn4ZSqZTn+Te+8Y1vfetbY2NjF1100QUXXDA8PLxly5bmIS4hxMGDB6empiYmJnbv3n38+HGlVBiGxWKxe5atY/0yvbAGBwdpvQsAQH8yGxcZ84oBKaUQontWOK2J5n1c1v1a2aWWxbQ7qFQqtm236CaWzrbtNE1LpVL3tOcCAADtRIm4rEst94JLJ4QIw3BmZqYbjhdKKc1+qLRLBQCgP522RGyeKE7p7CDXUDeXiL7v12q1bni0bds2JaLrupSIAAD0obkl4sITKRHnXWq5F1y6ZonYDQeazSyi67qe5y19kxcAANAzzlQimr5ulIirv+ASmSZ5MzMzrbjyNjCvE9MNtfnPeefRWt9yyy2Dg4NxHG/atOnJJ5/Mssz3/ZMnT/ZMLsZxngrQmaYsbSj4bdv+u7/7u23btm3atOmZz3zm+9///k984hNPPPFEFEXmLWydau5y7rnnvvzlL3/BC15Qr9eLxeL3vve9r3zlK4VCgVQqul+3B1PP9MFwpr9r5rt3sVjUWp84ceLw4cPf/va3HccJw9BshG/+32g0siyTUnqeFwSBaXG5lEM7PfMnFa1gXhv1er1Wq23YsCFN006PCAAAtJvZHMvUA7Ztzy0dlVKNRoMVRW1j2h00Go16vd7psVi1Wq1erw8NDTUajV6aCgQAAEuhtc7zvNFo1Go1x3EWloi2bVMito1t23Ecmx1eOytJkkqlMjg42Gg0Oj0WAADQbqZENLOIc0tEIUSWZcVisVQqZVnGPFJ72LadJEm1Wu30QCxTqZpZxE6PBQAAdICU0swizksdZFlWr9cLhQIlYts4jhNFUTeUiHmez87OBkFAiQgAQH86U4mY57nrunEc53lOidgeUkpTm627B1wIYbpxRlHUTE4lSTLvjuR5/uY3v/mZz3xmFEVKqVqtprUOgiCKorWNUGnL0paY81+baK2b6wTM4tJWryw1tzI7O/t7v/d773nPey699NJzzjnnt37rt5588smf/OQnExMTeZ4rpc4555xzzjnnmmuuKRaLcRwXCoX77rvvox/9qOM45NewLnR7MDXP84UfllJKc3xukXiqZVlmmyjr1IG9uWcIw9D8sNwWzGmaNlPywDzmhbpx48ZLL710eHiYzQkAAOhPQoihoSGzodHcOlNrPTAw4Ps+XxTbxrbtcrk8OjpqtbI16+LM7Y6NjV166aWDg4OUiAAA9Ccp5caNGzdv3rywRBwcHPQ8jxKxbcxzsXXr1g6OwZSIAwMDl1566cjISJZlHRwMAADoFCnlhg0btm7dOq9jqlKqWCwWi0X2Lmkb81ycc845nR6INTQ0RIkIAEA/M+vFN27cOPfIpikRS6VSoVCgRGwb27aHhoY2b97c6YFYQRBccsklHGgGAKBvCSHiOB4bG1tYIgZBUC6XOdDcNkKINE0HBwc7PZDlUUqFYfi1r33tzjvvnDsRnSRJGIbzvmJUKpXp6el6vW7b9ry1DWvIFtqXWSqF1sqX2pFnv8gqmYDoiRMnfvd3f3fe6aYzYqtvutFofPjDH/6Zn/mZ66+/3vf9HTt27Nixo/ngm9i5KfjTNP3iF7/4la98xXGc1j0FwNrq6oyl1rpUKoVhmOf53D+CcRxPTU05juO67iLvtLmJ03l/LJY7R9MMmo+Ojk5NTS3vbqBvmF7eP/uzP/uzP/uznR4LAAAAnmbupnHtv91bbrnllltu6cgAAAAAcCad2rvElIgvfOELX/jCF3ZkAAAAADgtrXWnSkRzoPkVr3jFK1/5yo4MAAAAAGfS2VnEiy+++GMf+1hHBgAAAIDTMgHCddQ31cRQTbtUc4rWWkq58C5IKW3bNqnUFg1GWrqaB/viTY3E1lrPuvZMJGRb2qZqrWu12vzxtH5ZqVLK87w0Tf/6r//6+9///k033bRjx47BwUEzJ2ykaTozM/ODH/zgG9/4xpEjRwqFAr1SsY50bzBVSlmpVF7/+te//OUvV0o1+5SaBsq7du36whe+cOLEicWzqWtCCCGEmJ2d/cVf/MVrr732fe97X5qmnVrXju7XwQOWAACgS5ypQKVI6IhuKM+UUnyDAACgz1EidpVuKM+6YQwAAKCzFjnMTZXYn5RSc1cjAQCA/sREIuYy3Vl49gEA6HOUiN1jnWYFhRDNQJbRkTuSK6sYWnftSv/fHTOu42qtLWHpLC2Gdr68zoMrtHD2tT2Pg0kCDwwMPPzww7t27RoZGdm2bdvWrVvNhHAURfv27Tt27Njk5KTneaVSSSm1Tl9p6E/dG0xtklL+6Ec/OnTokOd5WuuBgYELLrjg+uuv37Zt2x//8R/HcWz+Osz9WJ3XENWs71nKiae99TRNoyh6/etf/7KXvez48eOsFgIAAMDimPEBAADAPJSIXYWnAwAAdANqEgAAACxElYh5eEkAAADqge6xfp+Lrgk6Cp1nedSQXqa1trQlhLDa9ah28EEwO86EYWhZVqVS+dGPfvTAAw+YXwkhbNt2XbdUKmmtz5pxA7pNtwdTzZvqO9/5zp133lkul80u8sVi8T3vec/ll1/+/Oc//ytf+crAwIBpLW3+TEgpgyCQUpp/aq3r9bplWUEQNK9WCNFoNJRSvu8vEjQVQkRRNDg4eMstt9x4443mb0HL7zMAAAAAAAAAAAAAAAAAAAAAAAAA9AwhhJRCSMvS1nrN+a6Qycc5juO6rhBCa23+b3JqRFKxTnV7MNUIw3BwcNC0JBZCzM7O3nPPPZdddtmmTZtMxLRUKj3vec/btGmT1vrAgQM7d+5MksT3/TzPHce59NJL8zzfs2ePebsKIbIsu/jii0ul0sTERK1Ws217YeJUStloNJ7znOf80i/9UqFQ+N73vjcyMjI2NkY2FQAAAAAAAAAAAAAAAAAAAAAAAACwRHRMXGNSWEJY7XxEzxSoXs0YVhbSXuItCsvSltWy5PP6CKaafsSGECJN0yAIhBC1Wi2Komuvvfbnf/7nN23a1Dz/xMTExz72scOHD/u+32g0nvvc595www2f+tSn7rjjjqGhodnZ2Wc/+9nvfe979+zZ86d/+qcmYr7wRs0NXXbZZVEUffrTn/7Xf/3XW2+9dfPmzfwJAAAAAAAAAAAAAAAAAAAAAAAAANDlhHha7q0/U1E99iCIjvab7eytN2nL0vXIztVKk50ru9XTvXJW/4gsvNrTX+VKbkgLSwWelHIFlz2r9RFMTdM0iiLXdZVSjuNcfvnlr3jFKyqVyt13333OOee8613vKpfL//zP//yDH/zAcZwbb7zxxS9+8a/+6q/+0R/9kTn/Jz/5yQsuuOD1r3/9o48+OjExsWnTpre+9a3VavUjH/lIvV4Pw/C0LY/zPC8UCl//+tf/6Z/+aWZmxnVdx3HW+58eAAAAAAAAAAAAAAAAAAAAAAAAAD3PdAqce4oQQnRJsrCN8jyfd0qLcnrtkedK5drq0D3IUtX5eJ2UshE9UNZHt42ING9fNNX3LFs+LSAqhNWIVtuS1HPntH5Vzf9ZlvVUa1TzK33qVK2X2DFV28KfjZ63r1Yql3Ol1vxx6vZgqnmf/8f/+B9f+cpX2ratlPJ9f2xsLE3T2267bc+ePb/8y79cLpc/+clPfvGLXywWi1rrRx55JEmSV7ziFc961rPuuuuugYGBarX6yU9+8rd+67fe/va3//Ef//Fb3vKWjRs3fvSjHz18+HC5XF74x2XurR8/flxKWS6XK5VK5982AAAAAAAAAAAAAAAAAAAAAAAAALAorbXrurZtzz0xy7Isy/oqmyqECMNw7ila6yRJOjWeFdBaSymFEFprx7VPHpuuz6aFEZGnlmhjPFUr7XrO5OHpRr0RFNwsO2Mir+UjsSw715PjA/ufscWqp5Zsy+tZayvwrGL4tGCqbVuzVSuKV9I3VZjr9C3PtZR6Wvr0qQiqfqqZqtL//itt/fuZzzJgy/JkcHRW7Kste2xL0+3BVPOXznVdy7KklEop13WzLAuC4HWve93Ro0cvvPDCRqPxve99b3Bw0LZtE9z/zne+84pXvOKKK664++67lVKFQuHBBx+84447Xv3qV//2b//2JZdcctddd919992lUmmRVKphbvq0LVUBAAAAAAAAAAAAAAAAAAAAAAAAoKtIKavV6qtf/eqXvvSlURRJKfM8D8PwX/7lX+64445SqdQPUSkhRJIkmzdv/s3f/E1zignrnjhx4gMf+ECe5+sioGvyqL7vSym11rZt1xv1R39w8Ib/uKNaqbbzabQ9oRNn1/0TQi61Y2dLOakSjVTGqW5PMNWyrDi1cstyXavZ/NK2rUxbcbqSYKrWlutauWXVk39vgnraYOpT8VRlaf3UOZdwa0JbSkk3yZY9sCXr9mCqCY5+/vOfv+uuu0x3U9/3S6XSa1/72he+8IVvectbyuXy8ePH6/W64zjmb6Jt29PT09VqtVwumysx2dR//Md/PP/88y+//PI9e/Z8+tOfDsNwKR1QzXnWxR8aAAAAAAAAAAAAAAAAAAAAAAAAANBah2FYLpdNptFksnzfX0qcqpdIKQcHB83PJpgax3Fnh7RcJo9q23aapkoJ17Pv+fqP/MC98sZzncJKEpErGYOyoln15c898JOH9wYFT+unHkwhhFKqI8k7LSwthRZCt+3WhbDixPLcf3/QpbAc25LLb1yrteV7VuBbWltCWNo6FUx9+n0xJyqTTdVPjWHJd7fVD063B1MNKaXjOKYhap7nR48e/cxnPnPppZdefvnlUsqJiYm5fxPNC3pucP+pVsWOY9pPK6XM+fvtLykAAAAAAAAAAAAAAAAAAAAAAACAfmAiVFmWmWCq53n9maXKsqeaRmqthRDNf64jtm0PDw8fOXLEcaRlCW3lX/vH7z70vfFzt2+ybam1XnpYcdm0JaSI6snexw5OT08HoaeVNkPasGGD1W/9ILPMipOnAqWWZWltOY4lpbWs3rWmV2rzShanlJWrJZ2z7dZHMFUIIaWUp9LD5XK5VqtNTU2NjIxEUTQ6OlooFJIkEUKYJsujo6Plcrler5tXtpRydnb2F3/xFy+55JLHHnvskksuecMb3vCJT3yiTxpPAwAAAAAAAAAAAAAAAAAAAAAAAOg34uk6PZzOmHvH1+njoJQaGRmpVquVSsX0KfV8eeTIkQP7D7VnAEJYjmd7gauVNvG98fHxQqGQZdl6fDxXTggrii3XteScpqm2beX5UnvXam3ZthWeLZUqhJUrK8u6M5JqrI9gapIk9Xrdtm3T27der19++eXnnXfe0aNH9+zZ84IXvODyyy//1re+NTg4qLWuVqvPfOYzhRC7d+9WStm2PTs7+7znPe+lL33pj370ow9/+MO33nrry172socffviBBx4oFotkUwEAAAAAAAAAAAAAAAAAAAAAAAAA3UlrvWXLlsOHD1erVROvdV3H9doXCtVKa6VNEG9sbGzjxo15nvdXKtVQyooiq1j498ioY1vJ0i5rUqnF0BJiscSp1laWWXluaauFvXBXrduDqVrrPM83b958+eWXh2GolHIcZ+vWrS9+8YuDILj33nvvvffe5z3veT//8z/vuu5DDz1k2/bNN9/8xje+cWpq6v777w/DsF6vj46Ovu1tb5uZmfnkJz8Zx/Htt9/+/ve//81vfvNPfvKTKIpc111iH2qlFClWnBUvEgAAgG5j23ZnB6CUWuKXDgAAALSB1tpxOjw3bqa+OzsGAAAANHXDBvmUiAAAAF1FCCGl7OwYKBEBAAAAzGVWO2zbtm1ycnJyctKEQtu5PNVMpBcKhY0bN5bL5f79wiKElaSWm1q+ZwlhCWG5S16FIqVVKjzVW/W0Bya0ZaW5lWWnbmstBtwyXR1M1VoXCgXbtt/whje84Q1vmPurPM+/+c1vfv3rX280Gp/4xCd+4Rd+4R3veEcURbZtu647PT39N3/zNzMzM77ve5737ne/e2ho6MMf/vDRo0eHhob279//uc997pZbbnnHO97xl3/5l8saTKlUasEdRU/peOwBAAAA3abjsQcAAAB0G2YRAQAAuk3Ht5ZjFhEAAADzUCICAAB0m/6N4a0RYVlSaCm0trRlWdoSnZ6XXX+01lrrDRs2DA4OduoF6bquECLLso5v+LgIbVmL9SNdE42GJYUlhWUJS+uzdEBtCn1LqafOOa8zorasLLey1FrBwDv0ZHTvt1atte/73//+948cOZKmafPx0VpHUbRv376DBw96nlcoFO6+++4nn3zyuuuu27x5s9Z67969995778mTJ8MwTNN0w4YN999//1e/+tUf/ehHhUIhTdNCoXDvvfcqpcIwLJfLtVrtrPtaaa09z/v6179+//33K6W6+Z2DDjK9Ur/97W9/73vfK5VKtE4FAKBvxXE8t4I1tNZBEHDcqJ2klLVa7Zprrrn55ps7VZuZ2/3qV7/64IMPFotFSkQAAPqTECJN0yiKFpaIYRgSUGwnIUSSJGNjY29961s7FTwwNeGDDz74la98hVlEAAD6lilL4jheWCKazZc7HpLsH0KIOI63bdv2xje+sVNjMDXh/ffff+edd1IiAgDQz/I8bzQalIgdJ6VsNBo7dux43ete16mH3dzuk08++dnPfjYMQ559AAD6VpZlpz3Q7Lqu7/udGlUfMhm8Uqn0C7/wC1YXbHK3LFprpZSZdTQ/dGr8wrIyLeqp41q2GYIjctdeSQRvBZrzrnMfkPXL9Ep1Xbcjt27CsV2brRPaUo549nf2bp6OU9cWLXyFzb3qZT0a2rKENf+1LyxLP/WbZbZJFZaVqvw7L7ggKgcyU7qNz0z3Los3WdBHH330oYcemtdZ2Lx5giAwfw7CMNy/f//ExIR5TZuJmDAMlVKO40xNTX3xi1+0bbtQKMy9kjvvvNM0QT1rKtU69cn9wAMPKKUKhULXvnnQWeaTaefOnZ/97GfPOeecNE07PSIAANBuWmvbtg8fPjw9PW3b9tz6Uym1devWcrm83r/NriOu6x46dEgpdfPNN3f2eOEPfvCDf/qnf9qyZQslIgAAfUhr7TjO5OTk4cOHHceZVyJu27aN3Svaybbt6enpHTt2vPWtb+3UGMxrYO/evX/3d3937rnnUiICANCHTIl44sSJo0ePzi0RzdqmsbGx0dHRLt9ovJfYtj05OXnNNdd0PJj62GOPUSICANDPzK67Tz755NwFjaZEHB8fHxkZoURsG8dxjh8//oIXvOB1r3tdp8ZgviYcP378M5/5zPj4OI25AADoT1LKSqVy4MCBeSVinudDQ0ObN282ybQOjrB/SCnr9frw8PDP//zPd3osy2OSWVLKYrFo/mkCWe1fUSmlqEXq+ZcHv/Hq0Ti1tdalgn3HD/Mv3Hm4VLBbvWhCCBGG4dxTCoVCa2+yxZoBuk4PpHsNNfKLrCC2ZCv/Si4Ml67+Kpd9ndqyHGFPN2atrAOrj7o3mGrNiZgufKuYdLX5WSnled7c/R5MYNX8IKUcGBiw5qTbjVKptPDExQdj/u6wSgxnYv6yDwwMDA0NmRcYf+UBAOg3JpgaRZGUcmEwdWhoqPeCqeY+rmB6a8UXXJbBwcHBwcGW3sRSDA0NDQ0NmZkdAADQb0zqQGsdx/HCYKopEigRrTkzaS0tEc1KvpGRkdbdxBIVCoWRkRGzcyKziAAA9BtTIuZ5nqbpwmDq8PDw0NBQj6UOunkWUQiRpmlnS0RzB0ul0sjISBiGpVKJEhEAgD4kpXRdt1qtLgymUiKuyQWXTggRRVE3zCL6vj86OhqGYUeSAwAAoOPMKsR6vb4wmDo4ODg0NNRjwdQVHzJuT4loWdbo6Oj6qsq01kEQ3HPPPRMTE+bVYta4HjhwwHQKbOdghKUzLTeFjRs2H6nGrtZquGw/uG80U619EZu7PD09/b//9/9uniKljOO4m3t+YvUyWyRSpFK0smOqtdzWpq24Tm1ZSlipI1oylrPp6mCqZVla66Vs9TQ3p7rQadd1rWCxV4+tD0OLKKVs2240Gp7nra+yAwAArJ759M/z3BSx81IH5vQeqyqllEIIpdSyKh9zqSVW+ysjhIjj2LbtbnjA8zx3HKder7d/NgcAAHScOZJhSkFTAjV/RYm48FJtKBHnxYM7xZSIURR5ntfpsQAAgHY7U4nYPLH5q86Ocw2trEQUQphdPFpaIiZJIqXshpo8yzJTIs7dlRsAAPQPU/bkeT63ZKJEnKdtJaJt293QpDTPc9u2kyQxS+c7PRwAANBu/VkiLrfYMyWiZVktLRHTNG3RlbeU1tp13SeeeOLxxx9vvlTMiR1JuwjLSpWoxrKWSK0tN5ZJqtvwCpZSRlF0zz33NE8xBXYQBK2/cXSM0Jawnvqv5wnLanH+9oy6PZgKrDtmh2MzP0U2FQAA9Dat9fT0dJZlpVLJ9/2lVD7m+3ytVjMpzVKppJRa89kxMxMkpeyS1IFlWbZtO44Tx/ESHygAAIB1Sms9NTWV53m5XF7i5JgpEavVqklplkqlVgzMNJewLMtxnG5IHViWJYRwXTeOY7YvAQAAPW92djaO42KxGIbhEucDza4i1WrVcZyBgYEWDcys6uuq9lO+70dRFIZh9wwJAACgFWZmZpIkKZVKS58cM41Ma7Wa4zjlcrlFGYwsy7qqRBRCeJ4XxzElIgAA6G1CiGq12mg0zKpCrZR11npPayFlmqaVSkUIMTg42KISUSmVpqnv+11yoHlZtNae583bC2/x1oAtJSxLCksKS1uWFGd/ktfsdoUoFovzTlyPTyjQbQimAmtPa+37frVadV23l/YgAQAAS7HIp784pZ3jaR3btk+ePHn48GEpZaVSOf+882wpzzpbYWaCDh46pPLcsqytW7eWy+U137lNa50kSblcbjQaa3i1q6GU8n1/dnbWdV3btjlkCABAX1mkCOy9EvH48ePHjh2zLKtWq523bZtcQokopYzi+NChQ1prpdTY2NjGjRtbVCIWCoUoirrkAVdKua4bRZFSihIRAIB+s5QSsUuKltXQWtu2Xa1WDx06ZFnW9PT0eeedF3ieOussohBKqcOHD0dRZK5nZGQky7K1fUyEEI1GIwzDLplFNO0gTImYZVn3ZCEAAEB79E+J6DjOzMzMoUOHhBAzs7Pnb9u2lMrHdAY7dOhQmqZa60ajsWXLllasIzc7qlSr1TW/5hUwhbHZAZkSEQCAPrR4BdgzJaJlWbZtT09Pm1lEIcS5W7eWSiWV52eJLQohpTx47FilUrEsK03TzZs3r3nfVCFEvV43qdR1+mh3MIbaVYihAq1AMBVYe6bJg+M4jUaDySAAAPqKWWh1pq+vWZYlSdIzX27NFmW2bdu2nWdZNY6F41iLlz5aS9uuVSpaKdd1syyLoigIgrVdUmZ6YXXhFiFa6yAIoiiiRAQAoK+YsKXp1blQmqY9WSJKKbMsq8SxsO2zloi2bVcqFbMiLc/z6P9n777j5Krq/oGfc26bujXbUjbJBkIgUgOhF4HQRNFHRLp0sfEIguCDAiICoiJFBCzoQ5cihCJNpbeAEghJSEiv2+uUW8/5/fEl85tnd7PZzc7uzM5+3i9evDaz9945c3fm3u+cc77na9uu6+Y2MZVz7nmeYRiDSZQdNfQCTdNMp9ODrC4LAAAAxWHgEJF6EXOehJkX1F/a3d3NOadgL2nbnhBKygFCH061sNJpz/MM0wx8n0LEnPciBkEghNA0LVfHzAlaBDmdThfN1wQAAAAYJCGE53n9/qqYQkTGWBAE3d3dNL9OSplwHJ2xbQ80C5FOJoMgoL1c13UcJ7ddajTQrOt6oYWIjDGEiAAAAOMTjbr2+yuKiHK+2m++CCH+fy+i7ycdR1nWwImpnDHGeeB5lLKRCRFzHjJRVietFZLbIwMAFIFiTkyl9UT7PjjwXpj9AzmRmUgXiUTQHwQAADCu6Lre0dHRK6rMzDiPRCI5X5ErL7LXWuOM2UrttH79zppmKzVAwC0ZC3P+vue9IYSulFKKzsnWus+2D1Vw1XW9AGN7TdM455ZlFVRGBAAAAIw0XddTqVSvBymasiyrmEJEltUBawfBruvWNWiaM4gQ8S3PWyCErhQVEc35OclMKVNKFdTQLPUiep4XCoX67dAGAACAYqXr+tZKMI1Ej1ke0aoljDGmlMPY5M2b99P1gXsRFWMW5yt9/++MhZSiIqIj0YtIi6rk8Jg5QYsga5pmmmZhdnICAADACNE0bWt9YkUcItpKTd+4ca9thYjUi7jE91/iPLxlAZScT8wr2IFmChGFEJZlaZpWaM0DAACAkaNpGq1d0nckkcKhohlo/v/TEZXyhChvaTm6vd2m7NOtUIwZnLcGweNKUYw0EudECJFKpQpqiBkAoKAUbWIqrW/aqzS5Umrg2wzn/LMuD4Bho0SLkpISJKYCAACMHzRHqt96mEqpSCRSUlJSNAvZ0hK2jDHOmM/YFMZ2EyKh1ADxtGQszvlGzn3G+JYKoiUlJZ7n5fCcCCFyvjhurlD/V0lJSXG8BwAAAGAwKERMJBLjIUSk/lWlFGdMKjWV892ESA4iRFyZFSIahlFaWprbEJFzXsghoq7rJSUl+W4IAAAAjB6Kebq6uvoNES3LynmPWb5QqEPF4akXsZqx3YXo2VaIGOXc51wqxbNGXXN4TqibjiqP5eSAOcc5j8fj/XY1AwAAQFGiwKnfaWYjNKiaL/RKKc6hELF2cCFijPMezoMtvYjUpZbDiXkUInqeV7AJwEKIeDxegHmzAAAAMEIyS9z224toGEYxDTTTXMRMiFhCcxEZGyBEpOXtNijFgoBlhYi5PSdCCM751hYZBACA4kxMFUJ4nheNRqmbIHNf0TQtHA5nbsx0k5BS0iO0jATqa0MOUS40eoIAAADGj4Hv/lLKIAiklMXRGaSUyrxSzpjLWIqx9ICdQZIxjTEvayUzOmO5PSfZDStASqmieQ8AAADAYIyrELHXqyicEJEOW7AnmV5ywTYPAAAAcm7gEHGEwqG86PVKOWPe4EJE6m/sdZwcnhNqUiH3IjLGpJSZyQwAAABQ9DIBz8C/Hc8hougvRMxhsIQQEQAAAArN+AkRWZ+5iMEgQkTFWMBYdvLPCM1FLIIqZb0K/rG8zrFUjCnGP/tP8dFsRN8qhkXwxwXIuyJMTNV1vaura9asWRdddNEf/vCHjz76KBKJMMZSqdSuu+566aWXOo5DF1bHcXzftyyLKnfrut7T03P11VenUil6JN8vBYoBJTznuxUAAAAwegbu1CiObiDS67VwxsSW/wYgslIO+j1OzhsGAAAAkHfjJ0TsBSHi4BV+CwEAACC3xk+IiF5EAAAAgEFCiLgdIWJuJ+YV00kGAACA4oAQceDEVPQiDgbn3HVdz/OyHzQMwzTNvOS5aFxZwvcFV0pamtIH/hqQO0qpXpVvOefhcHiUnh6geBVVYiqlm3Z2du6www7f/OY3S0pKMhntSilN03p6et577z3P8zjnvu83NDTU1dUtW7astbVV13UhRDqdxsr0AAAAAAAAAAAAAAAAAAAAAAAAAAAAAAAAADBGcc49z2toaJg4cSKlSlFq1bp169avX28YxijnpgqmEkForVOTdjWlVJehddlcjHzZVCllJBKZO3cu/VMpJYSwbXvRokWoQgcwTMWTmMo5D4LA87yDDz74zDPPjEQi2RcIpZRpmhs3brz11ls550KI7u7u888/f9KkSc8999ybb74Zi8XoOhsOh1HiEgAAAAAAAAAAAAAAAAAAAAAAAAAAAAAAAADGIs65bdv77bffkUcemf34U0899emnn45y0dRAsmiYv/ax979/7zJ0QynFOFO+Fw1rgRzB56Vcs9LS0vPOOy/78c7Ozh/96EdSSpQ2BBiOIklMpQqopaWlZ5999uc+97m2traPPvpov/3265Wbqut6PB5njAkhKFWVMRYOh+PxeDQalVIyxuj/AAAAAAAAAAAAAAAAAAAAAAAAAAAAAAAAAABjEefcdV0pZTqdFkIEQRCJRFzXzVc2pgr8wE4L01dKMcU452xUWqKUSqfTmZ8Nw0gmk6PwvABFr3gSUz3Pq6ur+9znPvfmm28+9NBDs2bN6pWYyhhTSmUekVLSzzJLHpoOkFdY3QFgNKEcNwAAjAkIEQFGE0JEAAAYExAiAowmhIgAADAmIEQEGGWIEgEAoPAhRAQYZQgRAQBgkDjnYgullBAin5Eb51wIzgVjio1uK4QQ9AOdhMw/AWA4iiQxlRLWN2/efPXVV69du9ZxnEgkku9GARQuiiSklEEQoD8IYHRk4njOObqEAACgACFEBMiXTG8vokQAAChAnHOEiACjj0JExIcAAFCYECIC5AV6EQEAoJBRP0YQBPluCMD4ghARAAAAAPKueBJTdV3v7u7u6OiIRqMofwowAM55EARUkB1fRwFGGS05Y5qmpmn4AAIAQOFAiAiQRwgRAQCgMCFEBMgjhIgAAFCYKCXVtm2EiACjj1ZAtiwLISIAABQUChEdxwmCAHcogFFGIaJpmrqu4wMIAAAAAHlRJImpjDGllKZpmqZhCARgAJxz13U9z+Oc67qO+uMAo0kpRUsn2LZtGIZpmrhhAQBAIUCICJBfQRBQiKjrumVZCBEBAKAQZIeI1PGe7xYBjCPoRQQAgMLEOfd933EcChEzlXkAYHRQL2I6nTZNEyEiAAAUCISIAPlFIaLjOL7vh0IhhIgAAAAAMPqKJzGVMUYhNb7ZAmxNZj4ZTSbzfT+RSOS7UQDjBRX3DoVChmEEQeB5HmMMQ4YAAJB3fUPEVCoVBAG+WAGMAqWUECISiVCI6Ps+Ywy5qQAAkHecc8/zXNelVUuklD09PVJKhIgAo4CWYc3uRVRKIUQEAIC8oxDRcRxd1zVNC4IglUr5vo8QEWAUIEQEAIDCxDkPgoCWXqVeRISIAKOMBpqllL7vp9PpcDiMEBEAAPqVWRSVMUY/jM9bBp0B9n9PCAAMU1ElpgLAwGiIglIOWltbm5qaaMQi3+0CGC8455Zl1dXVlZWVMcaQmwoAAHlHg4UUIgoh2traGhsbESICjCbOuWmaEydOpBCRxu+xnC0AAOSXlDKTldrd3b1p0ybHcXBvAhg1nHPDMGpqaiorK+lbm+M4SDwAAID8ohCRBpo7Ojo2b97seR5mbgGMGupFrK2traioYIxhhTsAACgESqlMVmoymVy/fj16EQFGE/UiVldXT5gwQdf1IAjS6XQoFMp3uwAAoOAopUzTFEJEo1H6J/UzjLfIjXMeDoezH4lEIvlqDIwaxdh4eKPn92UiMRVgvKBaWJxzGixct26dEIJzjiXKAEaTbdurVq2aOnVqZWUlQ24qAAAUAAoRhRCdnZ1r1qzRNA0hIsAoc1139erV06ZNKy8vZ4xJKZGbCgAAecQ5dxyHQsRUKrVmzRopJXUk5rtpAOOI53lr1671PK+urk4pheVLAAAgvzIhoqZpyWRy7dq1SikhhBAi300DGEdc112zZo3neTU1NYwxLF8CAAD5RXMRGWNCiHQ6vWrVqiAI0IsIMMo8z1u3bl0ymZw6daqmaZlexHy3CwAACohSyjCMtWvX/vvf/3Zdlwrdm6a5YcMGwzDGT6+CEMK27XfffZf+qZTSNK27u3v8nIHxiTOmcy7HwbcUxZjGeb7665GYCjCO0ABhEASbN2+mkULcSgFGmaZpSql169YxxpCbCgAAeaeUklJqmsYYa21txUghQF7QV7M1a9YwxioqKnzfR24qAADkEaXAUY7B5s2bgyDQdR23JIBRRuUONm/erJSaOHEiY0xKicQDAADIIyklrWfX2toqpUSICDD6OOe6rm/cuJExRrmpqJsKAAB5pJTyfZ+mILa2tnqeZ5qmlDLf7QIYX6gXsb29nTGG3FQAAOiXUioUCr355puvvPJKZmYg1VDtOzFJbsEY45yrLbZ25Ox/5nHaYXYjaT6klDK7eZSG2tnZeccdd2TvyDkPhUKYMFnEXKZaUwnP0PgQes/o/aAYY2zg98Zgjpl9hBHuweOM24Gfl/dz0Sam0uyZgfteB7MNQNGgW6yu67Zt+75PsUK+GwUw7tDnTgixbt06pVRVVRVDbioAAOQP3XpoOVvHcVDiACAvMiHi2rVrGWOomwoAAPmVuTH5vk8hIm5GAHmhlNJ1vbGxkTFGuakoigUAAPlCU7toBeR0Oo0QESBfaBrlxo0blVK1tbUMuakAAJBXSinOOfVXIEQEyBfqRURuKgAADIDSUC3L6vVg3/gtHA7HYjFan44W1jdNU9d7J51xzj3PS6VS8Xg8CALaOJlMjuzL2ApapoF+oFW9pJTRaLTvynqc82g02mt3LK1SrBRnPFDv7T/1PT9gnH+WaLptW7bkgpk60wRTjHH+//NLOeWacpa2meezgZNAFWMlMWboTErGBUsmmeNuI9l1eDjnXsjkgVSjm51anImpVG9a07QB1ulUSlmWNfA2AEWD+oDoB8dxMkUPACBfhBDr169njE2YMIEhNxUAAPKBQkQaL2R91jADgNHHOae6qchNBQCA/KIQ0fd9Wt4u380BGL+QmwoAAAWCpqlliiTkuzkA452maZs2beKco24qAADkHedcSuk4DopkAOQR9SK2tbUx5KYCAMBWDKZbTwixfPlyx3Fs27Ysq7S0VEppWVZLS0u/wV4qlcr8LKWkXJWtGaFBZxrU3rBhg+u6tPJyV1cXNbujo6NvphjSUMcbN2wwbm47KfWzIqmKMcaEYLrGNI1x/tnj2YmpjDNNsLTNpM7CxjaOrBQL6SwWZYFkgrGoybp6mFJsG/ms24szphSXefheVoSJqZTQv27dumeeeaa5udkwjL4XQdpm4cKFPT09mzZt6ncbgGKFyWQABQK5qQAAAADQixACuakAAAAAkIHcVAAAAADoS9f1jRs3MsaQmwoAAIUA0xEB8o7qOaFuKgAADIemaT/+8Y9TqVQ6nT7wwAPvuusu27bD4XDfDgellKZpbW1ttbW1lmVR0dS8xIS0ml4kEtF1PRQKLV++/IwzzpBS+r5/4IEHTpkyxXVdBKvjGZeKKbXtPFDFGFOMc6ZpTNMY4yyQWVVSsxJTBWeOy9I2Y5zJbR1ZKuZ4LBQwpVjAmBDMNFkyxYquxGDRJqauXbt22bJl4XB4a4mplmUtXLhwwYIF4XAYWUAAAJAXlJvKOUduKgAAAAAQqpuqlKqoqGDITQUAAAAY95CbCgAAAAC90ARQyk2tra1lyE0FAAAAGPeoFxG5qQAAsN0oyVPTNCGEaZolJSW6rkej0Ugk0ndjIYTjOGvXrp01axZjbOByqdlPkfOOC855PB53XTccDkejUU3TqL7reM5HpZefkzNAf6+xfT4H03DOmKYzTWOMZeWjZv02UzrV9ZjtsEGeDcFZEDApPyu+qhQLWcx1WVBslXtzlphaaO8z0zRDoZCUcoDPQDgcjkQi2dugfxYAAEaZEGLdunUMdVMBAAAAgDHGGPUMrl27lnOOuqkAAAAAwJCbCgAAAAD9odxUpRRyUwEAAACAITcVAAByRykVBIGUkv7f7wa6rnd0dCxZsmTatGmRSGQwSae0V85Tz4It+m3quKKUEkJQDEA9RcM/Gv3JKO0uJ40sOEIwwbddxZRz5gdDyEolUrIgYIbB6OxxzsIh1pMc2kEKXs4SUz3PK4L32Uhc5gAAAAZGualKqUxuKoVxRXBjBQAAAIDtI4RYu3Ztpm5qEASu62L5EgAAAIBxq29uqu/7nHOEiAAAAADjma7rmzZtYlvqpmL5EgAAAIBxrt/cVMdxsAgyAAD0ypPKyX1B07TOzs7FixdXVFRQ1cCBs7HoPmXbdr6Stvo+bzHdH5VSmqbZtt3Z2ZlOp13XHeZ5pgOaphkOh8vLy3VdD4KgqBLuOGdcMEHlTAesrco5CwKWtrcnodTzmWF89rNSzDCYZTLHLabc1JwlplZVVRVBCk1XVxcN5OexDSNRnxoAAAqcEGL9+vUsq26qEKKoQrfCgDtsTuCdCQAAMDp61U2lhf1wI845hIg5gXcmAADAKMjOTa2rq2OM+b6vaZrY5gq+MEQIEXMCISIAAMAooBCxV25qEASapiGkyS2cz5xAiAgAADAKKERsa2tjjNXX11Nuqud5up6zlAEgCBFzAiEiwOjoW+4yJ9PU6aYTBAGNXg1yxIpznq+Oi75FRDVNG/1mjBBN0zo6OhobG6WU9Pcd/kn2PM913Z6ens7OzkmTJkUikcIsS8uV4oqxwb5cxThnnDEuGGOs11lSfX6gWqkpe1vZq/0/FfMDptRnz6IUU4xZFnM9poZ+tO3C1ZbzM2JyFmVecskl1dXVSqkxHR9cddVVK1asyO/agbS+db6eHQAA8oXqpuq6Xlpa6vu+bduRSASdFzmUqyB7PKMTiEU0AAAARo0QYs2aNZzzsrIyz/NoLdt8N6qoIEQcPoSIAAAAo4kG+Ddv3qxpWk1NjVLKcRz0IuYWQsThQ4gIAAAwmqh4xaZNm4QQNHHLcZxwOJzvdhUVhIg5wTnvOxMaAAAARoJSyjCMtrY2IcSUKVOEEK7rIjE1t/KYVVVMECICjA6lVCgUyuQoUc6X67qO4+QkN5VzbhgGK/iMfSFELBbLfkRKmUql8tWeHKLeoVQqRRnCuq4zxbjgUg3rGss514SgA3iet3nz5mnTphVgwqAUXBl64EsmBte2zGZcY4wxzplgjPHPSphmfpt9tLTDjO1aKVgxxhUztM8OLiVTigmDCcYSyVEqmqoYM4Svj+BKxzmLMlevXp1IJDzP2+b7TAixHUnS2R1829fZxznPjINurWG1tbWGYWRKv9L2ffPFqUTJYD5RFDDRwQfTZiGE4zi0liEAAIw3nPNNmzbF43EhhO/7WMs2t7q7u4MgyHcrxjwhRDQaxTsTAABgdFDnw4YNG8LhsGEYnueN9RXBCgf181BfVr7bMuZxzqPRaKY/DQAAAEYU5aY2NTWVlZVRiEiDVvluV5HgnCNEzAnOeSQSMQwDISIAAMDooNzUSCQSi8Ucx6GB5nw3qkhwzlOplOM4+W5IMYhGo6ZpFmZxFQAAgCKTyU0tLy+Px+M0FxHDebkihEilUrZto2N2+BAiAow0IUQikfjiF784b94827aFEEEQhMPhp5566umnn47FYtv8AGbysAbYJr91AQezjeu6EydO/OEPf0iP0I2ypaXlxhtvDIJgrF/P6Q/U3NyslMpkrtlJxzBMwzC376/DOfc8z/EdK2wyxTRNs227vb29urra9/3COWNK8GjCKd/cJRxfDTIx9f83nmf+xxj/7IfMbzOPBwEL5LCKm7bbTBNMMcbUZ/9njNnu4Gu8DgdXTOoi3JEcuafIWWLq73//+8G8Xznn6XTaNM0h5TNQdmiv4wyy0DPb8jHzPM/3fdM0adGXvs8eBMG11147derUzJWFpnvSJ5PG9YMgoGx+xpiUknJWB3hqKSU93cB9vvTqKE99/fr111577eBfHQAAFA1anCydTkej0Xy3pdhs2LAhkUggkSMnLMuaMmUKZpUBAACMAopePM9zXdeyrMwj+W5Xkdi8eXNXV1e+W1EkDMOYMmVKKBTCkCEAAMAooOGqZDJZUVHBtgxFoaNm+DjnjY2NHR0diLpzQtf1yZMnh8NhvDkBAABGAYWItm3H43G2pRcRd+HhE0I0NTW1tbXluyHFQCllmubkyZNDoRDenAAAAKNDKZVMJktKSjJllmCYaKp/a2trS0sLQpqc0DStrq6upKSkCBLDAAoWJWGGQiHKjQqCIBQKDTy0lP15DIKgYNdI5Zz7vj/ICzLnPBwO08+ZczKSrdtGYwYuuzjUo/m+77oupaEpppjk+xy02057TYnETSm35ymE4OmE99HbqxZ/8Kmmc6Y+W7qroN4MXMogZO7b5u/35mY2hMzR7Tghw3vJSvXzpHw0cwaV4pxFIlLKkfjj5SwxNZOuOQDqBp07d+66desSicQgcy+llKZpZi+GQfHxINei45w7jiOEmDZtWnV19Zo1a9rb2w3D6JsZGwSB7/tSStd16UNOH5gPP/xwp512ikQivu9HIpHu7u6PP/54woQJ06ZN03Wdlg3o96npkr148WLLsurr6xOJRK9CbZTvqus6XeCUUpZlYRlmAIDxTClVUOuIjHVUQaKjo6Onp4eWisg8vn0HHOt/mpy88HQ63dXVVWhr3gAAABQx6ovMdyuKCi1h29XVJYTInFuEiEOV/cJd121vb584cWKOGgUAAADbkN2LiPlPw0fzyVKpVGdnZ05CRDbGo8SchIie53V0dEQiEbxFAQAARs2YjkAKEE24bG9vR4jIcvTCPc9ramqqr6/PUaMAAABg2zKT0tFFkxNCCMdxWltbsytsIUQcql4Jb21tbbFYbEyfCoDCRwmQQRBk/j/wR5jyqij/q6KiIh6P9/T0FFTtPSoNGgRBXV2daZqu67JBzLDK5HPR7nlctcF1XTrDpmkO81D0Wmzb9n1f0zTGmZv2D//ivgecsKNtp7f/JqVYqdCnfm7v+F8jb/zz36GIydUQ0oBHDWeMDSKZMf96vTFH/SzSoPIIHTxniakDv73oGtTe3n7EEUdccMEFP//5z9vb2wez/hldy84555zddtuNPniUm97W1nb11Vd7njfwhYPiv7q6um984xszZ86kC8d777335z//OQiCTJHizEvgW9ClNhwOP/HEEzfffPP9999fUlKi6/pf//rXhx9+OJVKGYZRXl7+wx/+cNddd02n070usnS9jkaja9eu/fa3v3366aeff/75d9xxx5NPPllWVkaXM0q4NQyjoqLiN7/5ja7rtNQH4ioAgHEON4Kc69u/tt0nudDi6aEa/gvPREq5axQAAADAqKL+n1QqxRjLDmwQIg5V9gun0r5j/VQAAACMLehFzDmKZ3r1fW3fec7VEtf5kqsQcUyfBAAAABjnaFqn4zgIETOG/8JpHmCmVgQAAACMAtx2c4iWt0un0xQrIkRkw3jhwzwCAGwH/n9tbTMqtrdy5crm5ubq6mrHcSZOnHjQQQc98MADFRUVhXPVopk/Qoh58+Yxxqhe4OrVqxOJRCwW831/a3v1+/Noouqmp5xyypQpUxYsWPCvf/1rMIl12zxmZtKO7/nlFWWf278+0dOjfM7EMF6mlIGfmHPkjKULV3f1dImCTXYrmLflQMZCG7dbzhJTB0A1S6WUX/jCF0499dQhJUkHQRCJRGbMmLFp06ZVq1ZR3VRN0xKJxGCSWj3PKysru+yyy0zTvPvuu1etWjVz5sxzzjlHCHHHHXdsrfKyUooKVT/zzDN33HFHZWWllFII8fzzz998880nnHDCeeedl0gkfve7311++eW33Xbb9OnTM1WP2ZbibKFQaOHChbfddhtlqDLGZs6ceeSRR0YiESklpde2tLS8/PLL++67r2VZVKZ10CcVAAAABqvvHdb3fVoPYvAHoe4kKrs6Fm/Zn33f2K4Xrmmapmkj1jQAAACAPKDOmexHECIOacfMC88Yi2cAAAAAIFvfeEZKmalMOySGYfR7wDGB6vHmJEQEAAAAGOtyEiJSHubYDRGpF3GYLxwAAACgaPQdaFZKbV8WgK7rY7eilVIKISJAUVJKmabZ1NS0aNGi448/3rZt27bPP/98x3EWLFiwfYMmI0EpVVVVdfLJJ8+dOzeZTAohNE176623CqeFAwiCoKGhYcaMGYlE4h//+EdOFvqkV805D/xgQnW5FdNcj3FteKdC4zKQoZg2oaa8vaNdM3H1hv6NxuhgEATV1dWnnXbarrvu2traWl5ePsiPOmWWTpo0qaSkZP78+fPnzy8pKZFSUuHTSCQy8HE457Ztn3TSSWVlZb/85S/fe++9srKy559/Xil13nnn7bnnnv/5z38oTTR7Lxo3Xb169T333PPGG29Mnjy5q6tLCOH7/j333DN79uwf/ehHSqnq6urrrrvupJNOeuKJJy677LLMhYB2TyaTf/zjH5944onp06eHw2F6imOOOeYLX/hC5omklN/61rd22WWXb37zm1QMdqgnFgAAAIaKoouamhpaV2KQ91/6orVmzZpNmzZFo9Hq6uqRbmducc6bm5sTiURNTU1DQ8M2a85n0FIaGzZs2Lhxo2EYhbPWEQAAAEAO0WKE0Wh0l112GXwPNS1M1t7e/umnn0aj0aqqqpFuZ24JIdrb2zs6OiZNmjR16tShxsarV69ubGw0TRMhIgAAABQlChFLS0tnzpw5pBDRMIympqZVq1aFw+Gqqipd18dQvCSEaGtr6+rqKikp2XnnnYcaG7e1ta1YsQIhIgAAABQxCnv22GOPwc/yypTVWrx4sWma1dXVmqaNoXhJCNHd3d3a2lpRUTFz5syhDjQ3NjauWbMGISIAAAAUK865lNI0zT333HPwAQ9Fld3d3UuXLg2FQtXV1ZniWGOCEKKrq6utra2qqmrGjBlDChE1TUulUkuWLBlbHacA4w2lRN1xxx0HHHCAaZqe54VCof/5n/9pbGzs9ZGnC1pLS0ssFotGo70ys4bfDF3Xm5qawuFwOBzuddGQUpaVlZWWlqZSKSllPB5fsGDB/PnzY7FYEAQ5bEZucc6DICgpKaFENtu2R+JZcn6BxRUbBjbiialULvW8885raGi44447ysvLTz311EF+1OlTV19fzzlfuXKlruu0yohlWZZlba28cgaFL7W1tZ2dnStXrqyoqBBClJWVLVq0SEo5e/bsBQsW9Lujrus///nP161bd8MNN3z66ad//vOfaUmSSy65JBwO+77vuq5pmrRlMplkWQvaSSlDodATTzxx3333fe973zv88MPPOuss+lU6nRZC0IuKxWK33HLLRx999Oc//zkej6dSqbHV7QgAADB2SSkjkUh1dbXjOIPvE7Esq6WlhZbsosBgpNuZW7SgDr3woWYddHR05PbrIgAAAEChobCnurp6qDOrgiCg5cbG3KquQgghxHbHxs3NzejIAgAAgOK2fSGiaZq2bVOkpOv62FrrjcYxtzs29n1/DL1YAAAAgO1Ak2KrqqqGlJhKWQeZEHFsTcEXQtCEPQoRhzrQnE6nx9CLBQAAANgOlK1QVVU11MRUTdMYYzTQPOYSU2mg2bKsoYaIuq53dXUhRAQocDSTZOHChbfccssNN9zQ2dnpuq7neZWVlb0+7zQ6kMkRzW1GaGZaTjQajcVivaYx0wKjPT09jLFYLOZ53nXXXZdIJGKxWIFfZCjjrKSkRAgRiUSQRwZFYMQTU5VSoVDoX//61x//+Mdly5Z9/etfH+ruVVVViUSitrb22GOPpdSIl19+ecOGDZlKpAPsq+t6aWlpd3e353mmadL2tDxJeXl5v4PBlEl7yimn7L777lVVVUuXLqUhWCHEfvvtxxizbTsSiTDGHnjggcbGxh/84AfZBxFCBEGw4447/uUvf9ljjz3WrFlDGSz0K03T6DK9ePHi+fPnn3LKKbNmzaKs1CGdFgAAABgOKaXneUOaWUWdKZl/jmTrRtB2vHAKnEa6YQAAAAB5p5QaaqTEGMusmzbmQsRMg4cZGwMAAAAUse0IEWkmROafZCTbmEuZpg4zNgYAAAAoYhQpDSkxVSk1pkNEau0wY2MAAACAIkaR0pASU/uGiCPWutwbTi9i9gsHgAKU+YAHQVBaWnrvvfd6nnfJJZdUVVWl02nP8/rd3vd9z/Nc1815YmrmOuN5Xt9pKpzzaDQaCoWWLl163XXXffjhh5S/WsiVh+ibck1NDVVqnDx5ciQSGVI/A0ABGvHEVMYY5/zNN980TTMejw91X03TGhoaYrHYWWedtWnTJs/zdt9990MPPfSOO+74z3/+Q/WLt7avEMK27bVr1x5yyCGTJ09evnx5eXl5R0fHrFmzaG0Sy7L6jeQ450ceeaTjOL0OnkwmdV33PO/KK6/cuHHjhg0bLrroogMPPJBKoWb29X1/zz33ZIxJKYMg6HWNoH/+6U9/qqioOPPMM33fH1vLnAAAABQHvsXgtx/R9oyacfvCAQAAALZpOyKl4giWECICAAAAbA1CxCFtP6JNAgAAACgQQ418iiZSQogIAAAAsDVDDXuKJlJCiAhQNGiNctM0U6lU5pFQKPSXv/xlwYIFF1988a677lpZWbm17K2hXg0GaYBjUt7WunXrXn755T/+8Y+tra3xeHxMrLEupYzH47quu647thYmANia0UhMZYxFIhHOeTqdHvwunHMqu+w4zsqVKx9++OElS5YopWbMmHHJJZd84xvfWL16dTKZHKBysVLKNM233377oIMOOuecc+65557Nmzfvv//+p556quM4QohMLdO+0uk0lZjPflAIwTkXQuyyyy5TpkxZtGjRk08+OX369H333Tc7N5Ux5jgONb7X8ans8sqVK//9739//etfLysrQ7lUAAAAAAAAAAAAAAAAAAAAAAAAAAAAAAAAABhllHsVj8fb29t1XacULaVUeXn5qlWrvv3tb9fW1tbU1PSq28c5dxxnxowZN998c27LpdKzG4bR0dFx4YUXmqbZN2ssCIJ169Z1dXWFw+GSkpKcN2DkTJ48mTGmaRpy9aE4jFJiqpRyqHVBKWtUSvn73//e9/0gCEpKSoQQn3766QsvvHDyySfvuOOO7777bjQaHSAxleoy/+Uvf/nGN77x05/+tL29vbS09IEHHjjwwANTqZTjOOFwuN/dKW217wGDIDAM49xzz2WMdXV1XXbZZdddd93vf//7qqoq3/cz1wXKX93ai3rppZcYY/PmzSvwOtEAAAAAAAAAAAAAAAAAAAAAAAAAAAAAAAAAUMQqKirWrFnDOc/kUgVBEAqFGGPt7e1NTU29thdCpFIpwzD6Tb8aPs6553mLFy82DKPv8TnnpmmWlpZKKbOzUinJtqysrFcabYGgdN+enp4PPvjgwAMPrKmpWb16dSgUGhPlXgH6NUqJqduHiqbatm2aJn3SlFLhcHj16tVKqcmTJ7/99tsDXymklLquv/TSS8uXL995550ZYx9++GE6nT799NNfffVVSiUd5BWQcx6JRBhjtm2n02nf90tLS0866aSf/OQnmzZtqqur8zxvm5ctXddt237rrbdmz57d0NDged5Q83UBAAAAAAAAAAAAAAAAAAAAAAAAAAAAAAAAAIaJc+77/pQpU1auXNnd3W1ZVibNin4wDMM0zV57CSE455ZlUapXbpskpaRczWg02m9iKrWNtsnO5Eqn07vsskssFnNdt9ASU6WU4XB40qRJqVSqsbFR0zSqT8s5H3xqG0ChKdzEVMpKjUajp5xyypo1a1599dVYLMYY8zyvurqac7527dptJtZLKWtqaizLWrNmzebNm+mYO+ywgxBi48aNg0wKVUppmtbd3f2LX/zioIMOOvroo9PpNH3sh/TJl1Kaprlw4cJVq1adf/75mqY5jqNp2uCPAAAAAAAAAAAAAAAAAAAAAAAAAAAAAAAAAACQE1JKy7L23nvv999/v6urazApnUII27Y9z4tEIiORmBqJREzTtG07CILBH7+hoWHnnXemKoa5bdLwUW5aSUnJmjVr0uk0Y4za6fs+/Qq5qTAWjXZi6pCSOWnLww8/fP369S+//HJPTw9jTAhx4IEHptPpVatWmaY5wNGEEMlkcu+99/7KV77ys5/9bPHixdFo1HXdY489NgiCJUuWbC1vPhvnnNJfDcP44IMPNm7ceMwxx0SjUfrtq6++WlZWVldXN8Bli5YByLyctWvXSimpfGsBXukAAADGCb7F4LfP/Jy5uY9Fw3nhAAAAAMVtmCHiyDRqpGTHtAgRAQAAALZmOJFSZpBxZJqWewgRAQAAAAZjSGFSr+0RIgIAAAAUpaFGPtlhlRBibI01DzNERJQIULA4557nVVZWHnbYYRs2bGhraxvMLo7jlJeXf/jhhzn/qquUCoVC69evnz59+mAyNinna+LEiTU1NVRttdAuOHSGJ06cGI/Hm5qaUqkUY2zSpElLly6dPn16IpFoa2sbTI4bQKEZ7cRUXdcHGVLQdaG9vf2BBx447bTTvv/97//rX//inB9zzDGzZs168MEH29vbo9EoVV7e2hHC4fCrr7562GGHfe9733vqqac2bdp0+OGHz50797HHHlu/fn08Hg+CYOBmeJ5n27bruuFw+Dvf+c7Pfvazq6+++stf/rJSav78+S+88MIPfvCDiRMnptPpfoNCpVQ6nfZ9n20JOhctWsQ5Ly8vx/UCAABg9FGAsXHjxra2tiHdi+nrk2EYvu83NzePXAtHiO/7hmFs3ry5o6Nj+144QhcAAAAoVkopXde7u7tfe+21Ie1IXcYUIjY1NY1Q80YI59x1XdM0N2zY0NLSghARAAAAIBuFiO3t7dsRIrquaxiGlLKtra3QJj0MLBPmdXV1bV9srOs6QkQAAAAoYkIIx3HeeuutoSamBkEghJBStra2jrkQ0fM80zTb2tpee+21ofYiuq6LEBEAAACKmFJKCJFOp998880h7UjF8TRNk1K2tLSMUPNGSGaUvLm5eTtCRN/3x9ZaLQDjSqarf4cddthhhx0GuZeU8o9//ONItIcGa/bff/8h7eJ5XsGmwSulLMsSQjQ3N69cuZIxVl1dnUql5s6dq+v6PffcY1lWJsctexWAAfLmAPIul4mpnPOBowQhRHd396ZNmzzPG8zaHpRZ+q9//SsIguOOO+7SSy9VSrW0tNx+++3vv/8+ZaUO8KR0Gers7Lz77rtPOumkM888kzHW2tp6zz33vP322313z65rSqSUlZWVM2fOpI/30UcfbRjGn//85x/+8Ie6rldXV//sZz876qijbNum4/S6eEkpDcOYOXNmeXk5XQiklBUVFXvvvfekSZPoete3zds8LQAAADAcdNdOJpND+tZBvUg0XphIJEaueSOEGr/dL7wwv6EBAAAAbLe+PTCc83Q6PdSDUJQVBMFYDBGpPoOUEiEiAAAAQL+GEyJSR9wINWzkZOZqbPcLH5l2AQAAABQKIYRt29u341gPEbd7hH3EmgYAAABQECg3dft2HKNzEWmgeTvmIhKEiACFjKZYu647pL0syxqh9jDGhtqYQpjN0m8bhBC+70+bNo0xtmnTJroY0oKhkydPnjFjxtNPP51KpTILPEkpfd9XSlHxWOSaQcHKWWKqUmrgJGwppWVZb7/99ltvvSWE0DRtm9VK2ZbA5aWXXnr11Verq6ullM3NzXQoKkM6MNpy6dKlP/3pT2tqagzDaG1tTSQSlJXa65MZBAE9HU2to2mFJ5xwwpe//GUq5ayUOuqoow499NDGxkbDMOrq6mhpN03T+j417V5XV/fnP/9ZKRUEAWW3XnDBBbQSHue8146Y1QcAADAS+s060PUhR0GZ4/R76y9w1PhhvvABHgEAAAAYK6gP3TTNvj0w2xHmIUQc4BEAAACAsaXfeGZ8hohseC98gEcAAAAAxhbqQuxVNWH7wjw6wpgOEdGLCAAAAOMchYWGYeRkoJmN/RBx+waa2f+NCbdZFw0A8mKoOU0j+kEeiwlWjuP0Ta+jhQxM0wyCoK2tzTAMxlgsFisrK6utrQ2Hw5///OcffPDBaDRKyaic8zPOOKOuru6ZZ55ZvHhxJBJB3VQoTDlLTKX5fIO5oGxHABEOh6WU7e3tnPNYLDbUSsSWZSmluru7qYbqhAkT+s2JpYRyx3Fc182+eGWXQk2n07qu19XV0SIfUsptLtrRt5Jq30cyj1Pl6MG/NAAAABgARR2RSISCh+wgZDjfgsZ0V8hwGk8nkBI52Nj8sgcAAADAGKMQkdYUo5VcM48P55g5al0eDDNEZIwFQZAddeeuaQAAAACjgXq9QqEQrauLEJHlIkSUUlIvIgAAAMBYRCFiOBzWdd33fYSIbNiNp0IOpaWl2ScTAAAAYGyRUobDYcMwHMfRNA0h4vBDRN/3o9EoBpoBoGhQ7cPzzjtvxowZjuP0SjcLgmDKlCm2bXd2dpaXl/u+X1dXV19fX15eHgTBl7/85b322osuhnSBnTx5shBi2rRpN95444YNG0zTHNN3DShWOUtM/f73v19bW+t53sjFBNkfsJHYXQjxu9/9bv369dv8uGbW+di+lgzcyMEkuwIAAMAgSSkjkUhtbW17ezvNKst3i8Y2znlZWVlpaWm/y3wAAAAAjAlKKcuyamtr29raENXkRGVlZXl5+dbWYgMAAAAofLQWW21tbWtrKyUe5LtFYxvnPB6PV1ZWYoYEAAAAjF0UIk6cOLG5udn3/Xw3Z8xTSpWXl9fU1OS7IQAAAADDQgWumpubUYkqJ8rKyqqrqxmKZACMsL599fjQjRzOeWNjo6Zpruv2HW9au3ZtV1eXEKK1tbW7uzsIgunTp2ua9sgjj5SXl0ciEfpj+b7/uc99TgjheV4kEgmHwxhwgYKVs8RUtcXWfru1GqSDP/5wjpDZfoDj0M+EHsnUVetV5ZW26fdXW7O1zfo98uBfFwAAAGyTUqqioqKkpGRIFdehX0IIXddxJgEAAGCsk1KWlZXF43Ekpg4f59wwjAE6BgEAAADGBKVUaWlpLBZDiDh8CBEBAACgOEgpY7FYJBJBYmpOGIbBxnhNMAAAAAApZTQanTp1KkLEnKByYggRAUaarvdOHPN9v1fy1GAM8Gkd+Dijv2OvLUctUUspZRjG/Pnz6Qz3u42maeFwWAhBC+vvvPPOqVTqlVde6ejooERWzrnneZMnT/7ud78bCoXeeuutlStXWpaFqyUUppwlpt5yyy0DfFDpM5NdaHSoHwkhRCYFYpC5oEopet7sRzjnmUNRSzKV34MguOSSS6ZOneo4Tq9s1a0df+BrU7/tzC6I2qs4Kl1W1q5de9NNN2ElZgAAgByiWqmapuW7IcUAWakAAABQHKhHiOZCwTAhRAQAAIDigBAxhxAiAgAAQHGgqAYhYk5gBi0AAAAUB4SIOYReRIBRIIRoamrq9WBNTY3neY7jDPKbmlJK07StTcNWSm2tjvTAO0opt5bAud3P2Bfn3HEcz/N6ZXiN0LdUpVQ0Gh04641SyVzX3XHHHTVNW7p0qW3bFRUV2UlznZ2dN954oxAimUyiYioUspwlpnqet7U3uhAilUplskFomeFQKDTISIKuMqlUii4rSqkgCEKhENvWhYDKFnPOaS86lJTStm3DMDjnrutqmpZpSRAEuq6bpsmyclZN0wyCIJO8SuhopmkOfC2TUmqaJoTIrImSGczOtMf3/czBlVKmaSJOBQAAyLntWxcDAAAAAIoeQkQAAAAA6AUhIgAAAAD0ghARAAAAAHpBiAgAYwXnvKWlJfNPyoecO3fuJ598smbNGipcPPARqGRgT09PT09P3wp8lAZVW1u7tR3T6XRnZ2ff7FOlVDgcLi8v75WuldkxmUx2dXX1+4y6rvf7jP2i3LEjjzxS13XXdTPPpWnaCJVR3WauHOfctu2NGzfW1tZyzpctW+Z5nmVZ2TsahkHZc9FoFGn8UMhylpi6tdLGlFw+Z86cL37xi+Xl5Yyx9vb2Rx99dPny5ZZlsW2FZZQmHgTBUUcdddhhh8ViMc/znnnmmddff32A3FRKRu3u7m5oaDj33HPvueeetWvXhkKhIAgsy/rSl760//77U97/k08++cknn8RiMUqXVUpJKelD6/t+LBabP3/+u++++7Of/YySS+nplFKhUOimm25qb2+/9tpr+22D7/vRaLSlpeUnP/nJf//3f++0006O4wghnn322SeeeMJxHCnloYceesYZZ2iaFgQBvVIUowcAAAAAAAAAAAAAAAAAAAAAAAAAAAAAAACA7UZ1Rzs7O13XpQxPSlzSNO2CCy7IztIcQBAE4XD4sccee/LJJ+PxeHaSJOWdTp8+/Yorruh7NCllKBR6++2377zzzl7ZlZR3uuuuu37ve9+zbbtX9int+OKLL9577729npFz7nledXX1lVdeOci0Ukpzzc5KVUpxztva2mzbHkxqbs5RjcPu7m5KuFu8eLGu672akV2dcZSbBzAkvXPHc3x0IVKp1H777ff973+fMfbGG2+888470Wj0Rz/60R577GHb9mAuBJ7nnX/++WeeeWZ7e/srr7zS2tp67rnnfvGLX7Rte4C9uru7q6urzzzzzPr6evqIUpr7WWed9aUvfWnJkiWvvfaaZVmXXHLJTjvtlE6nhRCZzy0l0MdisQ8++ODOO+/MXh6APtXhcPipp57629/+1tzc3O81iIov9/T0/OpXv/roo4+ocGs4HJ4/f/4111xTUVFx+OGH77HHHvfff/+vfvWrvhn8AAAAAAAAAAAAAAAAAAAAAAAAAAAAAAAAAADbgcqZrlu3bvHixZZlUT0/etxxHPphMAbzRNu349b23e5n7PdQUkp6vRlCiDfffNP3/REqmrpNnHNKJWtra2tqaqL6qDk6ck4Ok33A/JwiGCtyVjG1X1R09JRTTlmxYsX1119v27aU8u9///v1119/wgknfPjhhwOnblMS/O67777vvvv+9a9/ffLJJ3VdF0L87Gc/++pXv/r6668nk8l+szpd1z388MNPP/10wzAoKZQONXfu3H322eevf/3rY489ZprmU089ddNNN5111llXXXUVZa6yLbnvPT09jz766MMPPyyEiEQimU84ZaWuXLnyrrvumjBhgmmafZ9dKWUYxrvvvvvrX/+6tbW1oqKCjtnV1fXoo48efPDBN910E205derUX//618ccc8w+++yTTqfxcQUAAAAAAAAAAAAAAAAAAAAAAAAAAAAAAACA4dN1/X//93+nTJlSXl7uOI6maWz8ZRtmXm8QBJFI5L333nvzzTcjkUge65FSntqaNWt6enp6VZQdjsCXSjGmGBv2X1gpphQL/GD4h4IiNoK1Oqm4cG1tra7rb7zxhuu6lZWVEyZM6OzsfO+99yZPnjxhwoSB88spw/OEE07YvHnziy++GIlELMuSUj7wwAMPP/xwpg5qrydNp9Nnnnnm2Wef/Z///OfFF180DCPz+dx9991t23777bfLysoqKip833/ppZcmTZq00047ZZdvNU3zqquuuueee84777wdd9wxlUplclY1TbNt+9prrz3wwAM/97nP9c2MDYLAsqwXX3zxm9/85s4773zKKaf09PTQNul0uqura9asWYyxtra2IAh22WUXTdM6OjrYlmsKAAAAAAAAAAAAAAAAAAAAAAAAAAAAAAAAAMBwUFpWe3v7Qw89xDkPhUJBEEgpB19xdDBVTAttx35JKaWUkUhkw4YN//u//2sYxnae02GTUoZCoeeee+6nP/3p448/Tolywz+sUsowjc0bWjo2p82IHvhSSrXd/wW+DEWMjs3pTeubDUMf+M8B49kIVkxVShmG0dTUdMUVVziOE41GXdelC9kOO+yQSCQSiYQQYmvvTsprLSkpaWho+Mc//tHZ2Tlz5sySkhLbthctWvTRRx/F43FN03rtTk/qed4f//jHF1544YQTTmBbrjiapk2aNKm9vb2np0fXdd/3dV1fuXKlUmrKlCmLFi2i7FPOuW3b++6773e/+92ddtrprbfe8jyPDk4f/ttvv72tre3uu++++uqr+zaec66UCoVC11577Ze+9KXnn3/e8zxKTK2srJwyZcprr7125plnVlZWMsZee+01xtgOO+wgpey39CsAAIxDiNsAAAAAAAAAoBBQd3e+WwEA/cPHEwAA8gI3IAAAAADoZbzV2gIYW/AlDgAAGGNSymg0+p///Of6668/9dRTGxoaGGNBEAwykKMtqc5qv+i3pmn2OqCUknOu61tNW+Occ85N0+yVTjWYHfs+3TZR/tq//vWvv/3tb1Q5No83SiFEe3t7S0uLpmlUtXH7jkNj+nQOlVJCE2k79crfFn7hG3OjFSHFtv8FCiE6NzlP/++bjmcbhi5V3krLQoEbwcRUxhjn3PM813XpMqHrekdHx9y5c6dOnfr3v/89kUgMXG6Ydvc8b8WKFWecccYXv/hFzrkQ4v3333/ggQcov7Tvx88wjAcffJCyQ03TpAfpShqJRIIgyFyzlFK6rnPOXdftdZDTTz+dEuLVlqKsVK954cKFDz/88C9+8YtQKGTbdt9sUiGE53mHHnoofarT6XTmYielvOqqq375y19eeOGFe++994YNG5YsWXLppZdOnTqVUnYR/cPIodxszjnlV+f3JgoAA+CcG4aBTygAAIyCTIiolBJCaJqWk2W3AAAAAGCso15E0zQNw3AcBxPLAApQdi8iPqQAADDShBA0/4FmgyFEBChYGGUGAIBRRlNwQ6GQ4zgDVKkBgDzK1ILD9zgAgHGOskhWrFjxi1/84oADDthnn33Kysoo/3Ob+wZBEA6HqTBh399S2ldTU5PneX0TU0OhUGdnZ7/Pwjl3HKelpaVvZhbt2NXVtbVn9H1/8+bNg7+7Ud/m2rVrX3/99cWLF1uWVQgJNbquU/LtMFsipbQsS9f1IAiUVJZlrlqx9v6bu3bZc0asNCwDyYYaBSgmNJHoTi/5z8qO9k4zZDD1WRVJIcTgU5phnBjZxFTGGKWS0oznzs7OHXbY4dxzz92wYcP8+fNDodAAnx+6PE2dOpVzToVPb7vttubm5gMPPPD444/nnN9555397qiUostEV1dXZkje9/3S0tKampqXX37Ztu1YLJbZmDFWU1OT/cHgnKfTaaVUJBLJbGaaZnt7+1VXXXXiiScedNBBvu/TNS4IAtYnXndd1/f9WCyWfR2kKQJBEGzatOmdd97p6emRUpaWlmqalinKCjByaD0JmlIWiUS6u7uHs7ICAOQc5zwIglAoFAqFkBcEAACjSUppGEYkEmlvb0eICFBQKES0LCsUClGnXr/9rQAAADkkhKC1SzRNi8ViqVQKS2gBFBTq59d1PRKJUC8i5n0CAMDoyISItIY4BrMACgd9idN1PRaLIUQEAIDRQUWxKJMhHA53dHRgoBmgoNC0ds55LBZTStF65fluFAAA5JmUMhwOSyn/8Y9/vPrqq5kqgIOklKLdex3TNM0NGzZcffXVA+zYd248pZ4uX778Jz/5yZCekfpA2tvbr7vuuiG1nzGWSqWEENFolG6OQ90953LVBjon0Wg0E5abptHV1fXai+/xIeekZh2WKcPUzJChpKLep5KSkpw0GIrMiCemMsYonE0kEvvuu+/555/v+/7dd9/tuq5lWQN/kOgCpOt6eXn5T37yk8bGxnA4fO+994bD4SOOOKK+vn7VqlV9LzS0Y68HNU1LJBKdnZ1lZWWZtTzZlsg7k8Ka0beLVtf122+/va6u7uKLL2ZbctM556FQiDFm23av1NbsCJ4OtWbNmu985zv19fX/+7//W1pa6vv+H/7whyuuuOKqq646/vjjex0BYCRomub7vqZpkydPXrFiBdUfz3ejAOAzVNN74sSJQgha/qAQ1mIBAIDiRiUOfN9XStXW1iYSCVrLFt9NAApBZoBw0qRJuq57npfJFMp30wAAoMhRL6IQoq6uLpVKJRIJ9CICFA4ppVJq0qRJlmXRRxVZBwAAMAqoa0JKWVVV1d3dnUwm0YsIUDhoSf0pU6aEQqFMiJjvRgEAQPHTdd1xnCAIqqqqkslkZ2enpmkIEQEKhJRSSllTUxONRn3fp2Ry9CICAAClWdGyBYMslzpI232XGc0do9Eo23ISiglNJ6upqbFtO51O001f13XDMBgbzt2fK6WUVEop3/crKipKS0tz+7aB4jAaialCiO7u7iOOOOKcc85ZtmzZH//4x5aWln4TSrNRnd9169Z5nrdw4cKmpqaysjKlVDQaXbBgweGHH15fX//pp58O5j1NK3cmk8nW1tZJkyaZpplJTKXOWd/3B9g9CAJd159++unnn3/+rLPOeumll2zbDoVCHR0drus+9dRTM2bM2GmnnShw7/cI9Er//ve/J5PJyy+/vK6uzrbtaDR68cUXL1u27JFHHjn66KOFEMV3gYOCQoV/gyCgejs77LBDc3NzKpXCV02AQkArHUyYMCEajdLcsnA4jI8nAACMtF4h4o477kghIhVmzHfrAMY7WmG6oqIiHo8HQUCrdyFEBACAkZYJEaWUmqY1NDQ0Nzf39PTgHgRQICzLqqysLCkpoc8pLZ8KAAAwoihE9H2f5k5Mnz69tbU1mUwOMEcCAEZTKBQqKysrKyujENGyLCxvBwAAI41munueRyHitGnTmpqaECICFA7TNMvKyioqKijvyDRNhIgAAJBBiUvjMGwr4owtKn5QX19Pg/uUjJCTI3PODcOoqqqqrKws4hMIwzHiialCiJ6ennnz5p111llLliy57bbbPM+LxWKUEbpNnHPK1aGkbfps0L6lpaVD+qhQLSD6gNFhGWORSIQxlkqltnlV7ejoqKqq+uc///nMM89kNtY07Te/+c0ZZ5wxe/Zs13UHXjbetu14PF5ZWem6LmMsnU7HYrGamprly5dLKbFaIYwCzrllWbZtM8Ysy6qvrx/kJxEARgHd6aSUvu9bloVCBwAAMDqyQ0TTNOvr6wdeuAcARhP1M1D2uGmaCBEBAGDUWJaVTqcZY5qmTZ48GSEiQOHIhIi+75umiUIHAAAwakKhUDqdpj6KyZMnU/7bOJy+BlCAsnsRdV3XdR0hIgAAjAJaUzWVSvm+T72ICBEBCgTVc+KcU4ioaZphGAgRAQAAihsFABMnTnRdN7frxdCIJLJSYWtGNjFVCJFMJg8//PBvfOMbTz755KOPPsoY03W9q6uLMRYOhwd4r1PF1I6Ojvfee2/vvfcuLS3t7OyMRqPJZHKfffbhnC9atGjwgTLn3Pf9N95447TTTqutrV2zZk08Hk+n03PnznVdd8mSJVRGtd99NU0LguCrX/3q8ccfL4TgnEspw+HwFVdc0dbWdu+99wohHMcZOCuVMVZXV9fR0bFkyZL9998/nU5TGeiNGzdOmDBB13XM7IFRQDebUCjkOI7neZxzZEQDFA7f9yliC4VCGCwEAIBRQyFiOBy2bRshIkCh8TyPwkLLshAiAgDAaNI0LRKJ2LZNdbEQIgIUjkwvomVZmE8GAACjhpb/phDRdV0hBM2dyHe7AICxrBDRNE2EiAAAMMqyexEzBWMAIL8oJZVCRMMwBpghDwAAAMWEikHS3T+Hh5VSIisVBjCCiamcc9d1q6qqTj755K6urs2bNx988MFUs5Q2+Pjjj9Pp9AAzWmiG9LPPPnvAAQecc8459913XyKROPTQQ+fNm/fGG2+sXr3asqyB399Ueo5tWZzprbfe+spXvvLd7373tttua2lpOfLIIw866KB33nmnvb09Eol4ntf3CDSgwhgzDMOyLHpQSmmapq7rmqZFo1Hf97cWstOsbjrC4Ycf/uijj/7iF7+48cYbGxoampubH3744Y8//vjGG2/UdZ0GbwZ1ZgGGgT5W9Ian/qB8twgAPkOVvU3T5JyjJwgAAEaTUkoIEQ6Hfd/PhIi4HwEUAoSIAACQL5R40CtEBIBCQCGiYRhCCISIAAAw+sLhcPZAM7osAAoBQkQAAMgvDDQDFBT6DHLOqVCqpmn4SAIAAIwrlJ6a71bAODLiiakHH3xwJBIJhULf+ta3em3wk5/8pKenx7Ksrb3plVKWZTU2Nt5yyy0XXnjhr3/9687OzrKyslWrVt1///26vo3GK6V0Xad1OikZz7btu++++7zzzrv++uvpUB9++OFDDz00wGIwqVTKdV06WqaoKSWmptPpVCo1QFYqY8zzvEQiQRvU1NRcddVVt9xyy7e//e3Jkye3tLR4nveDH/zgsMMOo4Kr+PDD6KB3mmEYWCkToKDQkoGIBQEAIC8QIgIUJoSIAACQdwgRAQoNQkQAAMgvWnEfISJAQUGICAAA+UUzdXVdx50IoHAgRAQAAACA0ZGzxNRM/ifFsiQSiSxZsmTDhg1SSopuM79VSnV3d1uWNXCZUKVUOBz+6KOPrr766hkzZlRUVGzcuHHVqlVKKdM0pZQD7B6NRhcuXNjU1NTe3h4KhRhj4XB40aJF11577cyZM8vKyjZs2LBs2bLMoTRNk1IGQZCpwmrb9ne+8x2llOd5vUqz2rZ9/vnne54XBMHWonbbtvfZZ59bbrmlrq7OcRzP8/baa69bbrnlk08+Wb58+cSJE3faaaepU6emUim2ZYma7GcHGFH4tglQaPCpBACAvMPNCKDQ4FMJAAB5h5sRQKHBpxIAAPIONyOAQoNPJQAA5B1uRgCFBp9KAAAAABgdOUtMTSaTfTMqOecLFy4MgiA7WzXDsqx+H+9LCLF+/foVK1ZQ4VNKZ91m0Mw5X7FixdKlS7PTX4UQmdRWTdPC4TBjjFJDgyAIh8O0dFPmIHvttdfWjr/HHntss+X19fX19fX0s2VZjLGKiooDDjjggAMOyGwTiUSyd4lGo9s8LAAAAAAAAAAAAAAAAAAAAAAAAAAAAAAAAAAAAMDoy1li6rHHHltSUhIEQa/HB6hoSjVUB3l8znl2tdV+d+Sc9306IUTfjFnarO9xFixYIKXMTpelfft9FQP8KkMpRWVdsxufaU+vBiuldF3v7OwcZL4uAAAAAAAAAAAAAAAAAAAAAAAAAAAAAAAAAAAAwGjKWWLqCSec0Kvy51j0gx/8YOnSpeFwePAZs7mllDIMo7y8PC/PDgAAAAAAAAAAAAAAAAAAAAAAAAAAAAAAAAAAADCAnCWm/vnPfw6Hw73KjRKlFJUMVUrR//vdrC/afmslSbOPwzl3Xbe2tva4447zfT+7PGnmGbPbkL27EIIe5JyfeuqpiURC0zRKTO27b6/iq7RjZvte+n1qKWVm48yzZ3bRdb21tfXpp59G0VQAAAAAAAAAAAAAAAAAAAAAAAAAAAAAAAAAAAAoNDlLTH333Xe3lm4qhHBd17ZtSs4MhUKmafbK8NyaIAhs2+73V4ZhWJZFWZ1CiFQqtcsuu3zpS1/q2wylVCQSCYLA9/1eD0opPc/LPDhnzpzBtGpEbd68+amnnkJiatFQSuWrAC8AAACMvm3e+ospNuj1QhRjkrGBo3zaoNfrz/k5KfwzXPgtBAAAgBwaVyFiL4UTIha+8fZ6AQAAxrnxEyL2fSEFEiKOlTM8VtoJAAAAw4cQESHiYKgt8t0QAAAAGA3jJ0Rk2zUXsd9txuFcRACA/MpZYmo0Gu33cUoZnTZt2v777z9jxozly5e///77GzZsiMfjA1+jOee+71dVVe22225BEGQ/rpTSNG316tUrV66kHFchhKZpkUik10HoKSzL+tWvfnXQQQfNnTvXcRzK+bQs6/bbb99hhx2OPvpox3GoLms6nc7s6/t+OBxuaWm56667Lrjggurqas/zXn/99Z6eHl3Xqfyp53kTJ07cZ599ssu0Eimlpmmc85tvvvkrX/nKDjvsYNt2LBZbu3btm2+++fHHH++4446HHXbY9OnTk8kkPbtSyrKsVCo1pDMPhYxzrut69hsYAAAAiptSStf1rS0yIoTIRJKj3LCRQOEu/awYMxmLMqYYE1vfRTIWZczMGjKkeGlra9wMp2EF2yXEOc8+dQAAAFD0xlWIKITIDhEtxqjXeJshojHCIWJ2wwoQhYj5bgUAAACMnoFDxJEIh/Kl1ytVjBmMRRmTgwgRraxHcn5OBv4TFAiaBVGw/ZwAAACQWxSf0DTCvhAiZkLEXr2IOZyYNyZCRE3TECICAACMH4MJEYtmoLnXXER9EHMRacpiOOuRkTgnQoit/QkAAIDlMDG13wqoQohkMrnbbrtdeOGFuq5/9NFHhx9++Be+8IX777//jTfeME1zgG/IQoh0Oj1p0qSvf/3r/W4wf/78RYsWGYZBTy2l7NUGSg01TfPBBx984IEHdt55ZyFEEASmaZqm+eyzz/7pT3+66KKLhBCZZmTuGUEQxONx13V/+9vfvvbaa+eccw71Yjz44IPLli2j25UQoqen58gjjzzwwAODIMi+30gpQ6GQpmm//vWvn3zyyeOOO07X9Ugk8uKLL956662O4+y9997/+te/HnrooSuvvPKQQw6hdFk6Ju5bRYNzbtt2R0cHeoIAAADGD+oMcl23b9cG5zyZTGqaFgRBcXQG0VIynHPFmM75asY0pRzGBnhtSqkQY+sY0xlTjHHO0+l0R0dH33Vehtkwx3Esy9r2pqOOTlpnZyfCfgAAgPGDQsR0Ot1viJhIJDjnRRMiMsayQ8RPOXcHFyJuzAoRXddtb2/P+TlxHCccDm97u1FHCyB2dnYWzXsAAAAAtolCRNu2+w0RaYQxtz1m+UJLTlN/qWLM4HwzY+8oZQ8cIjJmMbaaMZEVIub2nNDQfDqd1vWcTZnILSllV1dXwTYPAAAAco4Cp0Qi0fdXIzSomi99Q8QNgwkRlQpxvkIpnXO1ZdQ1txPzMiGiaZq5OmZuZUJETEcEAAAYJyhwSiaT/fYiUo9Z0Qw005jpZwPNjHVw/g5jzrZSTHWl2raERpkQMbfnhKLxXB0NAKD4jOAwBt0bSkpKvvOd73R0dPziF79obGyMx+MXXXTR2Wef/cknn7S1tRmGsbUvyZTbuXz58htuuIEyToUQnufF4/ELL7xw9erVzz//fDQa3dqSV0qpcDicSqXuuOOOJ598csKECTRmEw6Hbdu+4447nnrqqcrKyn47EZRSkUhkyZIlN99886efflpTU0OLjXV0dLS2tp588snHHXecbduapkkpKX81e1q5UioUCrW0tNx2222vvvpqVVUVPd7c3HzrrbdWVFRcf/31U6ZMCYLguuuuu/baa++9997a2lrP84Z5wqGgZPI0bNvOd1sAAABg9CilPM/r27VBQa/nebZtF8coEXV7UUjMOTcZW1lfv2qbY2BKCSHsZNLctEkJwRjzPM9xnJEYQ/U8zzCM3B5zmDIhou/7xfE2AAAAgMFQSvm+7/t+38cZY77vF1OImKnppJSyhFhWX79sm+v3KyU0LdXdbTY2Uojo+77jODkfQ6X+6lAoVDhnmxbrpfeG67r5bg4AAACMHgoRtzbSTSFicUwpo15EWqNZMWZIuXnSpBfDYbmtkIxz7juOsWEDLU09cr2Ivu8XWuIBrVyjlAqCIIcVwAAAAKDwUf9Vv7+igeZiChGpmohizFRqw+TJmy1rm72IXAg3nTY3baIQkXoRc97XR3+FwgwRpZT9djUDAABAEcuEiH3DHimlbds0eS8fTculXiGiHgTdNTUvlZYGvs+3Wf5BSn39eupGoxCx35J7w+T7fmHWyQAAyLuRXV/T9/0pU6b09PQ88sgjzc3NNTU1bW1tL7300i677DJ58uTNmzdvs2hqMpn85JNP6GZJhY8uvvhizvlf/vKXdDq9tVlEUkrTNN95550bbrjB9/0vfelLzzzzDN1sPvnkk6uvvrqrq+vrX//6448/3ncgh/a9//77b7/99l133fWwww579913qQEbN27s7OzcZ599Zs6cmb19dn+QlNKyrI8//vjSSy+NRCIHHXTQggULqJHPPfdcd3f3TTfdROckFot95zvfef3115999tkLLrjAcRwUTSoa1BPk+34kEsl3WwAAAGBUZbpI+v2truumaY5Ex0deCCFKS0uTyaRSKhaLxU2TUwWDbe0YicUS4bBt26ZpxuPxAc7YdtN1PZVKFU7KAVFKUZ0uRP4AAADjCpXD2lqlo6IMEdPptJQyXloaNww2uBAxFIslQyHXdQ3DKC0t1XVdCJHbMVTDMFKpVAEOzSJEBAAAGIcoRNQ0rd/fappmmmZxlMNijHHOS0tLE4mE53nhcLgkHNaFGDhE/Oy3kUgqFuvp6dF1vaSkhELE3LbNNM1kMlloyZ80L8I0zQGW+QYAAICiRHU7+v0V9SIWU4hYVlaWSCSklJFIpCQUElQHdVs7qmg0FYmkUinqhxyJnlXqRSzAHGDHcUKh0Na+RAAAAECxEkI4jrO1X5mmWYBxy/bhnFdUVNi27fu+aVml0ajJudL1AV6dYowppRmGXVLS0dHBOS8pKTEMI+chIuWGfFbQFf11AAD/1wgmpiqlLMtauXLlj3/8YyFEPB7v7u62bXvKlClCiEQiMZgvyUIISu0TQvT09MybN2+fffa57777Nm3aVFJSMkC5VE3T3nvvvcmTJ1955ZU9PT2PPvoo3ZM+/PDDeDx+ww03VFZWPvTQQ31vVLTQwrvvvvu1r33te9/73mOPPfbqq6/SZitWrIhEIjNnzuzq6komk6FQqKKioldnEJUFWLRoUX19/fXXX79w4cJXX32VRsja29tjsRgVRzUMw7bt8vLyXXfd9YMPPvB9n553u840FBzOOc2iY/0tTwIAAABFjGpDDfzbogkPgiCIRCLTpk0LgsA0TcXYNgsdZEyePJniJaq5mvO2cc5N07Rtu3D63aiX0DAMRP4AAADjzcBBYPGFiLFYbOrUqbT8XzDo1yU0bfLkyb7vUxIvhYi5PS3ZIWKBnHAhhOu6mdV/890cAAAAGD3jKkRUSpmmWV9fT4WnhBD+INcKUaq2traiokIIYRjGSKSP0pQGx3EKpBdRKUUDzUKITFQMAAAA48e4ChEty5o6dWoQBIZhMM4H35FYV1fneV4mDWMkmmeaZkGFiEIIqpKqaVrRvAcAAABgkAYzHXE02zNyMiFiZlbhZyHitl6gDILKysqSkhLG2AiFiEqpUCiUTqcNwyiQKBEAoHCMbMVUltUnIqWcMmXKbrvtduyxx/7rX/9au3btIBesom183y8rKzvhhBM2bdr02muvRaPRAe4Zmqa5rnvqqaeWl5cLId5//30hBOXBzps376STTtJ1fdWqVVu7K3ie99Of/rSiooIxlk6nMwuvrlq1qqSk5O67737rrbeUUoZhnHLKKV/5yldoJhMdjZ766KOPPvHEE03TTCQSmWfJrL5ASyZomhYEQVtbm5SSElMLbSlW2D6cc9/3aYS1aEI9AAAAgH5lyn8NtZOLcx4Oh0eua4zCddd1C2TZYPoKIKW0LAshIgAAABQ3isTYENNKaX6VZVlsS4fwSDRM13Vay7ZAypNSz3AoFEKICAAAAMWN1pWmTMvMwPogUYg4cvESjdqn0+lC6EVkjCmlXNdFLyIAAAAUveEMNI9oLyJjjAJX13URIgIAAACMJuo5DIfD1Is4pH1N02Qj2YtIiyAXTi8iAEDhGPHEVMaYpmmpVGrOnDkXXXQRY6yrq+u1115Lp9PRaHSQvQNCiFQqddBBB1VUVPzxj3+0bTsWiw28r1KqtLTUtu1wOJw9zaikpITmpg9Qr1UIUVJSkkgkotEorVVPi06tXbt2/fr1U6ZMueyyy4QQzz333C9/+ctUKnXuuedm32PoqWmpBnpq+tWee+75wAMPPPvss2eeeaau64yxF198cd26dTNnzkSXQTGhHONIJFJMa5AAAADAINEUK5pl1avqES2Vomka+iYyRvRUUC9VT09PIWQd0BeKSCTCRrL/CwAAAApTdojYa0l7hIijLxKJdHR0FMIJpxSIUCiEcqkAAADj0NZCxMxSyPRgIQQtuTXAGH0eRSKRVCpVCL2ItJAKzXBAiAgAADAOUW+hruvZcWDRh4iFKRKJJJPJQggRqRcxEolQEm++mwMAAACjbWshIqXDUG9b8YWIhdmLGAqFbNvOdysAAArOaCSmMsYMw2hubv7pT39qWdbXvva1H//4xzfffPOSJUtoPYNt7k6r7B966KFNTU0LFiyIRCKD2YsSUHvdaH3f1zRtm10GVMKU9uWc0/bHHXfcSSeddNhhh9Gt7qCDDmKMPfTQQ0cccUR9fb3jOJnD+r7Psu7x9Pg+++xz+OGH/+53v1u3bt1BBx307rvvvvPOOxMmTKCNoQhQ109XV1dHR0ckEvE8L98tAgAAgNFGU8ra29u7urp6ZR1IKUOhkO/7I7d0K/Si63pHR0dnZ2e+G8KoGeFwGCEiAADAOERr/7e3t7e2thqG0StEjEQirusiRBw1mqZ1d3e3trbmuyEsmUy2trYiRAQAABifthYics6purumaTTYnd92jhOapvX09OQ3RKT3ADUDISIAAMC4JYRIJpNtbW3ZkxspRKRUBISIo0bX9a6urra2tnw3hDmO09zcTKUy8t0WAAAAyAMhRE9PT98QMQgC3/ctywqCACHi6KBie83NzTjhAADZRjwxVSnlOI5pmps3b1ZKua67efPm66677sQTT7zuuusGM+NKCJFOp3faaadp06Y9/vjjqVQqHo8PZkfOed81ogZ5G+i1GQ0NnnDCCYwxx3EcxwmCIB6PH3744S+//PLq1aunTZu2zWfhnF9++eUTJ0585ZVX3n333alTp950003333//J598Ughra8Hw0d9xv/32syxrkOnTAAAAUHw4567r9h0UVEpZltUrWxVGFH2VmD17NsvfynD0vIccckhVVdUg1+UBAACA4kOTxlzXRYiYdzSTb8KECfltA2Ns1qxZ3/zmN9GLCAAAMG5RWOJ5Xt8Q0TCMXguawIgSQjiOM2nSpPy2gTG22267IUQEAAAYzyjBwHGcviGiaZoomDmahBC2bU+fPj2PbaC3QV1d3QUXXBAKhRAiAgAAjE8DhIi6rpumiRBx1NDfIhqNIjEVACDbyCamUsGoCRMmtLe3G4bBGAuHw11dXStXrtxtt92qq6ubm5sHczsMgmCvvfZSSr3//vv5un1KKVtbWzVNi0ajVDFVSkkVWXt6etiWRUwHIIQoKyv73ve+d+aZZ/q+X1lZyRjbtGlTfX29YRh9wwUYc2i8cN999913333z3RYAAAAA+D/ytRYMPe8hhxxyyCGH5KUBAAAAALA1+eqPpRBx1qxZs2bNyksDAAAAAKBfSqn8hoi777777rvvnpcGAAAAAMDW5HcF5IkTJ15wwQV5aQAAAAAA9ItK2SP3BwCAjGBiqhAikUgccsgh55577g033LB8+fJ4PB4EgVKqtLS0o6Ojs7NzMOt4Ud2A2bNnt7a2tre3j/7SX7QqbXNz84UXXnj88cefd955iUSCMSaE6Ojo4Jw3NDSwAW8t1ODly5e/8MILp512WnV1tW3bUsoVK1YsWbLku9/9rhAij6NckFsUagAAAMA4R9Fdr8AV8V6+0MoyedS3gi4AAACMQwgRCwctIZzfNqAXEQAAAFifEJF+RoiYF7QmdX7bgF5EAAAAYH3KYyBEzCPOeb6WP85AiAgAAAAMISIAABSwEZx8Q/mcGzZsUEr913/910033dTZ2RkEwVFHHTV9+vTnn38+mUzGYjEp5QAH4Zz7vl9WVlZTU7Nw4ULHcUKh0FATUznnmqb1vfX2+2AvQghd1z3Pq6urmzBhwlNPPXXEEUdMnz6dMbZ69eo//OEPc+fOnTFjxtbqndJT089BENx7771lZWXnnHNOOByWUv7pT3+aMGHCvHnzPM/LexcG5IoQAnEeAAAAQOEY5XVt+iWEQMAPAAAAUDgKIUQshGltAAAAAJAt71Fi9uwCAAAAAACGEBEAAACg8GABYgCAbCObmGpZ1sqVKx9++OHTTjvtxhtvXLt2bTwe33nnnRcsWPD444+Hw+HBDO0EQRCLxQzD6Ojo8DxvkHtl832/o6PDdd3sB6WUHR0djuMMvG86ne7o6PB9X9O0yy677IorrvjmN7+53377McbefvvtKVOmXHzxxZZlOY7T7ywi13U7OjqklEqp3Xbb7eKLL/7973//xhtvTJs2bcWKFY2Njddff/2ECRPS6TQVTR3S6wIAAAAAAAAAAAAAAAAAAAAAAAAAAAAAAAAAAAAYTTlLTN3a4u4lJSX//Oc/N23adOihh5aXl6fT6T/84Q/vv/++EELTtG3WEOec67rOGHvssceWLFkSiUT6XUieChBxzqWUUsrMMZVSruvW1dVdfvnlM2fOdF1XKSWldF03Ho9feumls2fPzjzY65i073777VdWVlZSUmLb9g477HDHHXe88MILH374oWVZ55xzzjHHHFNSUkJppb2OQLvPnj378ssvr6qq8jzP9/3TTjuturr6n//8Z3t7+84773zNNddMnz49mUzS7tSMgUvIAgAAAAAAAAAAAAAAAAAAAAAAAAAAAAAAAAAUH8455YUhwQqgwOUsMTWZTG6t4Cfn/L333nv77bc555SJSvmlgywQyjlftmzZRx99ZJqmaZq2bffdRgiRSqUcx9F1nRJZs02ePPmMM86gn03TpB8syzr11FN7PdjXnnvuueeee2b+OXHixLPPPrvXNtFodGu777zzzjvvvHP2sxx77LHHHnvsALtHIpGtHQ0AAAAAAAAAAAAAAAAAAAAAAAAAAAAAAAAAoPgIIWzb9jxP13XLsgaffQYAoy9nialz586NRCJbS0bvVeN0qDnrVCWVaopubYMgCKLR6Jtvvtl3G6pESiVVsx8PgqDf+qu9mqqU0jQt+1B0HKVU32Nu86kzr51ydLOfXSllGEZLS8vAxwQAAAAAAAAAAAAAAAAAAAAAAAAAAAAAAAAAGLsofyrzf6VUIpGYPXt2bW1tY2PjihUrGGO6riM3FaAw5Swx9cwzzywpKcnV0bbPunXrLrroolAoNEaLNdM1VNO0vJ9JAAAAAAAAAAAAAAAAAAAAAAAAAAAAAAAAABhXMsUFs5OzOOeapvWtOMg5p7TSIAh6HYENWNeQdvR93/f9IAgyW37ta187/vjj6blWrFhx55139vT0IDcVoDDlLDF16dKlVVVVnudts9pnptzokI6fuVQppfqtiWoYRlNT05w5c3pdbujn7FZljpA55sCo5Gmvp6MjbLPaKv3Qd7OtHUEI4TjOpk2bttkqAAAAAAAAAAAAAAAAAAAAAAAAAAAAAAAAAICcoLQm13VN0wyFQpn0K9d1k8lkOBzWNC2TtCWECIIgnU5zzqPRKD3IOZdSJhIJTdMyR+j7LLZtB0FQVlZWUVExYcKE6upqx3Hq6+sPPfRQx3Ecx2GMzZw587jjjrvvvvsMw0BiKkABylli6h/+8IfBfMg55+l0Wtf1IV0UhBCe57muyxjTdd2yrF7pqUKIdDq98847/+QnP/F9P5NuqpTSdZ0xRg/SXoZhZHZ0XVcIsbX0VKVUJqdfSkkXR845HZMOy/5v1ivptZmUMgiCTA5qEASmaWY29jyPfkWtXbdu3c9+9rOBU14BAAAAAAAAAAAAAAAAAAAAAAAAAAAAAAAAAHKCc55IJKZOnTpnzpyGhoaqqiqq2KfreldX16JFi956662uri7KCBNCpFKpWCy2//77z5o1a/LkyUIIelxKuWzZsnfffffTTz+lFLBez5JMJuvr64866qhZs2ZVVlZqmpb5bSqV0jSN0l+DINhll13C4fAAlVcBII9ylpiaScIcWBAEc+bMaWtra2pqyk4QHQBdcaqrq+vr6xljLS0ta9euDYfD2emgQgjf9ynVnqq2cs6DIDAMY9OmTa2trbNmzQqCQNM00zSXLVvW3t6ulJo8eXJ9fb1t2/0+byat/4MPPthxxx3D4XAQBKFQSEq5ePHizs7OeDz+uc99TkpJ2a2Z7aWUlmVxzj/88MNUKmWa5k477RSLxWgNAKVUOBxua2tbtmyZaZoNDQ3l5eWUyk/XX0p2BQAAAAAAAAAAAAAAAAAAAAAAAAAAAAAAAAAYBel0+vjjjz/hhBNCoVD241LK6urqnXbaae+9977pppt839d1vaenZ5dddjnjjDMmT57c6zhBEEyePPnQQw+9+eablyxZkl15VSll2/bhhx9+0kknRSIRxlgikWhtbW1ra1NKNTQ0lJSUUJYWlQxMJpO+76NiKkBhylli6jY/4ZqmJRKJ/fbb79vf/vbjjz/+t7/9raSkZJs565xz27aPOuqoE088MXMlevHFFx977LHsmqKZAqp8iyAIIpFIEAQ/+tGPysrKbr31VsdxfN//1a9+9Y9//MM0TSmlpmlf/OIXzz77bKqJmp3pSv8MhUIPPPDAXXfddf/998fjcc75qlWrfv3rXy9dutQ0zXQ6PXfu3Msvv7y8vDxT9ZSyUlevXn3LLbcsXrzYNE3f90tLS88///xjjjkmlUqFQqEXX3zxzjvv7OnpMQxDCHHuued+5StfsW070/jt/isAAAAAAAAAAAAAAAAAAAAAAAAAAAAAAAAAAAwS59xxnJNPPvnYY4+1bdvzvGQyuWTJktbW1vLy8jlz5lAdvmnTpu21116vv/56EAS77bbbRRddZBhGOp3WNO3TTz9ds2aNEGLPPfesrKxMpVLxeHzevHlLliyhfFTKlkqn06eddtrRRx/NGFu/fv1zzz336aef9vT00JPOnDnzhz/8YSQSoeKFQoh//vOfnueZponEVIAClLPE1IEJIWzbnjhx4llnnaWU8n1/MOmXnPN0Or3LLrucfvrpCxcufPDBB33fP/LII4877rjW1tbnn38+FottLbU1EomsW7fu9ttvX7ly5RFHHKGUMgzj5ptvfv7553/0ox/tscceQojHH3/8T3/6UzweP/300ykvlPaloqau695zzz2PPPJIZWUlNcZ13f/5n/+prKz8zW9+U1tb+9FHH11zzTW//e1vr7rqKtpXKUX1qa+99tpkMnnLLbdUVFSkUqm77777hhtuqKqq2muvvZYtW3bttdfut99+l1xyCef8rrvu+sUvflFTU3PggQcmk8ncnXLIm0yaNAAAAAAUiLwv/qKU2uaiPAAAAAAwmhAiAgAAAEC2vMeHDCEiAAAAQIEpkCojCBEBAAAAYBQIIXp6eg455JBjjz02kUhEIpE1a9bcfvvtbW1tjDHbtk888cQTTzzR87wgCBoaGv75z39WVlZeeOGFmqZRddPf/e53H3zwgVLKdd233nrrhz/8oWEYrutOnDgxFovRNoyxVCpFWalSymeeeeaFF17o6uoKhUKapoXD4Ugksnr16ptvvvkLX/hCbW2tbdsvvfTS+++/H4lEEBgDFKZRSkylAqTf+MY36Fqgadpg9uKcSykPPvjgRCLxpz/9qbu72zCMv/71rzvvvPNhhx328ssv93tlUUoJIf72t7/dcccdJSUlFRUVrutyztetW/e3v/3tvPPOO/bYYz3P03X929/+9scff/zSSy+dfPLJmfqrSilN05YuXXrTTTetXr16ypQpXV1dQRBwzv/+9793d3f/7ne/q6ysdBznqKOOWrJkyauvvtrW1lZRUeH7vpQyFAq9/fbb77333l133bXbbrt5nmcYxjXXXHPKKafMnz9/zpw5Dz74YElJyWWXXVZTU6OUuvLKK1esWPHEE0/st99+2TVgYezC3xEAAAAAehnkNyAAAAAAGD8QIgIAAAAUmryvPqzrozR/AwAAAADGCiFEISTHAgAAAEBGEAT5bsKICIIgHo8fc8wxvu/ruu44zgMPPNDW1haPxznnQoi1a9cKISKRiKZpVPZv3rx58Xg8kUjEYrH58+cvWLCgrKyMMaaUam5utm07Ho8zxjRNo4QyxlgqlTr99NOPOuooxtgjjzzy1FNPxWKxkpISKWVm2b5wOLxixYpbbrklGo26rus4TiQSGWTnrRAC+asAo2w0BjY0Tevq6jrttNOmTZt25513XnzxxYMf0aF0eV3XKV+UkunZ1r9vSynD4fDHH3/8m9/85phjjjnnnHMuv/xyz/MYY47jnHrqqcccc4zneb7ve54XiUTi8XhPT0/fBv/6179OJBK33nrrRx999Kc//cmyLM/zHn/88X322YcKqFqWxRj77ne/e8opp0SjUbpQcs7pcvztb3979913d103CIIgCEzTjEajVHv6ww8/3HPPPWtqalKplJQyFosdffTR999/f2tra2VlZd7HumA46M/X0tLS3t6uaRr+mgAAAAD5RfF5eXl5dXV1vmIzet7Gxsauri6EiAAAAACFQCkVCoXq6+vz2ADGWGdnZ1NTE0JEAAAAgLyjXsRYLDZx4sR8tYFiwra2ttbWVoSIAAAAAHlHIWJJSUldXV1+W5JKpTZu3IjcVAAAAIBCoJQyTXPKlCn5bkjucc49z6upqamrq/N93zCMxsbG1atXh0IhpZRSih757W9/GwSBpmkbNmyIRqMNDQ1UVlBKuXTpUsqoohRTIcS9995rmibnvLu7myoFZmelPvzww88880xZWZmUkn6bCXqpXiBjzPM8TdNisVgmr3VgSqlUKmVZFqXCjugZA4CMEU9MFUIkk8mddtrpuOOOu/POOxsbGyk/czD70vXrjTfe2H///b/2ta898sgjvu8fc8wx06dP/+tf/2rbNl1isnehC2JlZeVdd901e/bsIAg8z6MKltOmTbv44ot936clCkzTTKVSa9asqampEULQtYyO4Lrut7/97Z122ikajb7//vuZa1wymZw7d24qlXrkkUfWrl07ffr0I488cuLEiY7j0CsSQnied/DBBx988MGu61LKfjQaXbJkyaZNm0444YTNmzd3dHTU1tbSEwkhlFJTpkxJJBLr16+vqakp1uUTxgn68z3yyCMPPvhgbW2t53noEgIAABhv6Bt1a2trT08PBXvZv6quro5Go5hUNGp0XW9ubj7hhBMuvfTSfHU00PP+5S9/efbZZ6urq33fz0szAAAAII9oxb2urq6+U8yVUrW1teFwGCHiqBFC9PT0NDQ0/P73v8/XaacQ8fXXX7/hhhvq6urQiwgAADAOUYjY2dnZ1taWHSLS9PeKiory8vLM+DWMNCFEV1fXbrvtdsstt+SrDTTQ/MILL/z2t7+dOHGi67r46wMAAIxDnPN0Ok0TLLMfDIJgwoQJpaWlCBFHjaZp7e3tBxxwwPXXX5/fXsTly5dfdNFFVVVVvu/jrw8AADAOcc6TyWRzc3OvEFFKGY/HJ0yYMMiEPRg+zrlt2+Xl5ffee29RLi0npcwUJvU8r7a29phjjnnppZeSyaRSyrKsRCLx/vvvZ/JUw+GwYRi0vVLquOOOa2pq6ujoCIJA13Vd1xcuXEi/pQqFvu+fccYZ8+bNk1I+9NBDzzzzTElJCdUg7Lcx9ANVCtxm44UQiUTiy1/+ciQS+dvf/pYpslp8f6bBUEplJ/oO5yCZc4jrDAxgZBNTqVskEolceOGFCxcufPXVV2fPnj343Wnp+sWLF//ud7+76KKLDjjgAKrm/PTTTz/99NN9s1LpGX3fr6qqqqurs22bZX0AfN/3fZ+SVOnSdvPNN69fv/6///u/KWcgsyXnfK+99kqn03Sfpuvm+vXrk8lkY2Pj5ZdfvnHjxvr6+ldeeeXRRx+95ppr5syZk06n6cjUPURDiVS+tb29/cYbbywtLT3uuOMaGxs9z2toaGBbFj2lBo/P613xobdQKBQyTTMcDpumme8WAQAAwGijOLC7u1vTNF3Xs8O8IAhCoVA0GsVSTKNGCEGBWb4bwiKRiGmaoVAIf30AAIBxSCml67rjOJqmZQZmCELE0SeESKfT0Wg03w1hpmlalmVZFnoRAQAAxiEKEdPpdK8QkUYbLcuKRqOYdz5qhBCpVCq/IWLmT08Mw8hjYwAAACBfaBIjzWzMPIgQMS80Tevp6YlEIvluCNN1nSYiUq2qfDcHAAAARhsVYOsbIvq+b5pmNBrF2iWjhv4WRVyYRNO0jo4OyquSUvq+/7Wvfe3AAw9cs2bNwoULly9f3tHRIYSgflSqTZpIJKhcqud5u+666zXXXLNmzZrFixd/+umnra2ttCW9XUtLS7/2ta/tvvvunuc9/fTT//znP2tqanI4TUII4ft+WVnZvHnzZs+e/fjjj3/44YdCiPEWRVNlHcply0nRRCGErutsy9KKAP0a8cTURCLxne98JxqN/uEPf7AsK/P4YO5/lOS53377nX766S0tLUuWLAmCYMcddzzwwAPb29tfffVV0zT7XiboykVVm7N/SxVKpZSUJHDvvfc++uijZ5999gEHHJBJK82grNTMg5RAbxjGQw89dPbZZ59yyimapq1cufJ//ud/br311ttuuy0SiWRWm6C9giAIh8MdHR0//OEPN2zYcOONN5aVla1bt44ueb0aPOQzCwWMLuW2bffKRQEAAIDxILNKEP3cKxhQSkkpkXUwOjjnjuPQt4B8t4VxzjVNS6fT/X6FAQAAgOJGQSBCxEJAq9hSbJbvtjDGmGEYtm0jRAQAABiHBhkiYhx5FFAvItsyyp93hmGkUinLshAiAgAAjE+ZELHv4wgRR01B9SJSVRXbtjOTbwEAAGC8QYhYIIIg8H2fkvSKD4Wdzc3NzzzzzFe/+lUppeu6qVSqpqZm0qRJBx54YFtb29KlSxcuXPjBBx9oW8yfP3/GjBmxWIw2DoVCu+++++677+66bnd3d6Z8ICX0RiKRVCrFOd9///0PPfTQTMd4pkDgMGdNUFlX27br6+u///3vL1iw4MUXX9y4ceP4+YDQOkeO43R3d6dSKdd1h39AXddN04xEIqWlpZqmIRMe+jWCl0VaWPSQQw7Zd999f/nLX7a1tVG2HmPM87xUKhUOh+la0+/uNKHfNM3TTz+dc37TTTc1NjZyzsPh8GWXXXbmmWcuXbq0paWlV5GBzL79vt2llDTL59prr33++ecvuOCC8847j2ar9218r8NqmpZMJg8++ODTTz/ddd10Oj1jxozTTjvt5z//+erVq/fcc890Op05DtWJbWtru+yyy1avXv3LX/5y7733llJalqVpWt+no7Bg0KcWChq9zeiaW5RV2gEAAAAyKPDOrJI1+B0znQ59J97lqmFBEARBYFlWIUTa9NVGKUWdUwgRAQAAoIgVbIjIGKN4rEBm+dMoDufc87x+e7kBAAAAikkm2EOIOHBjdF0XQiBEBAAAgKJXyL2IVB7KNM0CGWimQiyu6xZI1AoAAAAwQrY7RKT0nBENEWntkuIuv0mJnU8//XRHR8e8efMmT55Mr9e27SAISktLDzrooIMOOuiVV1657777OOeWZa1YseKmm2464YQTZs2aRfVRXdelEoNlZWWZw1JXp+/7oVCIMVZXV5f9vJ7nMcYo2WqYLyEIAs/z0ul0JBLZf//9Ozs7H3vssfHT0appWldXV2Njo+/7g6wluU1BENi23dXV1dHRMXHixHA4XAjfkqDQjGBiqpQyHA6feuqpuq6ffPLJZ5xxhpTSMAzXdefNm/f5z3/+ySeffOedd6jWaN/d6drd0NBQUVHx7LPPNjY2VlRUKKV6enqeeOKJK664Ys8993z66actyxpkUWApZSgU6u7u/tWvfvXiiy9eeeWVX/7ylx3HoVvXADvS3KApU6aUlJSUlZXRNZGqG0+aNMmyrFWrVu25556ZqxVlpX7wwQc///nPk8kkZaUmk0nTNCdPnlxVVbVs2TK25c7HtuQxFnFR7/HJNE3btsPhcL4bAgAAADBSKE5uaWnxfb+0tLSstFQN8jsn5y2tralk0rKsqqqqEVpCyXXdUCg0/GWfckUpFQqFEolEISysCwAAADBCOOeu67a0tARBUF5eXhKPDz5EbG5pSadSpmlWVlaOxOAQ55wq2Pu+n9sjbzdaviSRSBiGke+2AAAAAIwgpVRjY6PjOLFYrKK8nA0u0hNCtHd0dHd3G4ZRVVU1Esu90ZwEXddp8lPe0ZQ7mtWgadoAy3wDAAAAjGm0ynBLS4vruvF4vKK8fJC9iFyI9vb2np4eXdcrKytHIlGTc+44jmEYg5yVOtIoRKRptwgOAQAAoLhJKVtbWyn/s2rChEHOKRRCdCcSHR0dnPOqqqoRChFd1xVCFHHRskweYzQaff311995552dd9559uzZ06ZNq6+vj0ajjuN4nqeUOuywwz799NM333wzFovFYrENGzbceuutkydP3mOPPRoaGqZNm1ZZWen7vu/7NBq+atWqv/71r9kD4plCqVOmTJk+ffrcuXOVUh999NHf//530zQzaVZDQlUVjzjiiEMOOYQxtnjx4scff/zTTz8dJ1laSikhhG3bmzdvptUPmWJccKWUYtv/8jnjmT8HHXzatGk5azQUkRFMTKW1ml599dVYLEbXkSAIYrFYVVVVZ2dnU1NTIpEYYCiF8kVd15VSZnJH6Zj05s6uUDoYhmE0NjZeeuml7e3tt9566wEHHJBMJoUQgzkI5ZrGYrHm5mbanuphplIp3/dra2vZloUWpJSRSOTDDz+89NJLJ06ceOutt06cOJGeSEophLAsa/369UEQZKqk/uc//ykpKZk8eTLluw7+FUHBonUd6O6LilgAAADjyjbX3Bq5RblGnxCis7Ozq6tL0zTPdUMlJXwQkQ8Xwkun21tbuRCpVCoUCpWVldESTblqGGXMMsYKKhKjL/+0li1VT813iwAAAGCUjLcQsaOjo6enRwjR2tpqxeNsECGZ0DQ7kehoa6MQkXNeU1Mjpcx5iMg5pylcuTrsMGVCRMdxECICAACMK+MnRKTx/e7u7o6ODk3TbNu2YjFzEKuqcyGk57W1tgZSplIpXderq6tpjD5XbaN0CFpFunBCRMYY59w0TcdxirsCAwAAAPQ1cBBYNCEio+SB7u6Ojg7qGQvF49ogOse4EL7jtLW2SqWklFLKyZMn5/accM5936cQMZ1O5/DIw0Qdm0VfpAsAAAD6Gie9iIwxTdNaW1vb2tp0XU+nUlYkEikrCwYxq1Bw3traSvXqhBCTJk0aiYqOnudFo1HXdUeoCEd+URhs2zYlaoVCIV3XP/roow8++MA0zerq6n333ffYY48VQlAaVFVVVXd3t1IqCAJN0yKRSGNj4/z586lQ6o477njiiSdOmDDB8zzK5l2+fHm/eVIff/xxEATHH3/8qaeeOmfOnKampvvuuy8SibBtvfP7EkJ0dXUdcMABPT09f/3rX9966y0pZSwWGyflPelt2dTURDlrSinGmZ1yNKFv9xxazrnn+1IFVshQihmGkU6n29vbq6qqcjvdF4rACCam0kDOI488Qjc8Wm10HelQmgAAu8BJREFUxowZe+211zvvvPPoo49WV1cPvCCBYRgtLS2JRGLOnDnPPvtse3u7aZrJZPKAAw7gnC9btswwjG0PWW3J3TdN8/e//317e/tdd901ffp0KSVVi2aMDbCaFOdcCOH7vq7rxx577D333PPRRx/ttttu9Nvnn38+Ho83NDTQGBgll3d1dd14441Tpkz57W9/S9cyeiLf9y3LOu644+6+++4NGzZMnTqVMdbd3f3GG2/MmTMnHo/TaqxDP9NQiCg3taD6pwAAAGAUUFS5tRg1CAIaxyqOb2VSSopghRCBUuFNmyo1beDiU0opU4h16bQUwhSC+iZ838/tlDLGmOM4kUik0PrdlFKWZSWTycyXFAAAABgPKCbZ2vr6tFZo0YSIQRDYtk3FnfwgiG7aVCrEwJUFKERcnRUiSimDIBi5ELFwTjV1KVOnN0JEAACAcWXgEFFKORI9ZnlBUwVSqZSmaZoQrlJ6U9NEw9hmCXud81bH8aU0NM0fgXNCYaHjOJZl5eSAOUQVsTzPozoM+W4OAAAAjBKaRr+1fsIiCxHllsVHNCE8pYzGxjpd3+ZAsyFEk237jJmaFnCulKIqTDlsGIWIBZj8SXMRXddFiAgAADCuUIg4cC9i0Qw0SynT6TSFiJJz1t4+MZHwtjW2qzGWDII1nqfrOtXD8zwv5ysgu66r63pxnOe+6AVOnTr185//PJXcWLRo0fvvv0+1RpVSra2tDz/8cE1NDZUG5Jzrun7KKafQYtNdXV3PPfecYRimaTLGbNt+7bXXlFLf+973aDVAXdfD4XC/BQXpkWeffVYpddpppx1//PHhcPi+++4Lh8Oc815/R/o49DpIdm52eXn5Bx988Morr6xdu7akpISOMKKnrnBQarHjOJkvC9JXu83ZedZe9dFSSwZqqG9epZgQPJVwP3pr5fIlqw3zs++qyWSysrKyWD8LsN1GPA0yFovRD5xzy7Li8TjnPBqNlpWVmaa5tdsky6omfP/993/nO9+56qqrXnnllY6Ojv3222/OnDkvvPDC5s2bw4NYS9VxHNu2GWPPPffcP//5z9ra2jvvvDOdTmdy7qWUl1566ZQpU2zb7vulPTv1/8tf/vLLL798ySWXnHPOOdOnT3/66affeuut6667rq6uLp1OU8eQYRgPPPDAypUrZ82a9dOf/pSmYVFt1Tlz5lxwwQVf/OIXX3rppSuuuOKss87SNO2+++4LguD8888vtL4MyIlQKFRdXT1+bmkAAABAA0Ld3d1URzTzOMWTJSUlEyZMKJrlgoQQLS0tSinBWFKpvROJAwwjoVQ/a1ttIRmLMfac5y3TNIsxWpWqpqaGqlflvGG5OmAO0Vo2EyZMwHghAADA+EEhYhAEzc3N2Y9TiFhaWlpRUVE0ISLnvLm52XEczpgt5f7d3XuaZnIQIeITvr9CCAoRQ6FQzkNEznlLS0uujpZztNBsvlsBAAAAoyczrby1tbXvr6LRaM7DoXyh3rCenp7u7m5dCFupnZLJrxhGD2MDhIgBY1HGPvD9RZybjEkpw+Fwbs8JlXJtb2/3PC8nB8w5TdMqKirMQZQOAwAAgOJAgVNHR8fmzZv7TrYeiUHVfKFX2tnZmUgkdCHSSn0ukTjWNHu21YsYZewt3/94Sy+iYRi5nZhHIWJbW9sAk1rzS9f1yspKwzAQIgIAAIwTFDi1trY2NjbS4HL2ryzLqqmpKZqBZiFEW1tbMpnUhXAZq0ulTnPdJOcDzLGTjFmcbwyCD7dUEzEMI+fnRAjR3d2dSqVydcBCwzn3PG/SpEmHHHIIrdWSTCbffvvtaDRKK+Pouh6JRKqrq+m3Sqm2trYvfOELEyZMYIw1Nzc/88wzmRjVMAzLsuj80yMtLS2u64ZCoa2F7iUlJX//+98ZY6eddtoRRxyhlLr33ntDoZCmab12SaVSvR4RQmRWHtR1fdmyZUKIsrIyquya+5M1Mvq+XYfU+Ezmne/7mqYxzpy0d8jRcw7+6s6uZ2//eVCMi9CMPff754PRd1/7MBQxueK5XRsIisaIJ6ZmPvl0DXIcp6mpqbu7mw3i06KUCofDCxYsSKVSJ5100pe+9CXTNLu6uv7yl7+88cYbA1dbzRy/vr6eOiDWrVvX0NAQjUYbGxuzZ4HTAvxba3x5efmMGTNo6lgsFvv1r399//33P/HEE11dXRMnTrzyyisPOuggWuGVbSkS29LSsuuuu2qa1tTURE9EV2e6Dkaj0RtuuOGGG2648847pZQzZ878wQ9+MHHixOz0dCgm2cswAAAAQNHb5q2/mGKD7BfCGfM1zdE0V6mBO4MMzv3/G37n/JyMiTM8JhoJAAAAOTGuQsRsnDFf1wskRCx84+31AgAAjHPjJ0Ts9UI4Y1IIR9e3GSLqnHtSsv872S635bDGxBkeK+0EAACA4RvPIWIwuIHmz0LErR8qtw0rWGOlnQAAADB84ydEZH1GS5UQjq47jA0QIirGGOcuY8z3s48zDuciDhPnnGrzplIpykGVUvb09KgtGb9f/epXGxoaUqlUNBpds2bNe++9d9xxxzmOQ0sKVlVVrVq1ihJEfd+vrKz8whe+QOnBnPMXXniBbckm6/fZpZTZualHHnkk5/zhhx9Op9NUOpUSYn3fP/HEEydNmuS6Lj1omubmzZv/9re/6bpOf3dqQ8EuNNMvqvTb68HsojiDQdnFdJzAD8rKSnc/ZHoqlZAeY2L7k7SVVL7p73v0zOWL1iZSPZzx4kiDh5zLWWLqYLJMdV1vamr68Y9/zBgLhUKD+cAHQRAKhT7++OPFixeHw+FoNNra2iqlpKzUzJOqLfgWmSP84he/YIz5vn/uueeec845jLG++Z9SSs/zen16dV33ff+EE0444YQT6OBSysrKyosvvvhb3/pWc3PzlClTOOe2bWfy+ykx9corr8y0pNcZoATx2tra22+/vbOzU0pZUVHBGHMch6qH990LAAAAAGBM4Ep99t8A22z5DwAAAADGA4SIAAAAANAXQkQAAAAAyIZeRAAAAADoi+LDgSNAzhgfB4mjoyCRSGiaJoTwPG/XXXc966yzlixZYpomY+zAAw/cddddbduORCKpVOqBBx5IpVJBEGia5vt+JBL51re+9dxzz7muK6WcMGHCEUccUVlZGQRBJBKZP3/+p59+OkC5VJLJTVVKnX766UcccURDQ8PDDz+8dOnSTJqYbduzZs3aYYcdsnesrKx8/PHHM/8cc1nESqlwOEznOYMyhId6KEpD45z7nj+hpjwU113P49qwSidyjUtfhkv0qtqKzmWdpmkM52hQxHKWmKrr+shlVMbjccZYEAQ9PT3RaFQI0bcEM9Uddl2XMuAzv8qUgR6geQNfgDLZ+Zxz13Upw7auri6ZTEop6Xraa/sBnogOwhgLhUKMsZ6eHmp/5orped5A5wIAAAAAAAAAAAAAAAAAAAAAAAAAAAAAAAAAYHsppUKh0LJly1auXDljxgzHcYIgmDdv3lFHHZVJwqIE1MbGxj//+c/Lly8XQjz55JMXXnihpmm2bdfW1l5wwQWZlCspJaV3Pf744/Pnz49EIoPJF6Xc1BdffDGZTJ588snTp0+/5JJLPv7449WrV1MbKNPV8zzP8yjDKxQKpdPpkT4/I0fTtO7u7mOPPfYLX/hCOp2mLLlwOLxs2bLf/OY3pmmOuTxbGLdylpj6/e9/v7a2tldSaL8GqMK8zR3ZVpJIqezymjVrfvSjH2Xql/a72QBH3pq+Sa2URNq38urAT9T3IP0+dRAEAxwZAAAAAAAAAAAAAAAAAAAAAAAAAAAAAAAAAGC7UWKUbdu33Xbbsccee8ABB5SUlNCvKMvU9/3W1tZ//OMfb7/9NtVNlVK+9957hmF8/vOfnzp1qqZpbEtilOu6juO8++67//jHPzZv3jzIrFQipYxGo6+//vr69etPPvnk2bNnz5kzZ86cOdkbuK5LT0fNLoLEK13XKQeVElNN0+xVQBWg8OUsMVXTNF3XpZQjVzd1AFJKykdtbW0d66nhnHO6VgIAAAAAAAAAAAAAAAAAAAAAAAAAAAAAAAAA5JxSyjCMVCp1//33/+Mf/9h5553D4bCUUtO0zs7OxsbG9vb2jo6OSCQSCoWklIwxwzBeffXVt956a5dddpk4cSIV5/N9f+3atYlEYtOmTaZpUgrrkFpCdVM3btx4yy23zJgxY/fdd6+urqYktSAIdthhh3g8HgQB1UqUUg71+AWIiiYGQcAYC4KAXle+GwUwNDlLTP3Nb36Tl5TUbEqpSCSS3zbkxJhOrAUAAAAAAAAAAAAAAAAAAAAAAAAAAAAAAACAAqeU0jQtHo93dna+8sormYQmIYSmaYZhxOPx7ERQpVQ0GlVKLVq06IMPPqAHOee6rgshYrHYdidYBkFgWZZSatmyZUuWLKGaqJxz27Z//vOfT5gwIXvj4kgf45xTLh7fIt8tAhianCWmOo6Tq0MNRxHUYgYYHbhjAeQLVh8AAIBChigRIC8QIgIAQCFDiAiQFwgRAQCgkCFEBMgLhIgAAFDIECIC5AuiRAAAyAkq3anrumEYvR5njPXNMqVHwuHwYDYeakv6HtkwjA8++KCxsdHzPKqYahhGU1NTIWeQZbdta+eEomjaMvv/AGNIzhJThRB5/2KJ2BpgkDjnvu9nSn7nuzkA44WmaZnFYHDPAgCAQsM5D4LA9/3tXq4MALYDQkQAAChkCBEB8oJG3HRd1zQNISIAABQazrmU0vM8pRQGmgFGjRCCSpQgRAQAgAKEEBEgLzRNo//ruo4QEQAAcoXSUwe//cgNIvc6shDi6aefDoIgk7ZGVV5DoVBh3geFEOl0WilF0XIkEunVTillOBx+7bXX3n///VgsdvHFFz/22GMfffQRbu4w5uQsMZUhLxRg7LBt2/f9TMnvfDcHYLzwfZ8x5nmeYRimaeK+CQAABQUhIkBeUIjouq5hGJZlIUQEAICC4jgO3aoYY1hDAWB0UEI429KLiBARAAAKCuc8O0RELyLAqAmCIAiCTC8iwxwtAAAoGJxz13U9z8v8M7/tARg/MnMRdV23LItqx+W7UQAAACMoEon0fbAwl1fmnKdSqdmzZx9xxBG6rv/73/9+6623TNNk/7dLxzCM7u7u5ubm8vJyznlbW9vq1atLSkqyE1MprxV3eShkuUxMBYAxIZVKcc4Nw8gUOsaNCmB0UO9PEASe5wVBEA6H8ekDAIBCoJRKp9OZgjwIEQFGTebjRsXoKETEkCEAABSIdDrNGKOCPLg9AYwm+sRJKTMhYr5bBAAA8JlUKsUQIgLkQ2agmULEUCiExYMAAKAQcM7T6bSUEiEiwCjLDDRLKYMgSKfTCBEBAKDoFWYOal+cc9u2jzzyyDPOOIMe2X333UOh0GOPPRaNRjOvgoJnzrnv+47jKKVc17Vt2zAM3/eFEGxLAVvTNAu2MCwAQ2IqwLhCPUGcc03TGGPd3d09PT10P8t30wDGBc55LBaLxWK6rlN/EHJTAQAg76gfRAhBq5Z0d3cnk8kgCBAiAowCpZQQIhqNxuNx6lXEkCEAABQCChEZYzSZLJFIdHd3SykRIgKMGgoRdV2XUlIvImZ2AgBAfmWHiIyxRCKRTCY9z0OICDAKaFJHLBajXsRM4oGmaQgRAQAgjzjnjuNIKXVdp17ERCLh+z5CRIBRQAPNkUgkGo3SXETbtjHQDAAAkHeUaFpZWflf//Vfvu+7rkvJO8cdd1x1dTV15lARVM/zTNOkny3L0nV93rx5s2fPNgyDMeZ5nlLKMAzDMBYtWrRgwQLkpkLBKs7E1AEq/GzzSy8+q1CsOOeu61JPEGNs3bp17e3t+W4UwHhUWVlZX1+vaVpmyDDfLQIAgPErO0RUSiFEBMiX0tLS+vp6Xdd937dtG0WxAAAgjzjnnucFQUC9iBs2bGhtbUW3OcDoKykpmTZtWqYXESEiAADkEc2myoSIGzduRIgIMPqam5uj0eiUKVPC4TBV0rAsC7mpAACQR1TKm7JSN23a1NzcjLsSwOgLh8MNDQ2maSI3FQAAoBBQV2pNTU0kEkmn07TMH1U9nT17Nm0jpQyHwxUVFS0tLbT2n1JqxYoVpaWllZWVjLEgCKqqqizL2rBhQzgcbmpqokIjuMVDYSq2xFQhhJQyCAL6mf6Z+a1Sapvlm6nkMUBRogXJOOfr169va2uj1RQAYJS1trYyxjK5qZR4gEgRAADyxfd9+uq0efPm1tZW0zTz3SKA8aizs9P3/YaGBlrOFnVTAQAgv2j0i3Pe3Nzc3NyMXkSAvOju7l69evX06dNpqAu5qQAAkF8UIgohWlpampqa0IsIkBeJRGLVqlUNDQ2Um0qJB8hNBQCAvKDl7ShE7OjoaGpq0jQNtVIBRl86nV65cuWMGTMoN5UGmhEiAgDAMA3pPkIx4ci1ZJspYL0aM0ItGSQqf7p69epNmzZNmjQplUoppaLR6AcffHDTTTeFw2HOeSqV2mOPPS699NKbbrpp8+bNpmlSLXSlFP3Q3d194YUX7rjjjldccQVNIYtEIkM6DwCjqXgSUyn/O5FIRCIRGpt3HCeRSESj0cxlUdO07Dk0NLemV+aq67qj3HKA0UE3Kprl3NXVhW+eAPliGEZbWxvLyk2lWWX4SAIAwOjL9GVQiEh1U/PdKIDxyDCMZDK5atWqGTNmZJYvQW4qAADkhZRSKUWdh52dnbgZAeSLrus9PT2rV69uaGjIzk3FcsgAAJAX1Isopezs7Mws85/vRgGMO7quu65LiQehUIgxhtxUAADIF6VUEASUgdDV1cW2zODNd7sAxh1d1x3HyeSmMsYcx7EsCyEiAABsN0o5oUhvMHcTKWUymRy5lkQikcFsTOPavu9LKfObniqESKfTDz300HnnnVdWVsYY6+joeO6550KhkGVZjDHf9w3DEEIYhmGaZvYigNQNa5qmruuaptFvcU+HAlc8iak0Xeb4448/6KCDKioqGGNtbW2vvPLKyy+/TJfFVCq16667XnrppbZtU0qq4zi+71uWpeu6lJLG+K+55ppUKoWIHIoM5zwIAqUU59y27bzfbgHGM4qSW1tblVJTp07N5KbS2CEAAMCoyYSIQgjXdWlF23w3CmCcohAxlUqtXLkyUzcVuakAAJAv1IvoeZ7ruggRAfKFQsSenp5Vq1ZR3dTMCnf5bhoAAIw7tLwdZRpQLyI6KwDyglYR8jxv5cqVO+ywA81lROIBAADkEY0427aN8SyAfKEQMTs3NQgChIgAALDdOOe6rnd0dHR0dLS2tg7cGSiEcBxn2rRpZ511Vs7reSqlTNPcsGHDn/70p21Gm5zzsrKykpKSioqKaDSa32FuKWUoFFq8ePE111xDmQKrV6/u6uqyLIvS1oQQ1DwqNptdbZEeyWxAPwdBkK/XAjAYRZKYSrNkzj777IMPPjiRSHzyySec81mzZp1++ulVVVUPPfRQOBzWNC2RSPz73/92XVcI4XleQ0NDbW3t8uXL29raNE2jxPQgCDDVBooS3Yw557QOxMgVTAeAbVJKZeqmZnJTHccJhULoDAIAgNGE+w5A4aAhQ9RNBQCA/8fencdJVtX3/z/n3K3W3nt2hhkYVtkhLFGiCAYYRCVRRGMMWUw0Eg2afJPvT6PffI0aosZdY0Sj4JL4RSPuCCKyjIDs27DNwmw9PTO913bX8/vjOJW2u6enl+qupV/PBw8ePd1Vt0/drqr7rnPv53wahDn7xfJ2QH1Va1O3bdu2fv16y7KqfVPrPTQAwNJiClPN1+RDoL7MLGIURc8///yGDRtSqVQURfRNBQDUkWlLVe9RAEsatakAgFoxNagPPfTQ9u3bTTHk9JOBSqlisbhs2bKNGzfW/IiTJEk+n7/77rt37tw5k66hu3fvFkKk0+lTTjll7dq19e3SobX2PK9YLD7yyCPma8/zoijKZDLveMc7MpmMWXrsmmuusW1706ZNN910Uz6fLxaLp5566pvf/OZyudze3m7b9j/+4z+m0+kvf/nLTz31VDqdrnn1L1ATrVCYagpKTz755Je85CWbN2/+93//98HBQa31qlWr3va2t1188cWPPvqoeR3u2rXr4x//uCkiHx0dfctb3rJx48Yf/ehH99xzTy6XMyWp6XSaBT7R2jhZCDQCU5s6ODgoxtWmmqvKOAYBAAAsTabwoFgs0jcVAAAAxoTaVPqmAgAAQGttluM3s4jpdJraVABAfXE5IlB3U9amEhEBALNlWdb999+/detW0xdwwk8npz6lVBRFZiH+hShMlVKapRYcx5ly+5O/GQTBfffdp5Ras2ZN3WtTLcvKZDJi3MJ/Usply5bl8/kwDJMk6enpcRynra1Na22q2DzP6+npiaLI3GXlypW2bc+kLheooxZpmRhF0YknniilvPnmm/ft25fL5fL5/I4dO773ve8JIdauXWvWZLJtO5/P53I5cwPXdYUQqVTKfNP8nw/JAIDFYa4qGxgY2LFjh5TSzAGVy+V6jwsAAAB1U61N3bp1q5m6lVJWKhVWvAMAAFiyqrWpW7duTZLEtm0hBLOIAAAAS5m5tDEIgi1btpTLZdu2lVKVSsWsyF/v0QEAAKAOxtemBkFgWZZSyvd9U9VT79EBABqdORu1a9euF154IZPJ6HGEEEopIUR0CEmSqAUjpTzU742iSEpp6jmrLMuyLOuJJ54IgsAMu757NUmSJEnGl5WGYRiGoSlwC8NQa22+rt5Fax0EgblXEATVvwLQsFqhY6rWOpVK3XnnnTt37ty1a1culzNvMalUanR01KwUWL1l9TVZfXlXX+1c5QkAWGSmb+qBAweEEGvXrjV9U81aZfUeGgAAAOpjfG3qhL6pnDIEAABYmkxELBQK27ZtO+qoo8wsIn1TAQAAljJzqaXpm3r00Uebvqmmi0jdL7sEAABAXRyqbyoREQAwE0qpvXv3it9sQ2pZVhRFIyMjmUwmn89PqJA0xxfP8xZuVFLKTCYzZcdUrfXQ0JDW2rQnNOVg5mhYKpVGRkZ6e3vr2zR1StUaWlPRNuFxjf/p+H/WabDAjLRIYapt2/v27du9e3f1Mk2Trc844wwp5Z49eyY3kgYAoBGY2tSBgQGt9ZFHHmmuKguCwPM8ciQAAMDSZCY6SqXS+NrUIAhSqRQREQAAYGmq9k01V5XZtm0KD4iIAAAAS9aE2tRUKlWdRaz30AAAAFAfE2pTPc+LooiICAA4LCllGIaFQkEpVT3xZFnW2NhYW1vbtddee84556xZsyaO4wl3tCxraGioWCzm8/nJP53/kDo7O7/xjW9ks9kJbQjNT5977rlbb731Bz/4gelrWL1NkiS+7zdaSao4WGfruq7rukIIrbWU0nXdas9F27aVUplMxgze3IBqODS4VihMFQerelzXNW8l5h3w2GOPvfDCC3fs2LF582bP82iICgBoTCZHDg4OinF9U6MoIkcuhAb8mNFEuMwRAIBFY04ZVvummogYhuGUSwBinoiI82RWZ2Q3AgCw0Kp9U7du3bp+/XpTm0pErDkTbMg288RzEgCAxTG+NnXDhg2m8CAMw+oVjaghIuI88ZwEAGBxTO6bampT6ZNRW8wi1gQnmoHGIaWMoqhcLldfkkqpQqFwzjnnvOc97znzzDPDMJzcfdSUcdm2vUCHGHNq7Igjjsjn8xPKwcy7xwknnHD55Zdv3Ljxwx/+8O7du8dXjTXae4sZsO/7X/jCF6p7zBy1Dxw4kE6n4zj2PG/r1q2f/exn4ziuFqZalrVjx47ZTfXU/KE31r5Ew2mRwlRxMJoIIcyFmytXrnzb296mlPr617/u+346naYwFQDQsEx0HhgYsCxrzZo1JnpmMpl6j6t1KKWEEHEckwfmybZtIQS7EQCARVAtPNizZ8/atWvNUn/mWIyaMGcKoyiq90CanmVZSikiIgAAi8BExNHR0RdeeGH9+vVKqSAIiIg1ZJadjqKIbDNPzCICALBozBWKQRDs3LnzqKOOUkqZWcRGu/6yeZlZRE40z59lWVJKdiMAAIugWpu6devWY445xixl4jgOEbFWzCxiHMe17Q24BHGiGWgo4+vtLcsaGRn53d/93c9//vOWZQ0MDEx5F1OYasq1av6uqLVWSsVxXC6XLcua8r2iVCpJKS+77LKTTjrpDW94w549e1KpVMMuxGAuUnr44YcnjNC2bVN3atv20NBQf3//hDt6nje+k+1hJbEWWghdg4JSrYXQIokbdJeiQbTauWrLsgqFwhFHHPHXf/3XPT09n/vc555++ulMJkNkAQA0uGqgXLZsmeM45syWZVkNm4+biJSyWCwODQ35vp8kCVNsc2M+4zmO097e3t7eTrgCAGARVCNib29vOp0OgiBJErPiBuZJKVWpVA4cOEBEnD/XdfP5fEdHBx9eAABYBOYc/+joaLFYzOVyURSxonytmOUCBwcHK5VKdS1qzI3rutlstru7m1lEAAAWgZlFHBsbGx0d7erqMqtsLFy7kiXFLBd44MABIuL82bbd1tbW2dnJMxMAgEVgalPL5fLIyEh3d7cQgohYK6asaGBgoFwuR1FERJwzrbXrurlcrrOzs95jAfAbzOmSVatWve9975NSFgoFy7JSqZTjOBNuaU5aFQqFfD7f3t5e88JUx3GGh4dzudzkjqlGuVwOw3BgYGDt2rV///d/f8011zT4kU5KObltVbVHo5nhmXI/z/Bxaa0d19m7e//IvkrbKisoxlLJue0RKYROtJe1R/r8vbv2OS4pAofUUoWpSqmRkZGzzjrrL/7iLxzH+exnP3vfffflcjlOeQIAmkUcx5VKxfO8eg+kdZiZoN27d4dhSBXH/Pm+XywWlVKH+pgHAAAWApWTtWWuJ9u1a5fv+0TE+QuCYGxszLKstrY2IiIAAItDa12pVNra2oQQcRw7jsPJ4PlLkqSvr69YLFqWVe+xND0TEYUQ1KYCALCYqoddwmGtJEmye/duImJNBEFQLBa11kREAAAWU7lcrnaAt+2WqhqoF6317t27TZlWvcfS9MIwHBsbi+N42bJlLAQDNA6llO/711xzzVFHHTU4OGiqUp988sm77767UqmMv8zGNLypVCqmnLLm0xFSynK5bNv25LfcOI5XrVp10UUXdXV1mYUYNm7ceMkll/zwhz9sb28Pw7C2I6mh6T8Rz7wGtUpKaUr9TVdVy1KlcvEX331s49VnZ9r0nC85M4tcFA5EP7zhl2W/5DhOovksj6m1TsSUUpZKpUsvvfRNb3rT0NDQRz/60S1btrS1tZmYwpQrAABLkInFo6OjYRhOWPJtDjm7evdmnAGZz+DH7zfLssIwLJVKbW1ttOMAAABNSkpZLBZ93ycimi/mGRGVUnEcj4yM5PP5mg0OAABgEZlZxLGxsXK5POHKCSLiHO5r7p4kSalUMh05AAAAmo6JiCMjI6VSiYhovpj/LGKSJMPDwx0dHc24HwAAAIQQSqlCocAsYg0jomnG2NPT04z7AWhJZqn3rq6u3/7t3zarG6TT6Z/85CfXXXddpVKZsjJrQcu1zJvDlL80iqJbb731gx/8YFdXl1mY/uUvf/kPfvCDBRpJI0uSxPM827bjOE4S7Xnus09tHfrY6Mm/tSHblkqSRIrZvcdqoZVSxdHK4/c/v69/v5d2hf51D1tzjRBv2hivRQpTlVLFYvGVr3zllVde+fjjj19//fX79+/PZDLlctlU4bPKCwAAS9aUH3hmG4tNoqjetzYjW0TjBz/bB26Wzav+UzTndBgAAIBh4k0QBJN/NJ+k1IwR0Qxe61mvjzg+G4uDEZFV4QAAQLObMtXMJyImSdJ0GWl8vp3PLGJ1azUeHwAAwOIyIWdCqJttt08iYvWfCzI+AACAxWLije/7k4MNEXGGuBYRaHxSykqlcvLJJ69cuTIIAsdxhoeH/+M//iNJko6Ojinfrxa0yc00G7cs65FHHvnmN7/57ne/2/f9MAyPO+64tra2KIoWaDANS2tt23YmkxkeHjZr9Luec2D/gdtu3iel0lqLWRamCqGllIlObMfy0q5Ofj09ks/nedPGZK1QrqmUKpfLJ5100u///u9v27btv/7rvzzP27Bhg7ki0FxrODw8PPkFoLWO47jpwhwAAJgnKaXrujP/LGRuGYahEMKyrFQqtcADrL0gCEw0msMDJy8BAIClIEmSOSSlJEniOFZKZTKZhR5hbZkZsyiKlFKWZc0tGzPdDAAAWt4cImIURUmSWJbleV5z5aVqRNRazzkbN9dDBgAAmK0kSRzHmXnmqZa2mom4pjvRbGYCwzCc2xl2ky2JiAAAoJVMmW1s255tRIzjOI7jJp1FjKIoCAKl1BwiosnGzfWQgaVGa53NZl3XLZVKqVSqr69vcHDQ87xGK/jUWqfT6a1bt5p2qWJcC5+lxry7Ll++vFKpVCoVcxWQ4ziuK4WYz+XfUmutE23eujs6Ojo6OjgThMlaoTDVxJTXvva1lmUdeeSR//RP/zThBs8999w//dM/ZTKZ8euRaK09z7Msy1SEL+6QAQBAfZhFy9atW3fiiScGQTDzORHP8zZv3rxly5Z8Pr98+fKmS9V9fX3lcvnII4886aSTZvXAHcd5/vnnn3vuOc/ziEwAAKAlmYurOjo6zj777JmfAzNJae/evQ899FBbW9uKFSsWepy1pZTav3///v37N2zYcPzxx882Gz/11FPbtm0jIgIAgFZlImJPT88ZZ5wxq4jouu7OnTsfe+wxx3F6e3sdx2mivKSU6u/vHxoa6u7u/q3f+q3ZZuO+vr5HHnmEiAgAAFqYWdvuvPPOm/mlrqZpydjY2C9/+Uvbtnt7e5vrQjWl1PDwcF9f34oVK8444wxToTqTO5psvGPHjieeeIKICAAAWpWpL02n0+edd97MA4+JiENDQ/fff7/rusuXL2+uSiql1NDQ0N69e9esWXPKKafMKiLatj06Onrvvfc218QpsASNb+ZsXuON+ZrVWjfXW+jC0VpblrV27dr+/v5CoaAPmv+WpZSWZXV3d/f09My2QziWiBYpTHUc5957733qqafME736+jE/6u/vnzCpZya/Hn300UKhsGfPHsINAABLiknJUsqZ15eOv3HzxgY5zgzvYnbUgo4KAACgEZiIOKuF/Zo6Io4/hTCfbAwAANDC5h8Ra3XWf3FMiIhzfuAAAAAtzCSl2d6lZSLirHpbEREBAMDSMdvYMzkiLsCgFkp1wEREAOPN6tVdw/e95noLXVBJkti2vWbNmkqlUtve1J7n2bZNVSoOpRUKU4UQUsof//jHU76nmNU10un0hMJUz/Mefvjh++67L51Omz7yizheAABQZxz6Z4gdBQAAlo4lm3yW7AMHAAA4rCWblJbsAwcAADgsrfXSvJieiAgAAIAJiIgADNNhdYbvCUop2pwuBCml+St4npdKpWq4Za01VamYRs0KU+s+45bP5w81BvMymPzTdDqdyWTMm2AjN5gGAAAAAAAAAAAAAAAAAAAAAAAAgLqTUsZxLITI5XKpVCqbzR72LpZljYyMDAwMWJZF9dYCabpe3Gh2NStMDcOwBZ67tm3XvcIWAAAAAAAAAAAAAAAAAAAAAAAAABpQHMee5x155JGdnZ1SysOWYmmtHccRQuzfv9+yrEUZI4AFV7PC1N7eXtu2m7o2VUo5NDQURZFpYVzv4QAAAAAAAAAAAAAAAAAAAAAAAADAAlJKWZZlWZZSSo4z+ZZSyiiKcrnc8ccf7zhOHMczqcAyt0mSpLbDHj9Uy7JMORgNC4FFU7PC1GuuuWbVqlVBEDTvC9iyrA9+8IPbtm3zPK++hanNuw8BAGgWWuuZH+5ndeMGt2QfOAAAwGEt2aS0ZB84AADAYS3ZpLRkHzgAAMBhzSr56IMWbjyLhogIAABwKHNISq0RlpbsAwdaVaFQKBaLpVKpUChEB8VxPPmWWmvLstatW+c4jmkNOMMaqIUolaoONQiC4eHhJEnCMAzDkLIsYHHUrDA1SZI4juM4PtSrd/z35xYpqluY1d3NvSbc5VCbsizLtu0JrV+nKZefSSX9lLcx25/yvlrrmq8BAAAAxlNK2bY9TW6ZQGtt27ZSqvqd5vq4Ug02UkrbtpMkmfMDBwAAaFUmKc180cRmj4jV0c4/GwMAALSqJRsR5//AAQAAWpVJSjOPeSYp2fb/XKHX1BGRE80AAACTVSfTZnj7JR4Rxz9wAA1Fa/3Od76zp6fH9/3Ozs7du3fHcex53tDQkOlBWr2laZe6bNmytra2+tZ/SinjON63b18QBKYW7LrrrkuSxLbt7du39/f3z+r9GcDc1OzQ/ulPf9qyrEOdoVRKmcpVIYTp7Dzb2kulVBzH5l7m3eGwZ0PNDeI4No2kzXfMhFcURWY7YlypRhzHb37zmyf3fbUsa8oqfymlGdX0YzC7pfpbkiQx7a211uZdeHyVrOu6u3bt+sxnPsPEHAAAC0RKWS6Xh4eHgyCY+b1c1y2Xy+aonSRJM35QkVL6vj88PByG4czv5ThOqVRqrskvAACA2ZJShmE4PDxspoxmyLbtQqFgvm66Vcaqc2vzzMYAAACtSkppltaeVUR0HKdYLFZnEeM4bqKJxGpEnGc2BgAAaFXmOrTh4eFZzYxZllUsFs3XzRsRTTae7YnmajYGAABoVaY6a3h4eFYZz7Ks0dFR83Xznmiew7WIlmUxiwg0rDiOL7744tNPP71cLmuty+VykiSZTMb3/clvcVrrbDZb/edhO6Yu0HudqXg/8sgjTWWWUurMM880w/7iF7+4c+dOx3Ga6DM40KRqVpg6ODg4zU9LpZLnedlsVkpZKBR8389ms7NaGqRcLqdSqUwmo7UeGRnxPO+w81ZKqTAMs9lsGIbV9tDm6/b2dinlyMiIECKVSpmRxHHc1tbW3d1tbiwOFrIWi8VMJjNhPKa2tlQq5XK5Qz2QJEnMFJvjONVSe1Pmar6ZTqeFEON/nW3b1blIAABQc1prx3H27t27d+/eOdzddd0wDPv6+mo+sIWWJInruvv27evv75/D3flsBgAAWphZVqxQKNxzzz1zuLvrukEQ7Nmzp+YDW2hJkniet2fPnrkNnogIAABamImIIyMjc46IZonumg9soZmTm2NjY3N+4EREAADQwsyFZ/fff/8c7mtZVpIkcztXW1+m0cLw8PDdd989h7sziwgAAFpYdQmPe++9dw53t207juO5XcdYXyYiDgwMzC0imv5eNR8VgPkrFArDw8OlUsmyLCllkiRRFE2uKTXnUDKZjOmZbN4TqmVZk2mtF7QoPY5j084wjmPf95MkCYJgQrdCAAunZoWpjuMc6kdRFL3yla+88MILe3p6pJS7d+/+3ve+98gjj0xzl/HMuhpvfvObzz777La2NiHEj3/84x/84AfT9xQ1Z4uPOeaYd73rXZ/85Ce3bNmSSqWCIFi2bNlrX/vaM844Q2u9b9++H/7wh/fcc08ul0uSRCll3jfN0h1JkmSz2S996UsPPvjgpz/96ep6HiZEWpb193//98Vi8ZOf/OSUb6BRFOVyuW3btr373e/+x3/8x5NOOsn3faXUf/3Xf918881jY2O2bV900UVveMMbOjo6TIG+qXed1fLDAADgsCYfqWcYQqbclNa6GQ/W5vOVaRc/B8wEAQCAljefpNTUEXE+2bimwwEAAGg485xMa96IyCwiAACAMTneKKUsy5rbppp6FpGICAAAcChExNkiIgINy7yhWZZlarWm6YMqpWycN4HqOE2dV/X/tf0tAA6lZoWpU747KKUKhcLGjRvf8IY3PP7449///veFEL/92799zTXXfPnLX/7FL35hquQPu+V3vOMdJ5100i233PL888+fcMIJr3rVqxzH+eY3v5nNZiff3ZTmF4vFdevW/cVf/EU+nxfjusa/5S1vOfbYY7/xjW+MjY2dd955f/7nfx5F0a9+9at0Om1uYN6AXNe1LOvHP/7x17/+9eOPP978qDqeVCr1pS996Z577jn11FPFwXQ1QS6X27Fjx4c+9KGBgQFzm3Q6/fWvf/3Tn/70lVdeecoppxw4cOBLX/rS1q1b//mf/7laZHvYHtYAAGC2qh9+xh/N53DArd6reQ/W83zgQgizlAZzQwAAoHmZPJNKpSZEOyLifO5lVlsz+7amowMAAFg848/WmS+IiPO8F+EQAAA0u8knmueGiFj9p5lFrOnQAAAAFompUEilUtV/mi/mNglGRKz+87C1JAAa0xze/aSUIyMjlUpFKcUZBKBl1KwwdTIpZRiGnZ2dr3vd6x577LF//ud/Nh3n77vvvn/6p3+69NJLN23aNH2SMHWtL37xi0866aQbb7zxe9/7Xi6X27Rp04oVKy699NJbb711dHTUtu0Jb0lJkliWddVVV1122WVRFEVRJKVUSpVKpbPOOuvYY4+9/vrrb7nllnQ6feedd37oQx963ete98ADD1RTjpkCO3DgwL/927/97Gc/y2az41cxSZIknU4/+OCD3/rWt1atWjXlu6H55s033/y5z31OKWXasQohBgcH//M///Oiiy5617veZW7Z0dHxvve974EHHnjJS15SKpWm7wELAABmy0wG5XK5VCpVqVS4UH6ezA50XbetrS1JkuadFAMAAEuc1jqbzWaz2bGxMSLN/JmZt46ODjHXs48AAAD1ZWYRM5lMLpcbHR3leoh5MrOISqn29vZ6jwUAAGCOqiea8/n86OhovYfTIqSU3d3dSqk4jplFBAAAzcisgNze3j48PMy1iDUhpezs7DTxm4gItDYpxYEDA0EQ8GIHWswCFqYKIeI47u7u3rt37z333OM4jmleOjIy8sQTT1xwwQXd3d379+93XfdQscxUgb7qVa/atm3bz372s7a2tjiOLcv62te+ZopCJ78lSSnL5fI73/nOM8888yc/+Um5XL7iiitMXaiU8uyzzy4UCo8++mhnZ6fneSMjI5s2bbrqqqtOPvnkxx57zHVdsxHHcd7//vc/8cQTH/jAB7797W+Xy+VqzaplWeVy+cMf/vCll146MDCwbds2pdT48to4jjOZzHe+851/+Id/uPrqq1esWPHFL37RVJyGYRiG4erVq4UQQ0ND7e3tK1eutG27UqnUftcDAAAhhBBaa9u2165dOzo6ylXy82fOv6bTaRYqAwAAzctcJb969eqRkREi4vxprTOZTCaT4WQhAABoalLK1atXmwVnSTXzZE7yVlfvBQAAaF6rVq3KZrNExPnTWnueR94GAADNTkq5cuXKbDZrWmfVezjNLUkSz/NokgG0PK21bVsd+fCFF0qplBdFUb1HBKCWFrAw1TTU6uvre//73y+lTKfTYRgKITKZzMknnzwwMDA8PDy532mVlDKKonw+v2LFittvv71cLp944olHHHHEvn37Nm/evG3btnw+P+WKxY7j7Nq168EHH/zpT396xRVXmJGYKw6XL18+OjpaKpVs246iSCm1detWExAffvhhE2iklL7vX3DBBe9+97uPOeaYm266qRp0kiRJpVL/9//+X9d13/rWt/7DP/zDlJWxSZIsX778Ix/5yMaNG3/0ox+ZXySE6OnpOfbYY3/605++8Y1v7OzsFEL88Ic/dBznhBNOiOOYdqkAACwQU5va09NT74G0iCRJuJ4MAAA0OzNTRESsFSIiAABoAWbJku7u7noPpEVorYmIAACg2ZmI2NXVxVXyNUFEBAAALcBULnR0dBARa4KICCwdlhK8cwItaWE7pgohtNaO44iDNSGDg4OveMUrli9f/v3vf79UKk2/UK6pTQ2CYMeOHe985zvPO++8IAg8z3vqqaduvPHGffv2OY4zoTDV/LrvfOc7Sql0Om1+tZQyjuP29vZ8Pl8qlcaXgJq3tsk1969//esnXFFnWqH+/Oc/v/XWWz//+c+nUqkwDCe/MyqlwjD87d/+bSml1np8p+koit773vd++MMffstb3nL00UcPDAwMDg5+6EMfWrlype/7UxbZAgCAmtBas8ROrfDJEAAAtAwiYq0QEQEAQMsgItYKEREAALSMOI7rPYQWQUQEAAAtg4hYK0REYOmgVgpoVQtemCoOLg2ilBocHPyt3/qtq6++etu2bT/4wQ/S6fQ0pZhSyiAIjjnmGNu2f//3f3/37t0f+MAHDhw4cM4557zhDW+4+uqr/+Vf/uVQvy6TySilRkZGqtuP4ziXy3V3dz/00EPlcjmfz4+/y7Jly0wdafU75XLZbKe6Tdd19+/ff911173xjW886aSTqn1Q4zg2TTbGb9D3/SiKcrnc+LTkuu4LL7wwMDBgmrKautbh4eHqpgAAwMJhCgMAAAATEBEBAAAwARERAAAAExARAQAAMAEREQAAwFiMwlSTvcrl8oUXXvhnf/Znu3bt+uQnPxlF0eR+p5PvGMexlDJJks985jNjY2OZTOY73/lOe3v7K1/5yrVr127fvj2VSk3uuTrhO6ZZ68jIyP79+1evXm1+rxmV+f+BAweq3zEm9C81P/rgBz94+umnv+1tbxNC2LZtWZaUMpVKCSEqlcr4u0spx9eamvE89thj7373u1/84he/733vS6VSUsobb7zxve99r9b6la985YRWrgAAAAAAAAAAAAAAAAAAAAAAAADQAqQUlpJK/br8SmuRTFtWBqDBLVIlZLFYvOKKK/7sz/7swQcf/MhHPjI6Ouq67vRVqaaadM+ePXEcP/7446Ojo21tbUqp9vb2hx56SGt97LHHRlE0wxVHlFKVSmVsbKy7u9u27fGdVMXhli2J49iyrB/96EebNm3q6Oj40pe+9PnPf/7666/v7++vVCqf+tSnNm3a5DjO5PrY8Y9FCHH77bfbtv2Od7wjnU6Xy2Xf9//wD//wJS95ybe//e0wDC3Lmn6HAAAAAAAAAAAAAAAAAAAAAAAAAEBzkVIEoR4ai4YL0XAhGhqLyn5MF2qgqS14x1QpZblcvvLKKy+//PK77777S1/6kuu6mUzGVIQe9r5CiDAMu7q6qtWkSZJ4nielnEMlp+m/apqjmi86OjqEEENDQ9N3K9Va+75/0kknPf/8808++aS5e6FQEEL84he/6O3tPe+88w47GDNy13WDIJBShmHoeV57e3t/f7+pfZ2mtBUAAAAAAAAAAAAAAAAAAAAAAAAAmouUMgiTo4/InH/yyiiWWmvPtTa/UHn8mSHPVbT5A5rUwhamKqXGxsYuu+yyyy+//Fvf+tb/+3//z/O8KIqSJJFSptPpacpBTcfUoaGhe++992Uve9myZct2796dz+dLpdJpp50mhHj00Udd151hMaeUMkmS22677W1ve9spp5xiep8GQXDeeedFUbRt2zbHcQ5VWWpKRl/96le/5jWvMSWpSZLYtv3ud7/7wIEDX/3qV6MoCoLAsqxpfrsQYt26dYODg1u2bDn77LN930+n00EQbNu2raury7KsmVTqAjVBb14AAAAAAAAA09Nam0Ue6z0QAAAAAAAAAI2LyxEBAAAwE0rqUqBOWxO89SUjoxWltW7PW5+/q+NXjw+lPRETKoHmtICFqVJK3/ePPPLI3/u93xsZGXEc501vepNSynwK1VrfcccdY2Nj1Vaok2mtHce5++67X/7yl7/97W+/4YYb9uzZ89rXvvbiiy/+/ve/v2vXrkwmM8PCVK11KpV65JFH9u/f/2d/9meVSmXLli2vf/3rzzzzzFtvvXXfvn25XC4Igmm2MP4XmcJUc11OGIaHHYO5dufCCy/89re//bGPfezaa6895phj+vv7r7/++m3btn3qU5+ybTuKIi7xwcKpXkOmtXZddw4NhwEAANBitNZKKT6GAAAAYAIppVk40nGcMAxJjEBj4rUJAFg0Zv3ueo8CAAAAjUgp5bous4hAw+K1CQBoKFKKIIiHRoIxX2mtRWKV/YiDFdDUFrYwNQzDc8891/M8rfUVV1wx4QYPPPDAyMjINFvQWnue98ILL1x33XV/9Ed/9N73vrdYLOZyuQceeOC73/2u53kzrEoVBy+5rlQqn/vc59761rf+7d/+balUymazmzZtuummm9Lp9KE2ZapPZ/ujCTczsT6Xy33oQx/6xCc+8b//9//u7Ow0TVM//OEPn3nmmb7vV0t2gQViqg6SJPE8z7IsJoOABmQu+pzmqAQAQG2ZQGhW3nEcp1KpEBGBRmNKg3htAgAWmVk10nGcIAg4DAENSClVnUXkBBMAYKGZwtQkSSzL8jyvUqlw9AEajfngVv34xuc4AMDiMFc6pVKpQqFgTmnVe0QA/ofJhOl02lzurpSq94gAABBCCCmlZUnLkloLy5KKSQygydWsMHXKwJrNZn/5y18++OCDWuvJNTZDQ0Ou6x52cc1UKvXMM8984AMfWLFixerVq3fs2LFnzx7HcQ57qiObzd5///1PP/30gQMHUqmUaZq6Y8eOD3zgA8uXL1+1atX27dv7+vosyzLdI80GkyRJksQMqVKp/N3f/Z1pizrhd1UqlWuvvTaO4yiKpvztUspKpfLiF7/4K1/5yvLlyyuVShzHa9euve666/bs2bNly5bly5evXbu2vb29VCqZz+TV3z7NgwLmTEqplEqSxHGc7u7uXbt2ua5b70EB+A1RFHV2djqOY44FzNgCABaa+Thmzhd2d3fv2LHDtm0uWAEaShAE3d3dmUwmjmPzsa7eIwIAtDillJlFVEr19vYWCgXBNc1AgwnDsK2tLZVKmfNZREQAwCKorpzV3d09PDzMKlpAowmCIJfLtbe3x3EsWLsEALDwpJS2bcdxrLXu7Ow8cOCAmVGs97gA/I8wDD3Py+Vy1eXt6j0iAAAAtKCaFaaWSqUp5zRHR0erdZ4Tf/eMr3hWSo2NjQ0ODj722GOO45hquplMoRaLxT179oz/RUqpkZGRAwcOPProo2ZT1aLTOI5NJ8lMJlPdwpFHHnmoja9du/awA0ilUj09PeO/43ne+vXr169fX/3O+F8nhEin04fdLDAHpt4gCIIkSXp7e6Mo2r9/P6cigAZhTud3dnauWbPGrFMwkyUYAACYP9MFK47jnp6eMAz37t3LyghAgzBTGV1dXatXrxYHmxvzCgUALALHcXzfT5Kko6NjxYoV+/fvP9T6jAAWn5Syvb197dq1SqkoioiIAIBFoLV2Xdcsxt3W1rZ69eq+vj5T/Aag7kwazOfzRxxxhImIlmVxohkAsNC01o7jRFEUx3EulzviiCP6+vqiKGKaAmgQUspMJrN27VrzUq32cKr3uAAAANBqalaY+qY3vamzs9N8sBz//WlKT2cbcKvNfKa545S/fcLtqz1aJ2xKSnnbbbcVi8Xxq8KYG0z5KKb50fjbmF6sk785fiRVSqliscjaolggjuPEcRzHsWVZa9as6ejoCIKA5xvQIJRS+XxeCGFO5Huex0wQAGChmfOFJiJKKVeuXJnP58MwJCICDYKICABYfGZ5uyiKzIqTq1at6ujoqFQqRESgEZhXKBERALD4LMtyHMfMHC5fvjyXy/m+T0QEGoSUMp/PK6WSJNFap1IpIiIAYBEopVzXNdcf9vb25vP5UqlERAQagblwnYgIAGg0HIyAllSzwtSzzz67vb29Vlurl5tuuunZZ5+tY/7WWluWZS4pAGpOa+15XqVSMQsgZbPZfD7PAR5oHKYuSAiRTqd5bQIAFseEiJjP51nFFmgocRwnSSKESKVS9R4LAGCpMBepmIiolEqn09lslogINALzec1ERPNSrfeIAABLhWmaqrU2ETGTyeRyOSIi0DjiOI6iyERE2qUCABaHWQRZax0EgWVZrutyvRPQUJIkMWtQep5HRAQA1JGUMo6TgWGZSnnFsbjewwFQYzUrTP30pz9tPmROf7MpW5gelpSymomllOZ0+/gbKKV831+7du0b3/jGCe19tNYT/pkkidmaWRKm+lMp5Z//+Z/7vj99x1Tz280qMmZgU455/M3MCKsbMWOo7orqj8wH9b179371q1891GaB+Uun00EQhGEYRVG9xwLgN0gpbdt2XZeKIADAIkun02EYBkFARAQakOM4rusKFg4EACwiczWziYiTJ+QB1J1t257nMYsIAFhMZoU7y7LMuWaOQUCjsSyLqlQAwCIzy5dYluX7fhiGYRjWe0QA/oe5xD2TyRARAQB1p7WOYtnb21uJR7Ue1VJqIbUQWsjD3xnTqstRfnyFHVCzwtQtW7aYCsxpVGtKTSnmDF8A5l6lUsmyLLMOdCaTsW17/K+zLKtUKiVJYllWHMfVZ7lZ6CVJEnNjczHN+NdAHMfjC1mPOuqoaYpaZ/idOTObSqfTNdkacChmPshxHC4pAxqNZVnm+MhrEwCwyMwqOeZzFochoHGYk4XUGwAA6oKICDQsZhEBAPWitbZt27btOI45DAENRSlVXaO/3mMBACwtWmvLskyv1MNeQgxgMRERAQANRQohpezs6k55ZVsHjnS0SBypFRWO81C9tGwxf6mJFmQMVNWsMNUszDz9baIoymQy11577V133XXbbbdls9mZdFgNwzCTyWzcuPGMM87QWj/77LO/+MUvBgcHx9/d9Bf1PG/8fcMwzOVy3/nOd5555pm///u/L5fL6XR627Ztt9xyy7PPPut53ote9KKLL764p6cnCAIzeN/3q9uMoiiXyz3//PMf+chH3vve965cuTIIgkwmc9ddd23atOmFF15Yt27dpZdeevLJJ5dKpQnLybiu++ijj95xxx1btmzp7e099dRTL7nkEqVUHMdmAdFbb71106ZNcRyfd955l19+uWVZpjGR53m+789u1wOzZ56ui38QAjA9IhoAoI6IiEBjIiICAOqIiAg0JiIiAKCOiIhAYyIiAgDqyByDpJS2XbMLkgHMHxERANBotNZK6FBl9yXLSomldRImdimypOCANWtmejYIgiAIKpVKHMeL9qtTqZRt257nOY5D3oCoYWHqYZ9PSqkgCP7gD/5g3bp1v/rVr8wKmoddISlJklQqde21165bt+6hhx4qFouXX3756aef/slPfnJoaMi27eovHb9qu/kil8vdfffdn/rUp84++2whRDqdvueee97//vd3dXWdf/75xWLxP/7jP7773e/+y7/8y7p160zfVEMIEcdxPp8fGhr62Mc+9txzzyVJopRyXffGG2+8/vrrN2zYcNJJJ91///233nrrhz70obPOOqtSqZji2CRJ0un0N77xjc9+9rPHHXfcWWedtXnz5o9+9KP333//+9//fnObf/mXf7njjjsuuugiy7I+85nPPPbYY+95z3ssyzK/hfM3WEwcBgAAADABEREAAAATEBEBAAAwARERAAAAExARAQAAMI04Ebm0/MWT0Y0/KTiOrbUWUkZBkE2r+DCFZfgfWmvLsnzf7+/vL5VK4yvpFocpu1NKtbW1LVu2TCmVJAl1cEvZIi1QZFnW6OjohRde+LKXvWzmz3ulVLFYvOCCC9atW/flL3/5pz/9qdb6zjvvfM973vN7v/d7n/vc50yB9YR7aa3N92+44YYbbrhBKZVKpaSUIyMjn/zkJzds2PDxj388k8kIIV772tf+1V/91Re+8IV//ud/nrCFTCbz4IMP/uu//uuePXu6urriOFZKPfnkk5/5zGfe/va3v/nNbxZCVCqVt7zlLR/4wAe++c1vOo5jHpfnec8+++wXv/jFV7/61f/rf/0vs8Ef/OAHH/jAB0488cQ//MM//M///M9bbrnlYx/72Pnnny+EeM1rXvOXf/mXRx111J/8yZ8Ui8X572oAAAAAAAAAAAAAAAAAAAAAAAAAaARKqSiKSsVSuVAKDzYplEpS0zhzpip1bGxs9+7dpjOiZVlaKbEotalaCCmklEInidZ6cHCwVCodccQRU1b2YelYjMJUKWWlUjniiCOuuuqqBx544PTTTzeNQ2dCKXXccceNjIzcf//9nZ2djuM89dRTTz755IYNG9Lp9OSGq1pr27YPHDjwD//wD4899tgf/dEf3XvvvaVSSQixc+fOoaGhq6++OpPJjI2NWZZ1zDHHnHLKKdu3by+VSp7nma1prV3X/fd///cvfOEL559//mmnnfbTn/7Utu0kSW644YYNGzZceeWVQRDEcZxOp9/4xjfu2bPH933Xdc19lVKPPPJIHMdXXXWVEKJQKLiu+7u/+7tf/epXn3nmGSHEz372sxe96EXnnntupVKJouikk0664IILbrvttj/4gz8Y3wAWAAAAAAAAAAAAAAAAAAAAAAAAAJqZjKJoaGgojmPbsZSSQkghFqegsnUopYIg6OvrMxWqWsgkjlRxzLIsKRajvlfrJNJap7NSStu2K5XK3r17jzjiiEX41WhYi9QxVWv9l3/5l1u2bLnpppvOOuusyQWl09zxueeeO/PMM9euXfvII484jtPR0XHkkUdu3ry5XC7ncrkJmzLtUvv7+7PZ7Je+9KWTTjrpnnvuMQX0Rx555Fe+8pV0Oh0Egeu6WuskScrlsm3blmVVK0KllHEcv/DCC3/zN39z5ZVXfuMb3wjD0LbtOI6ffvrpl7/85alUKgzDSqUihLj00kuFEGEYmtbDpiHyxo0bTz755Pb29iAIbNsWQpRKJd/3U6mU7/t79uw599xzHceJokgppbU+/fTTf/aznz333HMvetGLZr5nAAAAAAAAAAAAAAAAAAAAAAAAAKAxSSktK+nvP2B6AWpNPepcmL134MABU+OmhdR+xevoSi68vLjuGO04cqE7JSrLLoxknnlC/+quIEmEZdm2PTY2NjIy0tnZGUURzW+XpgUvTLUsa2ho6Morr1y9evVHP/rRfD4/8/smSZJKpe65554jjzzyj//4j++4445KpfI7v/M7Y2Nj//3f/22KSyfcRSnl+/4xxxzziU98QghRLpe11ubJ7TjOqlWr4jhOkiSKomw2++ijjz788MOXX355KpWqVCrVPq5RFL3vfe/zPE8IEQSBlFJKGQSB1vrEE0/8/ve//41vfKNQKKTT6de+9rWvec1rJgzD87wTTjjB3D6O41Qq9aMf/aivr++iiy7avXv34ODgCSecIIT4deNpKdva2uI4LpVKvAgBAAAAAAAAAAAAAAAAAAAAAAAANDuttWWprvZ469YglfIWunayhSmloigqFovKsrSQOqh4q4/su+Y9e1YdEUfRIgxAC6GkdF966frfOj//hev8OLaUklKOjY11dHRQELdkLWxhqlKqVCqdcsopV1xxxY033rh3797e3l4hhCn1nOEWRkdHH3744fPOO++qq64Kw9B13Z/85Cd9fX2O40z5lqS1Nh2Bzd3Hf99UmZqq1J07d37wgx9cvnz5n/zJn8RxPH486uBrI5fLSSm11q7rbt++3ff973znO2NjY5deemkul3v44Yc/8pGPjI2N/emf/mm5XK7+LtOIVUqZJEk2m33ggQc+8YlPXHTRReeee+6TTz6plDIlr1VxHE8YKlrJzJ/tAACgNUxz6JfjLOaQFsiERyGlVFIqIabPtWrSw6/5Pmn83dsyzwEAADBDRMTDR8RJ21mCEbHeQwAAAItq+qM/EfHXs4jjrgdYiIjY4Hu48UcIAABqa/qjPxHxUBGxtgNr8D3c+CMEAAC1tXQjohCHjYh6sa5FbI093AjYk/NnOjVKIbTQnpDDr/+T7SvXeMODjrIWbQxhkjx71otP2/pq67+/pvNtIo7jOKbeeClbwMJUKaWpI/2Lv/iLX/7ylz/84Q89z/N9XwgRx3EQBEmSTL8FU9d6xRVXvOY1r7nlllt+8pOfhGF47rnnvulNb1q2bNlnPvOZKZumCiFMl1QpJzYillLGcWyqUt/1rneVy+WPfexjPT0949ulVrdgWVb1jc/cMUmSvr6+T37yk+vXrxdC/N7v/Z7neTfccMPv/M7vHH300b7vVzdifnUmk7nvvvv+7u/+7uijj37Xu94lhIii6FCPmjfZ1iOlNO15D/tUBwAALcME0UN9xIrjOIqiKIpaI/sppcY/0iCKKkJUDjcZZAsRxbGwfv0x2OSl2u4TpVSSJJa1eJ+0Z0Vr3TLPAQAAMBMmIh5qgqjFIuKERzGLiJgk1Yho8lJt98k0Kb0RaK3DMGyN5wAAAJiJ6SPiQsyY1YvJYOOTWBhFFSmnj4iJEEqIMIrEwfPvNY+IWmut9YQFrBuNebyNnGMBAEANmYO+aXExGRFRC2EJEcbxhIhYwwvzmiUiit/cewAAoIVNHxEX4qRqHU24FjFKkkoY+tM+Ni1EIkQwLhAuxD4xPSprtTVgzkyNm+/7cRxblpWEgVq+aujIDVaxIG1nMT8h2EL4ldLIi07v/tFNPqVSWOiOqUmSXH311abH6dq1a+M47urq0lpns9kVK1YIIUxn0SnvK6WMoqitre3SSy998sknb7jhhlQqZVnW9773ve7u7ksvvfSYY4555pln0un0zCcX4jjOZDKbNm3653/+ZyHEv/7rvx577LHjm50eShRFXV1dQoizzz57/fr1hUJBa53L5V72spf9+Mc/7u/vP+aYY6o3NjMU6XT661//+uc///nTTjvtH//xHzs7O6MoWrVqVVdXV7FYHL9xy7LMjMYMHwWahdba9/39+/fXeyAAAGDxaK2VUuOXLKl+X0o5NjbWYisDmUmcROu0Uvd3dT1uWYkQ000GaW1b1oFCIVUoJEIopYrF4v79+2t+ei8Mw1Qq1ZiTbnEcDwwMNObYAADAQjCnB4rF4pQRcXR0NAzDFouISiktRNq27+7o+JVSM4mI+8bGUsViIoQ5lbJv374kSWoeEdPpdA03WBOm0iAMw8HBwXqPBQAALB4TEUul0uTz1Gbt5oWYMasLM19q1olOhEhL+UxPz17XjbWe/pIyS8rRSsUdGTGziOVyeYFmEV3XreEGayiKouHh4RZ4DgAAgJmTUpbL5cnfV0oVCoWWiYhCCCllEAQmImakfLy3d5ttH3YW0VJquFSqnmiOomghLswLw9DzvMbcz1EUDQ0NNebYAADAApFSlkqlKRu2BUGwf//+mp9UrRfTFc9ERE/rvR0dX06n42kfnRZCCeFHkRwaEkIopcIw3L9/f81PvsdxfNiCI2Bx/PrpLaWMY9HRWUlnZBDoxX0T0FKKJK60d6l0RvgV0RJvQZiPBSxMTZIkk8mcccYZmUzmve99r23bQgitdRAEF1988eWXX/7Vr371tttuy+VyU1aWmoPlUUcdZdv29u3bbdtOpVJJkuTz+fvuu+/iiy8+/vjjn3zyyZkfR5MkyWazd9xxx//+3//7jDPOeN/73tfb21ssFg/bScmUyK5YsSKfzydJkiSJUsoc3VOplFJq79694jeXoUqn0zfccMMnPvGJq6666l3vepfWulwuO46Tz+dTqdQzzzxTvbHWemRkJJPJ9PT00Fezxfi+n06nG7ZVFwAAWAjmkrJDTUM4jmMy7SKPaiForW3bTqfTJlErpeyursS29eHmdSIpU54nxsZMtDb7pOYrt9m27fu+53k13Ob8SSkrlYrruq7rtlLxCQAAmJ4JTuVyecoA4LpuK0VEy7JSqZRZCtC2baurK7Gsw0bEWKmU44hCwazfp5RKpVI1v8zORETHcRoniZmRmOBKRAQAYEkxEdG27ckBoJqpWqPXgXk42Wx2dHTU/Ntpb08yGZ0kh4mIUnphqMbG4iRJkmSB9onruqVSqdFmEU0hrrlAgogIAMCSopSasrmFSY+tFBFt285kMqOjo+aaUqejI/G8w88iSulls7JQSJLETB4uRF5yHKdcLjdaRDQnmomIAAAsQabY8lA/WoiTqnVRjYiFQsF2nCSOnVwu6ehIDvfoYiFsIZxCwfd9s0beAp18LxaLLVMDjNaRxLJunw6kTGLBZxMIIRa0MNXUc37mM5+pfhgOw3D58uV/8Ad/cOedd/7qV78aGBjwPO9Qn5PN0WVgYEAp1dbWVi6X0+m0WSC2t7dXKbV79+4JDbunl81m77333n/4h394yUte8sEPftB13eoa+VEUTbMd80CklOvXr3/88cfNdULm4qodO3bEcfyiF73I9Dcww06lUjfeeONnP/vZP/7jP/6rv/orc8F9Op2O49hxnBNOOGHLli3m0ZmDk2knu2bNmiAIGm1GA3NTXdTNtMOt93AAAMDi0Xq682X6oMUc0sKJ47i9vT0IgiiK2tvbbSl1GM5k6iXtul1dXcViMZ/PZ7PZKIrEb67zMn+mVjYIgsaZDDIfK4QQjuO0RuUJAACYoelDYItFxCRJOjo6wjCM47izs9MSYiYRUQuRSaU6OzvL5XI2m+3q6jJX4NU8Ipp2rI2znK2UMo5jrTUREQCApeawCbCVImIcx7lcrr293ff9XC7nOY4OgpnM2blKdXd3m3KFjo6OhYiIUkrHcXzfb5xZRCFEHMdxHKfTaSIiAABLzUzONS/meBZOFEX5fL5cLodhmM/nXcua4Ylmz7a7u7vHxsZs2+7u7l6IfWJW3GucWURzYaqpxc1kMkREAACWmiUVETs6OqIoqlQqqXw+m8noIJhJIFNKdXd3m8byXV1dSZLUfJ9IKT3Pq1QqDbUIMiBEXae1G2lSHfW1gIWpQgit9VNPPWU+DEspfd9fv369lHL37t2//OUve3p6plwFtnpf27aHhoaefPLJc84557777tu8eXMYhkceeeSVV1554MCBZ555Zpq61irT3VQIMTw8/KlPfeqYY475q7/6q5GREd/3q60s29vbDzUSKaUpf7Us65WvfOXf/u3f/ud//ucf/dEf5XK53bt333jjjaeccsr69evNJe9JkqRSqc2bN3/pS1+6+OKL3/CGN/T19ZmpAfNwli1b9spXvvId73jHN77xjTe96U1CiO985zsPPfTQX/3VX7muWywW57O30Ti01lEUzeT5CQAA0Ly01q7rrl69WghhwvAMP2pqIZYtW1ZNSgsRmbTWnucFQdBQecyscdNQQwIAAKgtE8PWrFkjZhkRhRDLly+vTqUuUER0XbdSqdR8y3NmlrcjIgIAgJZnWdaqVauql9TPMCImWnd1dXV2dpp/LmhEbJDOEqarg5lFrPdYAAAAFpZt26tXr55tRNRad3d3d3V1Vf9Z84GZiOj7/pTda+vCzCI6jlPvgQAAACwsy7JWrFgx21PGidb5fD6fz5t/LlBEtG07iqIwDBtk+RIAaBwLW5gqhDAtSYUQUkrbtrPZrJQyk8lks1nbtqf/9G6OKF/96lff/va3/83f/M2BAwdKpdIRRxwxMjLyb//2b2NjYzNZJbRYLJZKJSHETTfd9Nxzz61ateqtb31rFEXVQ0KSJJ/97GePOeYY0wR1wt2DICgUCmb64yUveck73vGO//iP/7j11lvz+fy2bdtWrFjx/ve/3xxmzGiFEF/4whfCMHzsscfe9KY3meOiUmp0dPSiiy76P//n/5x++ulXXnnlv/3bv/385z+XUj799NOvfvWrX/e61zXOIluYJ6WUWcttVh19AQBAy5DjzOT7za56snBWj8vc3tx3gXaIaXcwNjZWXY+mjkz71kwmY1kWEREAgCWIiDgT5vbm/wsXET3PGxsba4SZWDOLmMlkplm9EQAAtLApo6CcpI4jrK3xYW+29zJfL2hELJVKjbC3TURMp9NERAAAliYi4szvZcLSgkbEYrHYICea4zi2LMssb9dKTwAAADATSzkizvxxVWPSgualVCo1MjKyQBsHgOZVs8JU05h0+rdyx3EGBgY+97nP9fX1mYLV6T+6a63T6fTw8PB111139tlnH3300Uqpe++995e//OXIyEg2m02SxGxBSmlZlpQyjuNqqaoZz9/93d+lUinf988999xjjz3W1AqOH6RZRsv3fa31hEJZ3/cvvPDC448/vr293XRbuvrqq88444wHHnhg//79F1xwwctf/vKuri5TU2p+r+/7f/iHf/j7v//71TGYL+I4Nr8lSZJ3vvOdF1xwwS9/+ctisfjqV7/60ksvjaLI/Orx40fTMRNeQRBUKhVz1rDeIwIAAIvNrNQVBIHv+7Ztj492SZKEYRhFEXlv0ViWZbJZvQcifN83nxqIiAAALEFmyigMQzM3SESsL8uywjA0SxnWVxRFpVKpq6uLiAgAwBJ0qIhopo9MRDQrI9d1mEuFZVlxHJfL5XoPhIgIAMBSZ9LghP4WRMS6MK1KGiEiJklSKBSWLVtGRAQAYGk6VESMoigIAlOEQkRcHOZPUCwW2eEAMF7NClOLxeJMLp8aHR3dsWOH4ziO48xwjU9TX/r973/fbF9KaZYIHb/egFKqVCr5vm+2PP7u5557rvnipJNOmsXjOWjDhg0bNmwY/51TTjnllFNOGf8d2/6N3XjmmWcedrNnnnnm+JuN30I2m53DONE4UqnUsmXL8vn89A2BAQBAS9JaK6WWL19u2qeP/1GSJJ2dnel0mqXuF41lWVEUZTKZeg9EpNPp3t7etrY2IiIAAEuQiYhSStu2J0fErq4us9R9vYa31EgplVL5fL7eAxGu6/b29ra3t0dRVO+xAACAxWYiohDCdd3JETGfz+dyudl2jsKcmT9BLper90CE53nLli1rb28Pw5C/PgAAS5CU0nXdalasSpKkvb3dtPEgJCwO06ekEa7ktCyrp6envb2dmhMAAJYmc5bZnOIc//0kSTKZTD6fJyIuGiml53nt7e31HkjTk1IoKdTBp60WgsslgKZWs8LUSy+9dCaVeKantmkkNfONT2gyniTJ5Lubnt033XTThCOr+UBuZgoO9UvNlWETvmkaq5p7jb/B+O1MecdD/aJqINAHTdiI1tqyrJGREcJBkzIFxn/wB39w1VVX1XssAACgnsZn1/FmG4NRE5ZlVf9fr9/+lre85U//9E/rMgAAANAgDhUR6ZVaF2aetl7TsCYivuxlLzv//PPrMgAAANAgmEVsHFpr27bNFQJ1GYCJiBs3brzkkkvqMgAAANA4JpQcGETEujAhrV4R0TwTjj/++G984xt1GQAAAGgQzCI2FKVUfc81NzspRBiLMV9aypRQCddKXEfyXAaaV80KU1/96lfXvRNRX1/fO9/5zmbvMKCUSqfT9R4F5s627QlNdAEAALDEmYXr6j0KAAAANBDLsphFBAAAaCh1v8zAsizHceo7BgAAADQU05ir3qMAAADA/zhsMz9MSUqhlCz5ydnHp//6VSsqgdBa5zLWrY9EP76rP5tRLbOmt2VZWuvJa5SbjobVPoimwrl6M9MHcfziieZmlKCj8dXswpc777yzs7MziqK6XG+dJInrun19fR0dHWYp08UfQ02YdrL0SWhqzfv0AwAAaFV1LwolIgIAADQaIiIAAADGq3s+FFxjBAAA0GAaISIKJhIBAAAaSYNExAWSJEkcx6by1lQ21XDGMoqE0EmYOKvzlUvW7R2tKK11Z97a0tcTxqJldmuSJIVCwbKsCd0KpZTlcjkMw3Q6bdt2kiRjY2NSStMeUkrp+34QBBOeYGadGsdxKDFDI6tZYeo3v/nNJEnq+D6rtbYsy/M8ViBA3bV24AAAAGguDXKijogIAADQOIiIAAAAaExERAAAAExARAQAAMDiyGaz7e3tjuMIIYIgSJLEcRzbnm/RmZQyiuLBEZXL5UpDlTASIxVZ8KXWQtnSD3VrBF4pZRzH+Xz+iiuu2L9//1133VXtuSilDILg7LPPXrdu3T333LNnz55sNnvJJZfEcXz77bdrrX3ff9GLXnTiiScGQWA6qQoh4jgeGRl58skn+/v7M5lMg1zkAExWs8JUU6hddxSCAwAAAAAAAAAAAAAAAAAAAAAAAMBhKaXuv//+3bt3VyqVbDa7evXqOI49z+vv7zfdU+e5fa1Fd3dXJSlKMWApoaTQQlhKtEZVqhhXmLpx48YXXnjhjjvuqNb0msLUs8466+yzz37uuee2b9/e0dHxqle9KgiCn//851rrIAhOPPHEjRs3Tt5ssVj8/ve/f8stt3iet7gPCJipmhWmUhEKAAAAAAAAAAAAAAAAAAAAAAAAAM1CKfXBD36wWCyWSqWXvvSl//Ef/1EulzOZzMDAQK16dSZJ0t7W7qWKSZIIYQnRgi1AkySJ47hYLE74vpSyXC7HcRxFkSn0LRQKQRBM+Ol///d/b9q0KZvNJkmSz+ePOuqoyy677Kqrroqi6JZbbmlvb1/0BwQcXs0KUwEAAAAAAAAAAAAAAAAAAAAAAAAATcT05JRSZjKZdDothEin067r1vBXaK1ly/RIPQTLspRSk7+vlLIsq/rwlVLjbyaltCxrdHR0165dbW1tSZLs2bPnkUceeeGFF97xjne86lWveuihhwqFQsvvPTSjKZ7uAAAAAAAAAAAAAAAAAAAAAAAAAICWp7VOJqlVu1SDusrp2bbteZ7ruq7rplKp7u7uRx999P77729razvttNN832cHogFRmAoAAAAAAAAAAAAAAAAAAAAAAAAAqD3LssqVMtWV09DjmMJgpdSzzz6rtT7qqKOmbMQK1B3PSwAAAAAAAAAAAAAAAAAAAAAAAABAjWktxsbGBg4cSJJECKWF0EJqQYXqdLTWSql9+/ZJKbPZrJSytg1sgZqgMBUAAAAAAAAAAAAAAAAAAAAAAAAAUDNaa8tS7flkcHBISGUp4cio+p+iNHVaUsogCMwX9R4LMDW73gOogxr2L06SxHwhpazh67y6WQAAAAAAAAAAAAAAAAAAAAAAAABoOlLKTEoIIZTQZZ3alywrJkJrHSZ2KbKkaLUuoFrrya1N59DsVEqZJEl3d7cQIoqi2gwOqLWlWJhaLBaTJKlJHWk6nTYlqWEY+r4//21qrS3LSqVS8x8bAAAAAAAAAAAAAAAAAAAAAAAAANRLokWciGxK/OKJ8Dt3FtSvO6XKKAyyaRW3UGu/JElSqZTrutVKVK214zhtbW2z3ZQpTO3t7RVC9Pf316oODqitpViYet5552UymXnWiyultNYPP/yw7/txHK9cufLYY48Nw3CeY3McZ2xs7NFHH+X9onnR8BYAAKDRWJZV3wEkSTKH9a4AAECL0Voz6dcgtNa2Xee5ca11HMf1HQMAAKi7yRGR0FgvZkHq+o6BiAgAAKZERKwXKaVSqr5jICICAACglUgpozAqjRWrSVuq+k/M1oTWWilVqVRKpVJ3d3cmkymVSrZtmwtHHcfp7u5OkqRUKlmWdairSaWUlmWZnWMaKLque9ZZZwkhnn766dbYUWg9S7Ew9XWve11PT8/8t6O1fuaZZyqViu/7xx577Jvf/Ob5b1MIsXfv3kceeYS3jOZV97IHAAAANJq6lz0AAACg0TCLCAAA0GjqvrQcs4gAAACYgIgIAADQaFg3ZJ6klJatqoWp9Z6UrSXHcQYGBnbv3n3ccceddtppP/rRj7LZrBCiWCyeeeaZK1euPHDgQF9fn+M4h5qLrlQqIyMjWuskSZRSjuNcfvnlRx999DPPPPP000+n02nf9xf3MQGHtxQ/tZZKJd/3b7/99iAI5lb/qbV+8YtfnE6nTW9MKWUQBEmSbN68+emnn/Y8T0o587NWZgyVSmXNmjVnnXVWoVCYw5DQCMzz4cEHH3z88cerTw8AALDUmGWKppx9cBxnmrWOUHNKqXK5fMIJJ5xzzjn12u3m927atOnZZ58lIgIAsGRJKaMoCsNw8mwkEXGRmbje3d29cePGeo3B/Lmfe+65e+65h4gIAMCSdaiIqLV2HKe6jDoWgTndv2rVqgsvvLBeYzCZ8IknnnjggQeIiAAALFlSyjiOwzCc8H0i4uJTSvm+f+SRR770pS+t74nmvr6+W2+91fM8IiIAAEvToSKiEMKyrGnK21Bz5m+RzWZf+cpX1nssTU/rlqpHNbTW5knyi1/84rjjjrvqqqu6u7s3b96stT7qqKMuvPBC27Z//vOfFwqFVCo1+e7mTMGpp56ay+Vc1xVCdHd3H3300WvXrh0dHf36178eRZH5PtBollxhqtbaXOn1ve99b3h4eG7zNUmSnHrqqW1tbeM3q5R69tlnv/a1r5mey7PaoOM4URS97GUvO+ecc+iV2rzM7M/dd999ww03rF69esoICAAAWptJm319fSMjIxMKDJIkWbVqVVtbG2eMFo1t2319fa997WvPOeeceu1283tvv/327373uytXroyiqC7DAAAAdaS1tm17cHBw7969E2YjkyRZs2ZNLpcjIi4ay7KGh4c3bNiwcePGep2mNX/uJ5988pOf/OSaNWuIiAAALEEmIh44cGDfvn3jI6KpVu3t7e3t7Y2iiBPHi8OyrMHBwdNOO+2iiy6q1xhMRHz44Yc/+clPHnHEEZxoBgBgaVJKFQqFXbt2VXsHiYMRcfny5d3d3UTERWPb9v79+88///yXvvSl9RqD+ZiwZ8+eT33qUytWrKAxFwAAS5NSanR0dM+ePRMiYhzH7e3tK1eujOOYiLg4pJTlcrmzs/Oyyy4TB9MaMF6SJOl0etOmTZlM5oorrrj88ssvv/xy8yPf97/73e/ecsst6XTaZHvLsizLqt7XfH322Wefc8451W8Wi8V77733hz/84a5duzzP41mHxrTkClOrzPVe41/JM2faIk/+vud56XT6uOOOO//886dsgDCZWc+sr6/vRz/6USaTmcNg0DjMX7y9vb2zs7OtrU1rzVs/AABLjSlM9X3ftm2l1PgwoLXu6urK5/NUHSwOk80qlUpHR0e9xyI6OztNRBTMSQEAsPSYqgMhRBiGE9YuMRExm80SEReHlFJKmSRJb29vvccistlsd3d3Pp+XUhIRAQBYakxETJIkjuPxEdFcUtbV1dXZ2UnVweIwETGKop6envoOQwiRy+W6u7tzuRwREQCApUkp5bpuuVwenwOJiIvPRMQgCLq7u+s9FuF53rJly7LZrOM4TCMDALAEKaVs2/Z9f0JETJKkra2ts7OTwtRFo5QaGRlZtmwZE3eYhtY6lUrdeuutjzzyyIYNG9ra2qSUxWLx+eef7+vrS6VSpidiEAQf/ehHtdZJkmit0+n0XXfd9dhjj41f1VprPTY2NjAwYFlWKpWK43jKKjag7mpQmDrlk3t8Sd6hnv2HKtubcPvpq/vMLMAMbzyeOc83tzM603zC932/q6vrggsumNUGn3vuuf/+7//mENUaTMFzqVRyXZe/KQAAS405+sdxHEXR5I6pcRzHcdxip4uUUmaqa1bJR0ppCncXbm+Yk4VKqUbY4dWIyLJVAAAsQVprc/WYOYVARDwUExFne69ZkVL6vj9hBZl6iePYtu1yuUxEBABgCTpURDQVkvFBrXRJ2dzC3qLNIjZIIWiSJLZtm1nEeo8FAADUgdbaRMTJHVNbMiI2+IlmM7YF+hUzZ9ay8X3ffIio93AAAMBiO1REjMdppZAw51PGZv8sdERshHyIxqe1zmQyw8PDmzZtMs8ZKaXruplMpvoU0lpv375dCOG6rhBCKTU0NHTgwIEJm7IsK5PJLOjHH2D+5luYqrUulUqTv2+W71JKxXE85Q2EEJZlmWtuxpewJklSKpVMb2LzHc/zzHqxU/6WIAiCIDBbkFI6juN53nxedbMqi52sOhNUqVQmV+RWt1b9UZIkqVSqVCq1UiBY4swKx1LKMAwdx2mEU5gAAAALxCzmFIZhNpu1bXsmyae64JO5viqdTi9EXjJhTAgxw1EtNBMRzQNn+RIAANDapJSFQiGKoplHRHGwZLRcLqdSqXQ6vRCnVcwJWq114/QWqK5wTG0qAABobVLKSqVSqVTS6bQ5mz+Tk+PmzHuxWLRtO5vNLlBeMsvENMiUnSk2cF3X932zdn69RwQAALBQpJSlUsn3/UwmM/MwZs4Cl0olx3Gy2ewCzfJVZxEbJI9VI+ICnVsHAABoBFprsx5HqVRKpVKzmhzTWo+MjEgpc7ncwg0vCAKm7DBDZglCx3Gq35lcXGpWJ6w+o2zbtu0p6vsa5NoGYBrzKkzVWruue/zxx09YHUprXSwWd+/eXS6X29raTjjhBDHp9ZAkyfDw8O7dux3HMb2klFKVSsWyrNNOO239+vWe58VxvGvXrqeeemp4eNjUeVfvbn5jsVhctWrViSee2NPTI6UcHR196qmntm3blkql5rbsvZSyXC5Xy2KFEOl0erabklJalqWUmrIw1RyNgiCoftPceLZDRSMzL41iseg4DiXHAAAsNdMc/eVBizmehaOUKhQKu3btSpIkm8utXbNGHa6xgHnsidZ7+voq5bJlWWvXrl2I+RoTuXO5XKVSqe2W5yxJEs/zxsbGTIVqvYcDAAAW1TQhsPUi4ujo6O7du7XWbW1ta1avFr/ZJHYy89jjJNnT1xf4vmVZK1euzOVyMyxXmBVz8Zbv+w2yw831bZVKxXXdBhkSAABYNNOHwFZKiaaZwK5du6Io8jzvyLVrbcs67Hygefi79+0bGx1VSq1ataqtra3ml+CYywNSqVSDzCKaxq2u61YqlTiOG2TRPQAAsGhmMovYMhGxUqns2rUrjuN0On3kEUdYh7tE0zxwLcTe/v5ioaCUWr58eWdn50JcpW1mEaMoqvmW58BcKGvbtomIlmXVe0QAAGBRLZ1ZRKWU7/s7d+6MosiyrCPXrk25bjKDyTHLsvr6+wcGBoQQy5cv7+npiaKotvvEzCKazpbM19WA1lr/z99WCila4jk8wWFbJE74KU8tNK+5F6aaBUrz+fw73/nOKT/ubtmy5YYbbqhUKtdee+2UW/B9/4EHHvjGN74RBIFt26VS6Zhjjrnqqqs2bNgw/mZDQ0M333zzL37xi+qy8WZteynlG97whosuumh8HXkURT//+c9vuummOVy3ZA4Yp5xyysUXX2zavT7zzDPf//73a9L30syApNPpz3/+867r/vEf/3EQBK0RAjCZWbHDtu1yudw4a6cBAIBFYJY1OtTRP4qiMAxbZgUjpdTIyIgQwnGcoFIZCwJp24f9fKyUqhSLge+7rms6HjiOU9vJIPNRpQHrP6WUnuf5vk9EBABgSTHnG8avhTdeS0ZEs2afX6mMBYGwrMNHRMsqFwphEJhkODIykkqlzAxwrQZmeinYtm3NoApi0ZiOWJ7nmROZjTMwAACw0KaPiEmShGFY88un6sKcNh0ZGTFdSaMoGvN9J53WSTJN9JFCCKWiSqVcKjmOE8dxoVDIZDI1n0U0mXPKdejrSGttZhEPe+kSAABoMUqpQxVDxnHcMhFRCGEiolmSIwzDUd+3PO+ws4hSqbBc9stlExFHRkay2Wxt85KJiEqpBlwixPO8SqVSvYYWAAAsEdNERK11GIa1PalaR5ZlDQ4ORlFkThmPlsuh4yRxPH3JopRSB4HpFWG66y3E8nZCiCRJHMdpnBWQm5mWlq3ctJJSmL9gHOpWuV4CWJrme4rFnBXbv3//9773PbPcQpIkmUzm5JNPPvXUU//yL//y+uuvr1Qqg4OD3//+9039qtbatu01a9acffbZL37xi8vl8te+9rUoik455ZRrrrnG87x77rnnvvvu6+/vz+fzJ5544saNG6+++uqurq6bbropm81WL/T/0z/903POOWfnzp0/+clPXnjhBa318ccff9lll73iFa+wLOurX/1qOp02J7qmqQ2oUkoVi8VLLrnkjW98Y19f344dO9Lp9GWXXXbKKad84hOfGB4ens+142ble9u2v/Wtb33lK195xSteYbqwclhqYeZ5HkURl5QBALCkmPypJq3naoKfbduu67bMZJCp/zRLrvlCrNu582jL8rWe5rFpIVJSPhoEfVLaWpvIZBaFqXnVQQPGMPN4gyAwT5J6DwcAACwSkwEmL+3XkhFRCFGtr6jE8YYdO46wrGAGEfGBINj7mxGx5vskCAIzx9s4u9p0xDIR0bbtxhkYAABYaCYDHGqCyLKsms+Y1YuZL/11RNQ6EGLZnj2n2fZhZxE9KbeH4W6tU5a1ELOIWmtzhcD4VbAbhNlpUkqlFB2xAABYOkwGCIJgyp+2cET0hVi1e/dJtl2ZQUR8Lgx3C5EWQhzcJzU8I1yNiI15otmcYm7MolkAALBAqr2yxMETi+N/KqVspRPN1VXkhNaRUrn9+39ncNA3a9gdmi3lYBz/OI5N0ZBSqub7xHS/a7S17ZqRkkIpUayIC091X3V6ezEQWou2rPX/7pVf/9HutqwVU50KNKf5vj+ak0ClUumOO+4Yf1Lk1ltvvfbaa0877bSzzz47juNisXjHHXdUazullEEQPPjgg+985zvPPffcH/7wh1EUXX311Y7jfPGLX/zFL35hjqD79u178sknN2/e/Pa3v/3yyy/fvn37gw8+mMvlRkdHL7744nPOOefZZ5/91Kc+NTQ05HmelHLLli3btm3767/+65e//OWPPPLIY4895nne6Oio67rTTxaY8axYseL1r3/9Aw888OlPfzqO4yiKzjrrrL/5m7+57LLLvvKVr8x5usFUpQ4PD3/uc5/76U9/ms/nU6nUHLaDpmPWsu3q6jrUascAAKD1mFVdBwYGJkdHrXUul+vq6grDsDUmgyzL2rNnT7lclkKEWm9IkhdbVkGIaS6VioXICzEqxC+FyAihtU6n011dXUEQ1HCfWJYVRVFjno0zH6A6Oztb4zkAAABmwkTEcrm8FCKiUmr37t2VSkUKEWl9fByfblnFGUTEfiEeOBgRXdft7u6ubUQ0awk3bER0HKezs7PeAwEAAIvHZJ5CoTBlRFyIGbN6MVHHzJdKIUIhVsfx+bY9driImBUiLcTPhJDjzrrWcJ+YaTqt9aFqP+pOKdXe3j6f5bMBAEBzMcFpyrSjtc5kMi0WEfft2/friKj1kUnykhlExJwQUoifH4yItm3X9sI8s80kSQ7VlKzulFIdHR0UpgIAsHSY4DRlkzYzwdhKJ5oty9q7d6+JiJEQ3XH8ksNdi5gI4QmxS4gfCyEO7q6a7xOzMkihUKjVBpemJNEjBWEpGYcib5XXp/rHpNJad6Ss9nRvMt0aNQAaXW0K95VSuVyuWphqWdbo6Oj9999/6qmnLl++XAhh23Y+nx9/1kQp9cwzz+zevXvDhg1SynPOOae7u/vOO+/8+c9/3tHRobU2t8xkMk8++eS3vvWtP//zP3/FK17x6KOPRlGUz+cvvPDCMAy/+c1vjo6OdnZ2mrmA7u7up59+etOmTeeff/7KlSsfeuihnp6el7/85c8999zWrVunqSw1hanHHHOMZVm333671rqjoyNJkkcffXTr1q0nn3yy67pz6+htDm8vvPDCO9/5znK5fM0119x0000Ne3ILNae1jqJoIdrBAwCAxmSO/oeKneYkVsusUlYN7UIIKUQgZVGIkhDTdAJNhFBCBONWMjN7rLb7ZPzAGpDWumWeAwAAYCaWVEQcf1pUCuHPOCKGCxwRzcAadiebiFjvUQAAgMUzfURciDhULyaDjY+I4cwiohDC/83t1HafmCE18iyiECJJkjiOG3yQAACgVkxwOtRlZq0dEWd4olkK4U+aRazhhXlNERHNc6DBBwkAAGpl6UREMelaxGgGEVELEQlR/s2NLMS1iBSDzJN5GpfKVnd3T2HPUJRIP7H9RGmt/diK2LtAk1uojtJJkti2Xf0MnCRJGIZi3Of2Uqm0bNmy7u7uSqUipTzttNOSJNm0aZMpH62+d8dxnM/nH3300X379h199NGrV6/esmXLySefvHLlym3btu3evTuTyZgtCyGiKMrlcj/+8Y9vvfXWsbExx3E6Ojpe//rX33zzzZs3b06lUoe6uCdJknQ6/cQTT7z3ve8dHh5OpVJmmYRUKpXL5YaGhqIomttCU6Z/+vDw8PHHH//2t7993bp1N9100xz2J5qXlLI10h4AAJih6Q/98qBFG8/CmfAopBDq4H/TUONOFla3U9t90vi7t2WeAwAAYIaIiETEw2r8EQIAgNoiIhIRZ6IpBgkAAGqFiDi3iLhwA2tALfMcAAAAM0REnL4wdfINluYsYlOQUqfTqa7ubiX7pTQ9UvXBLwA0sdoUpiZJMjY2ZjqmmmLUbDZ73nnnCSF27NhheqJ6nmc6pkop0+n0UUcdtXHjxs7OzjvuuKNcLq9du7ZSqQwMDEyo/zS3LxaLu3btWrZs2cqVK5966qmVK1cKIXbt2uX7fiaTGX97KWWpVNJa27btOM7evXs/+MEPDg0NZTKZ6RcqMHccGxsz9bSWZQ0NDV144YXLli378Y9/POeFppRSvu+fcMIJH/nIR4QQY2Njs90CAAAAAAAAAAAAAAAAAAAAAAAAACyE8WW9+qAabj9Jkkw646VSSZIIYdVwywDqaL6FqVJK09R048aNSikhRJIk3d3dp5xyypo1a5599tlf/epXr3jFK1avXv3xj3/c3MX3fSFEW1ubUmrTpk3/9V//lU6nPc8bGBgoFApKqQlvXuZX7Nu3TwjheV6SJI7jCCH6+/un7LJt6mNNRWsQBM8995xt2zPpd6qUsizL9DgdHR0966yz/viP//jpp5++6667DlvXOj3Lssrlstn+nDcCAAAAAAAAAAAAAAAAAAAAAAAAADUUH6S1dhwnDEPHcUyZWK3UttIVoo77kz8lDqpBYWoURV1dXX/4h384/vuVSuWBBx742te+5nmebdtjY2PPPfeclFIptX79+q6urueff/6GG27YuXOnlDKXy5nq0yRJpmx1rbWO43j8P4UQjuMc6sbmF5mtpdPpmVfqa62VUkNDQ2eeeea1117b19f37//+72aD83kHrA5p/KMAAAAAAAAAAAAAAAAAAAAAAAAAgHoxtVemRMuyrIGBgUqlUqlUxsbG5llONeG3UNA4H7+uodNaO67o35MbGxnJtdlxrKeqrVuoMWgtbDu3d3dcGBXpjIiiRfvVaEzzLUxNksR13b179375y1+ulsJrrUdHR/fv358kyZo1ayzL2rdv38c//nHHcbTWHR0df/7nf37SSSedc845O3bscF03iqJyudzZ2ZnL5UZGRiZ0N9Va27a9YsUKIUQQBEop03O1t7d3cntVIwiCKIrS6bQZ4cwfjpSyVCpdcsklf/RHf7R79+6PfOQjIyMjqV+3igYAAAAAAAAAAAAAAAAAAAAAAACAFhFF0XXXXbdhw4ZKpWJZlu/7pr9gDXucKqXGxsYqvl/bLqxLhJQySRLP8yzL0lpL246GBrs2P7rngo3J4MAi7lIdCJm23fzD94VJIqWkzhjzLUwVQkgpgyB49tlnLcuqftOyrFQqFQSBeRtSSuVyOcdxhBCFQuH6669/z3vec9lll+3Zs+euu+7SWvf19R133HHLli07cOCAqV+tblxrnc1mjzjiiCAI9uzZk0qldu/enSTJ6tWrPc8bXzJqRrJmzZo3vOENjz766O233z5lS9VpHkixWPz93//917zmNb/61a9uvPHGUqmUyWRoc4qWZF4dM+8nDGD+pJTVl169xwIAwBSIiMDiIyICABocERFYfEREAECDIyICi4+ICABocEREYPEREQEAtaW1XrZs2VFHHVUqlZRSSZIkSZJOp0dGRmp1rBkaGhoeLmut41jHSWK+SDiQzYZlWUqpKIqk1qHjZP/fV47v7Nl28plBkmghhFjovqlaCZEXYv23v5rcdYvOZFWSaK0ty6phW100nRoUpoqDXZvHF6bqg6rfMW9MWut0Oj04OPjtb3/7rW996+/93u89/fTTfX19v/rVr44//viXvvSlTzzxhNbatEKVUiqlBgcHL7zwwmXLlj355JO7du3K5XI7d+584YUXjjzyyA0bNjz22GMdHR1RFAkhbNseHR09/fTTTzjhhCiKfvKTn5imqTP5uKuUKhQKV1xxxWte85rbbrvt+uuvt23bcZxCoaCUcl23JjsKaATmTd/3ffOqFHwuBRaLOa5ZluU4DvELANBQzIEpCAKzyNn4BYAALBx5EBERANCAxkdEM7df7xEBSwWziACAhmUueq7OIlJ4ACwaExGVUo7jmEuq6j0iAAD+h5QyDEMzi8iJZmDRmMZoZhaRiAgAqIkwDCuVin+wo2mSJLZtm1qt+dBa27bVlg337B6T0nOdpDNvW47SWrfnrbRncRCbIa21bdttbW0HDhywlRK2XSmN5T/9f0897bzSiadqy5YLuyu1VpZVGMs8/MvgmccjLyW1Nle/dXR0LOTvRaOrTWGqECJJkgntSQ/VrTSO42w2e//9959zzjlnnHHGJZdc8tWvfvW+++674IILzj333F27dt18881SStu2kyTxff+000573etep7W+9dZbkySxLKtUKt11113r169/7Wtfu2fPnv3793uep7UeGRk56aSTXv7yl8dx/NOf/tSMqlgsuq7ruu40mVtK6fv+unXrXvWqV23ZsmXTpk2nnHKKZVlJkiilfN/fvXt3rXaUqVCv1daA2ZJSRlFkuhmbq595QgKLxky/hmEYRZHneZZlMR8EAGgEEyKiUsq2a/ZREcD0iIgAgMYkpYzj2Pd9ZhGBxVeNiGEYplIpIiIAoEFIKZMkqVQq1VlEIiKwaExEjKIoiiLXdR3HISICABpBNSKa64c50QwsJrOgJBERAFBDJtFVm3JXF9yvycYdR2itUk7y5F7v43d2h5EQQqdc6+EtlZQrEg5iM6O17u3tLRQKlUrFtm1hO4HW4pe3e7/8mVzwdqm/HkDZskQqLbU2K9R0dXW1tbXFcbwIvx2NqQYfAg+7CuahbvDd7373+OOPP//88zdt2vT000/feOON73jHO1772teuXbv2vvvu27t3b1tb24knnnjJJZc4jnPzzTc//PDDmUwmiqJ0On3nnXced9xx55xzzt/93d/9/Oc/f/bZZx3HOe644y6++OJ8Pn/bbbc9/vjjrutmMpnzzz9/69atL7zwwjSZW0oZBMFrXvMa27aPOuqo973vfeN/OjAw8Pd///e1OqcyMjJSLBZrsilgtsxbfxAEZg7IVCCUy+V6jwtYKlzXNdOvcRxXKhXmgwAAjcBkwkqlYlmWOU5FUeT7fr3HBSwVnueNj4jmn0REAEB9mYholsI1s4hhGBIRgUXjOA4REQDQaMzCJeVy2cwiVv9Z73EBS4U50Tx+lcnpF+gHAGBxJElSLpdNT2+uRQQWmeu65gNaHMdBEAghuBYRANDItBaJ1ilPPb299ONf9FmWMt/0HJHyFEewGdJaK6VWrVq1e/duUxakpNTZfCyEFkIKsXA7Uh78FUponSRa6ziO29rali9fTlXqEjffwlQppeM4rutOcwOl1IQbaK1TqdTWrVtvv/32V77ylVdeeeUnPvGJZ5999l/+5V+uvPLKs88+++yzz67eeN++fTfffPM999yTTqeTJBEHK++vv/76YrH4spe97I1vfGP1xr7v//CHP/zud7+bSqV83+/u7n7Tm970ve9975lnnvE871BPd62153l33nnnM888E8fx+FyulBobG5t/lb+U0rwFXHPNNZ2dnVEU1WrlAGDmkiQJgsD0NyiXy319fb7vh2FY73EBS4XjOKlUauXKlel0mvkgAECDSJLE931zuqJUKu3ZsycIAiIisGjMYiWrVq1Kp9NSSlPzQ+EBAKC+tNamKtWyrHK5vG/fvmKxGEVRvccFLBWO4ziOs2LFinw+b3oXCyIiAKDeTES0LMuyLN/3+/r6yuUys4jAojGXZi1btsw0oDCvPmpTAQD1JaWsVCpmFjEMw/7+/kKhYK6GArAIXNdVSi1btqyzs1MIwbWIAICmoLVwHdmZt5RSps7RFKzWe1zNJI7jVCq1fv36ffv2jYyMxHEsZWICwILuRz3u/0II27aXLVvW1dUlhCB+LHFzL0zVWluWVSgUPvKRj5iLVCbfwLbtkZGRj370o2bhzPHPtiRJMpnMT37yk82bN0spTeXqzp07//Vf//Xoo48++uijU6lUHMe7d+9+5plnRkdHM5lM9e7mVydJcsMNN9xxxx3HHHNMPp8XQhQKhc2bN+/cuTOdTgshHMfp7++/7rrrBgYGMpmMKWo91GNxHOfRRx819aITXhVKKbPBWe2cyX1izT8vu+wyIUSlUhl/M16HWATmEmcppWVZxWLx+eefj+PYNFuv99CApSIIgkqlMjY2tm7duvb2dq0180EAgPoaHxHL5fKWLVvCMCQiAovJ9/1KpfLcc88dddRR+XzeXOUpKDwAANRPdaEEpVQYhlu3bjUVCEREYNGYWcRCobBmzZre3l4iIgCg7kxENNdpmIhoKhCIiMCiCYLA9/2xsbG1a9d2d3cLIahNBQDUl5QyDMMkSRzHiaJoy5YtpVKJWURgMZmPadu2bSuVSqtXrxbUpgIAmoTWIk60nljniJmqNk1cuXJlV1dXGIZ1CeGe59m2PU2ZHpaO2RWmmvancRyb2Go+Wz7xxBOTe6JWbx8EweOPPz7lDcxPn3jiCSGE53nV8tRnn332qaeeMrdRSnmel81mJzxfzQsplUrt2rVr27ZtJkObLZgbm+H5vv/UU085jnPYs/Va62mqT2f1ajENXW3bnlysK4Qwl33btl3dsrkKfPptmkeklOLTAubDPN+SJNm9e3ccx1zFAiwy8/6fJMm2bdvWr1/f3t5O31QAQH1preM4NicI+/r6wjAkIgKLzMy0JEmydetWU5saRRGFBwCAOtJaR1Fkygz6+vqCIGDWAlhkZhZRa71z504hxLJly8IwJCICAOrLLHmslNq/f3+5XHZdl0uOgMVkZhG11jt27BBC9PT0CGpTAQD1ZtrAKKUGBgZKpRIREVhk1YjY398vhKA2FQCAJcX0R3Rd1/O8eg0gjuMFqok1RXbm0lZSzWIypYuz3e2z7phqqtrG/9P0Mj3Ub53+Buan4mDlp7lNKpUytZ2/7ias9ZSfV81PJ7yQJtz4sMMbryafiqWUURQVCoVyuTxlYerkX5pOp4vF4vQvyGrlLS8qzJl5IViWZa5yps4ZqAuzyoCpTV23bl1HRwd9UwEAdWfWDDJL2HIwAhZfNSJSmwoAaATVuegkSUqlEpPSQF2Y151lWbt27RJCLFu2jIgIAKg7KWUcx2NjY5ZlUXIALD4TApVSpjaVvqkAgPoyV+qaSxCZRQTqxbzubNueUJtqylR4VQIA0PJmWCu3QBa0U6u5YoEPGotsbqWLsy5MNddKjv/OYU85TH+DyT+d1WvjsDdezDMiSZJ4nrdly5b/7//7/2Z732nWizKvKLNEPS8qzI0pmTaXO1cqFdP0oN6DApYo09NbCLF9+3ZTmxpFEbWpAIDFV42I5oMGxyCgjqqvxAm1qVprIiIAYPFVZxHDMGQWEagvpVS1b6rWmtpUAEBdJEmSJIlZ1Y5jEFB31KYCABqHOeNcqVRokgHUkdbatu29e/eKg7WpYRhKKTnRDAAAmtfk0kUsAlMMPNt7za4w1RReFotF04Z0tr+socRxbBoHz+GBmO60k79vmhGHYVgul2e1QdNleJrC1CAImERGrfBEAhrH9u3b169f397eHscxtakAAABL3OS+qUEQSCkpPAAA1AsHIKARWJZVrU0Nw5DaVAAAAFRrU3t6egS1qQCAeuMABNSdqU3t7+/XWq9Zs0YIwbWIAACgeSVJ4rpusVgkySwmpVSpVHIcZ7Z3nHXHVNu2hRBRFJnlMGd797ozlaiu61577bVzq+U1li1bZupazT8tyxJCnHfeeS960Ytm29rUbCSO40wmI4SYcgX6KIpSqVQz7nAAwKGY9/9t27aZ2lStNfNBAAAAS5lpT2dqU9evX9/W1mb6pgoKDwAAAJY2y7J27dqltV6+fDkREQAAAILaVAAAAExi2/a+ffuEENSmAgCAZmdKF+M4btLSxSYVRVEul5vtDp91YaoQwnXdSqUyh1/WIKIoiuN45cqVU5aAznwjJrIbpldqNpvt6OiY8zbjODZjG/9NKWUYhlJKXk4A0KpMbWpHR0cYhswHAQAALGVaa7PW1bZt26p9U33f11oTEQEAAJYypdSuXbuklMuWLdNaU5sKAACAam1qd3e3oDYVAABgyTN9U6lNBQAArcHzvKYuXWwu8yldnHVhapIkqVRqZGRkfL/Q5vLZz37WsqwkSeazEaWU1npsbEwplUqlHnnkkfe85z1a6/k846WUUso4jidUzJZKpWw2O5/RAgAaVrXwYN26dR0dHXEcB0EgpeSqMgAAgCVrct/UIAiUUixZBQAAsJRZlrVz507TNzUMQ2pTAQAAMLlvqpSSwgMAAIAli9pUAADQGpIkMYWpURTNpyclZkhKWSqVMpnMHO47l46pUkrP88rlcj6fn9DesykMDQ3VKl6b7sBSykqlUiqVarJNU2FsvlZKVSoVU540z0paAEDDMgs9bN++3dSmaq3DMKweCwAAALDUaK1Nber4vqlBEKRSqXoPDQAAAPVkWZbpm9rb22tWuGMWEQAAYImb3DfVsqwm7TQAAACA+TO1qf39/UKI1atXCyHCMFRKUdEBAKgvKQWrJGBWpJSpVMqULlJPt6CUUr7vmwXv5rCr51KYapqmjo2N+b7fjGuomGrSmqg+dtO3pLabNd1Tfd+n9TAALAVSyu3btx999NH5fD4MwyAIPM/j/b+GTGfyeo+iFRDuAQBYBFprKaXWeuvWraY2lYi4EIiItUJEBABg0di2vXPnTqVUd3e31pqIWHNExFohIgIAsGjG16aaiJhKpYiINURErBUiIgAAi0Nr7ThOf3+/UmrVqlXViFjvcbUUImKtEBGBJSKOk8ER6bpzqXnDkmWapgZB4Pu+67pMdi2cJEkqlUo2m53bTp5jiabWOpfLjY6O5vN5pVRz/YEXaLS13awJrIVCIZPJNN0eBgDMgVmPYO/evblcTikVhqHjOExe1IppQh6GYb0H0vSUUplMRixYoAIAAOMppeI43rVr17HHHquUiqLIdd16D6p1EBFrxbKsVCplSqnrPRYAAFqf1loptXfv3vb2dmYRa04pZU5v13sgTU9KmclkiIgAACwaKeWePXtyuZzrukEQJElCRKwVImKtSCnT6TRXwQEAsDhM39T9+/d3dnamUikTES3L4kBcE2ZitlKp1HsgrYBCCWApMCcLgkD29vaOjo6GYaCUVEoKLYQUWvMegEPSWufz+ZGREcuySDILRCk1MjKSTqfnvIfn3jtUSpnL5YrFYiaTsSyLOc1aMZcUaK3HxsZSqdTcOuECAJqO1tqyrFKpVCqVqoV/fOSuCSnlvn37BgcHOaTOn0mAK1assG2bJycAAAvNBELf98vlci6Xi6IoSRKlVL3H1QqIiLVi5gOz2eyqVauYAgYAYHGYK+PHxsY6OzuFEEmSMFFTE0qpoaGh/v5+IuL8maqDlStXsoI1AACLw1wZXygUenp6hBBxHDuOw1F4/pRSg4ODBw4ciKKo3mNpelJKz/NWr15NRAQAYHFIKaMoGh0dNcuHxXFsWVa9B9UKpJQjIyP79u2LoohUM3+e561atSqVSlGKArQ8KYVlWT09PaVSuVgMzMSFFsK2pOMo3lAxjXw+b5o+2rbN8aJWxpcuep7nuu6cz5DOvTDV1M9kMplisZhOp82cEQFr/izLiqKoWCymUinP8zj5DQBLSpIkYRgSmGpIKTU6Orp//37LsqjimD8zs5ZOp3t7e6Mo4rkKAACakVKqXC4fOHBASklEnD8p5ejoqOM4K1euZG4QAIDFobWuziJy/K0JKWW5XN67d68Qgog4f1LKQqEwMDCwatUqnqIAAKBJSSkrlUp/f78gItaCidz79+9fs2YNEREAgEUTBIH5guNvrYRhuHfvXlMVw7Vz82Qi9759+9auXcvOBJYCU3DW051N2d1K2Vpry5IDw5UDg2XbkhypMCVTP5nNZk2RnVnLgGAzf5ZlxXFcKBTmX7o498JUcbA2ta2tbWxsrFKpmPpjylPnxsTTJEkKhUIcx7lczvShrfe4AACLjQ/YNaS1llL6vi+EkFJWI8qcd3Kzh5yaPHCTWGo0IgAAgMVmImKpVBJCmIXfqj+aW1hq0ohYjcfzj4hmCjgIgibdFQAANClmEWtofJ6ZUHIwz4g4fk6y8c1/BnVCRGQWEQAANC+TZyqVChGxthHR9/04jvk4AwDAouGwW0OmbqJcLidJwonm6tdz2MLkWcQm3RUAZstSouiLlx4nrjxdFwOtddKRs794V9dnv7WzI2/FvBPgEKqli4VCwfd9Shfno1q6WCwWwzDM5XKmD+18tjmvwlRxMBnk83nf94vFolLK8zzHcao5g7/09KqrWUdRFARBFEWO42SzWSEEJ2sBAKiJydMfcRzPttunCbUmyDbjMVopJaWc8wO3LGvhxgYAALD4oiiaMGeltQ6CYLZJSSll27Zozmkc0zA2iqLZXgqmtbZtuyYX5AEAADSOyXkmSZL5TKY1aUQ0F5bNJxsDAAC0MK11GIZzuKPjOKJpI6JSihPNAAAAQggp5ZQnmucQEaWUzX6ieQ4RUYx74ACWIKVUkuigXIpLI7Fva53E0koiW3DBCQ5ncumi67qu61K6OENTli62tbXVpFtVbY7rWmvTvLVSqVQqlVKpZNu2OXNJdDgUk03NnzCKIiGE4zg0SgUAYKElSZJKpTo7O2d1wFVKDQ8Pl0ol13U7OzsXbngLZGxszPf9dDo9hwc+MjJSLBY5ZQgAAFrJhNNj5hqp5cuXz2qaUilVKpWGhoZSqVQ+n6/1GBeWaRtbKBSy2WxHR8ccsnG5XJ5QmwoAANBKtNaO46xYsWK2EbFQKIyMjLiu297ebllWE50Il1IWCoVKpWLb9hyycbFYHBkZMUv7LdwgAQAA6m7lypWzuvheShkEwcDAgOM4HR0dE5prNTgpZaVSGRsbc1135cqVs51FLBQKo6OjnGgGAACtZHIUlFKuWrVqthvxfX9gYMDzvI6OjuZaAlhKWS6XC4VCKpWabUSsZmNmEYElSGsZhuGBAyPhykhZjlBKaCmURVUqZi5JElOP6vu+7/vlcpnSxcOqli5qreM4Fr9ZuliTw3HNdr1JFel0Op1Ox3EcBIFpjFsul5srLS0ac8mjuYAvm81WVz2hKhUAgIVj0tXy5ctPPfXUSqUyw5Ri1uB4/PHHn3nmmXQ63d7e3nTxplQqhWG4du3a0047zff9mT9wz/OefvrpzZs3MxkEAABalYmI7e3tZ5111swbQ5lChb6+vvvuu8+yrI6OjgUeZo2ZXqlhGK5YseLkk0+ebTZ+7LHHnn/+ec/ziIgAAKAlmYjY09Mz24joed727dsfeughKWVbW5vjOE2Ul5RSQRAUCoXOzs45ZOM9e/b86le/4sQ/AABoYWYF5NNOO23mJ4u11rZtj46O3nnnnSYiNtdZV7NE3eDg4PLly88666zZnmjetm3bI4880lwPGQAAYOaklHEcZzKZ008/feaBx0TEwcHBe+65R0rZ3t7eXMsBm5VWhoaGVq9efeaZZ84qItq2PTIyctdddy30IAE0FK21UtKxkx079gehlFIKrYXgcyLmwhxwPc9LpVJxHIdhaKorK5VKvYfWoKqli1LKVCq1EKWLNT41aEYmpUyn07XdcmvTWlOPCgDAoonj2Pf9WV1ZZWaRzO2TJGm6wlQhhJQySZLZPnBxsLU7AABAa9Na+74fhuHMk5LWOgxD88+mm9gx4zcpd27ZeKFHCAAAUHdmMm1WEVGMm0wz53Sb6BJ8ExHFvLMxAABAC9Naz3wmTRy8JGz8LGIzRkRONAMAAEzDRMRZFaZOiIgLNrQFMZ+IOP6BA1hSlFIdbfG2OFbSrfdY0AqqByPP85rxkv56WaDSxYVas7bpQhIAAFg65DizusuCjmpxLNkHDgAAcFhLKilVR76UszEAAMBhLamkNH7kS+qBAwAAzMpsk09TJyUiIgAAwEzMNvY0dVIiIgKYm+ZZownNpLroKuqomTq/AwAAAAAAAAAAAAAAAAAAAAAAAAAAoI4oTAUAAAAAAAAAAAAAAAAAAAAAAAAAAMCM2PUeAAAAAAAAAAAAAAAAAAAAAAAAAACgZWkt4ljHidZax7FOtK73iADMC4WpAABgKdJa6xl/mJnVjRvckn3gAAAAhzWHpNQaYYmICAAAcChLNikt2WwMAABwWLOKPa2UlJZsNgYAADisJTuZtmQfOIA501q4juxss62K0lq35620Z/HGADQ1ClMBAMCSI6V0HCdJEinlTG6vtXYcRyll/qmUmuEdG4154FrruT1wAACAFmaSkvliJrc3ScmyLPPPpotM1UyrlJpDNm7SPAwAADArc4uI42cRlVJNdKFVNSLOMxsDAAC0tllNjmmtbdu27V9fodfsEZETzQAAAFMySWmGN54yIi7Y0GpvPhFx/AMHsAQlWqac5Mm93sfv7AojqYVOudYjWyopVyRN80EZwEQc2gEAwBJiZjf6+vrGxsaSJJn5HZVShULBcZw4jgcGBhZuhAtBShlFkeM4/f39mzZtmu0DLxaLtm030flRAACAWdFaW5Y1Ojq6adOmWWUepVSlUrFt20TE5spLUspKpeI4zq5du4aHh+eQjYmIAACghZmIODQ0NIeIWC6XTVIaGhpqrqoDKaXv+7Ztj4yMzDkbL9zwAAAA6k4pFQTBfffdN6tV28y5Wiml1npwcLDpImIQBI7jDA4O3nPPPXPOxgs3QgAAgDrSWptpsXvvvXdWd5RShmGolEqSZHBwcIGGt0DMLKLjOPv3759tRDQPnEWQgSVLa53y1NPbSz/+RZ9lKSGE1sJzRMpTfHAEmhdnBwEAwNKilIqiaA7FpWZxsjiOR0ZGFmJgC8oMfj4PfCFGBQAAUC8TTo9VLwub7XaklJZlRVE0PDxcs8EtFimlbdthGBIRAQAAJpNSzu2yMKWUZVlJkoyOji7EwBaUlNJUSsztgTdXlQUAAMAcSCnnMBNoZhGbOiLOORsziwgAAFrM5OkvKeXQ0NBst1ONiM14LaKJiHEcz/kMO7OIwJKltXAd2Zm3lFJCaCGk1iLhPQFoZhSmAgCAFjflZJDjOHPejmVZNRjW4jKDn+cDn+Y7AAAAzcVxnAnrsM4tKYmD0ahJI6JZxHcOgyciAgCA1lOrWcTqppRSTbf2/3xmEcWkfUhEBAAALWkJziIKIiIAAIAQQgit9eQTzYKIOKe7A1iytBZxorUwbwW8IQBNj8JUAADQskznq3Q6LWp6xqupZ0bmP3ittW2TIQEAQLMyETGTyZgWWOPPGhIR58bsyVQqNXmXAgAANAUTET3PMw0/axUR53/3Opp/RDSziIRDAADQpKonmmsbEZs3H4paRMQ4jlOplNmltRoVAADAojEnQ01E5ESzMf/BJ0liWZaJ3zUZEgAAWGRTFBXogxZ/NJgz/l4AAEwpSZJsNtvT0zM0NFTvsbSCOI7b29s7OzvjOOaqMgAA0KRMFWVvb+/+/fvrPZZWkCRJPp/v6uqacIkeAABAEzGFqcuWLdu3b1+9x9IKkiTJZDI9PT1JktR7LAAAAHNkIuLy5cv7+/vrPZZWYCLi8uXL6z0QAACAuTMdU80sIpfuz5+J3L29vfUeCACgDihdbFKT/2QUpraIGnaBAwCgxWitly9f3t7ezvGxJlzXZYkyAADQ7JIk6e7uzuVypJqa8DyPiAgAAJqd1rqrqyubzVJLOX9aa9d1LcsiIgIAgKaWJElnZ2cmkyEizh8REQAAtADTNLWzszObzcZxXO/htALHcWzbJm8DS4HWVDnhN1C62DJswZ+zVYz/IyZJwh8UAICqJEm4Vr4mzOQauxEAALQAs/wqEXH+iIgAAKBlJEnComw1QUQEAAAtg4hYK0REAADQMpIkcRzHdV2yzTyZiEhVKtDypJRxnAwMq3Q6HUVhvYeDuhlfusgxtKlV/3zmDzqxMFVrbQ7w/Jmby5TVxcyKAgBQxTIcNcE+BAAArYSIWBPsQwAA0EqIiDXBPgQAAK2EiFgT7EMAANBKiIg1wT4Elg7zrtnb21MoFAYHB+s9HNQHpYutYXwKMl9MUZhKA9VmNKFqnD8fAAAAAAAAAAAAAAAAAAAAAAAAgLrr6OgoFotJkliWRdHTUmPKUMfXvlG62IwmFKb+umPqlDfir9tc+JMBAAAAAAAAAAAAAAAAAAAAAAAAmJUkSeI4juNYCCGlnKayzLS7nO32zaaUUvMf6oTNVgdpmnDGcUx1VeOjdLFlTNExtd5DwtxNKDuu72AAAAAAAAAAAAAAAAAAAAAAAAAANLJsNtvR0eG6rtba9/0kSRzHsSxrws2klFEUlUqltra2OI6llGEY1rEW1LZtrbWUUinleV6SJNls1nEcKqoaDaWLrWFCx1QhhK3HEfTDbVoTisX58wEAAAAAAAAAAAAAAAAAAAAAAACYhmVZd9999/PPP1+pVNra2tatWxfHsed5/f39pnvq+BtLKcfGxlasWGH+qbWOomiajUspF2LMpkT2hRdeCILAsqxKpbJ169YkSVzX3bNnD7WpDWVy6SIdU5vUFIWpYqqaRv66TWfKP2J9hwQAmBvewAEAAAAAAABMj1lEAAAAAAAAANNjFhEAMENSyuuuu65YLJZKpZe97GU33HBDuVxOp9NDQ0MTjiZaa8uyDhw40Nvb29HREYahlHKBSk+np7VWSnV3dwdBkE6nN2/efM011yRJEkXRBRdcsG7dOt/36zIwTInSxZYx4Y9oT75FkiRJkvDXBVqJOeiaxSpSqZRlWbzGgcYkpbTtKY7OAADU3PiIqJRSSiVJUu9BAZgan+AAAItJSpkkieM4juMEQcC5OqABjZ9F5EUKAFhoZvJQay2ltCyr3sMBcEjMIgIAFpmpSUilUkEQmMRY7xEBmIhZRADAzGUyGaWUZVnZbNZ1XdMx1XGcybc0h5Vt27adcMIJqVQqDMOZbH8hqhCllK7rCiFc1/U8L5/Pm8JU27ZJpw2O0sUmNflPNrFjKv1wm9Tk2vH6jgcNyFQdmEvKUqlUoVDgcAs0lPGvUOqCAACLw8wQaa0dx0mn08PDw0REoKGYiGjbdjUicr4QALDQqhHRsqxMJlOpVIiIQEMxqwuZV6iJiFz3CQBYHOYAlM1mx8bGXNflZBbQOCZHRGYRAQALTUppZiSUUqlUihPNQGOSUmazWXN5uVKq3sMBADS6ZJzpK8vMRESlUnnyySePPPLIrq6umZyuMpcp1vyQNH6o48df29+C+ahehEDpYguYXLo4RWFqHceHOau+UM0/eX1iSkqpOI5d1129evXzzz8fRREfNYHGYULwypUrLcuK47i6+HS9xwUAaGWmxUGSJEqp5cuXj42NERGBhlKNiI7jmJcnEREAsNCqEVEIsWrVqlKpVC6X6YsFNA5zNn3VqlWpVIqICABYNLZth2GYJElPT8/w8HClUiEiAo2jGhEzmUwUReZjHRERALDQLMsyEbG3t3dsbKxYLBIRgYYSRVFPT08ul4vjmIgIAKg5U5sahuFzzz3X1tbW2dlZbdM9/V3GxsZYUWtponSxZUwoXZzilU/ZcZPiT4bpaa1d1y2Xy1EUZbPZo48+ur+/v1wua605tAP1ZRYk8zyvp6envb3dnDhMpVJmadt6jw4A0Mq01p7nlUqlJEkymcyGDRtMREyShIgI1Fc1InZ3d3d2dsZxnCSJ53nkQwDAQhsfER3HOeqoo/bu3VssFomIQINwXberq6urq8vMInqeV+8RAQBan2llEEVRkiSu665fv37fvn3mvDMREWgErut2dnb29PSYiOg4DieaAQALzVyLGEVRHMdmFnHPnj2lUsnUv9V7dACEbdsdHR29vb1CCPM6JSICAGrO1KFIKUdGRoaHh2eSA80FUSyXAIPSxdYwRcdUClOb14R+uMAESinXdX3fF0KY2tQgCOo9KAC/ZmZ/4jg2M0FkbgDA4pBSep7n+77WOpPJHHXUUWEYcgwCGoGU0nEcIUQcx1EUOY5j2zYvTwDAIjAR0XTB8jxv3bp1RESgcYyfRbRtm4gIAFgc1YgohEin0+vWrTNFCFQdAI1gfEQ0l4UQEQEAiyOVSpXLZSGEbdtERKCh2LatlEqSJIoiIiIAYKEdtlfqeBySlixKF1vD+L+a+cKe8Ofkj9q8Jvx1+XiPycxatlJK3/dNi4NZhQAACyqKIvM27jgOM0EAgEWjtTaZsBoRlVJ8mgAahGlFIoRwXZeICABYNCYiplKpIAjCMCQiAg0ljmMTEZlFBAAsJq21ZVmpVMr3/SAIlFJKKbOiFoC6i+PYXDJk2zYREQCwaEy3KxMRoygys4hERKBBJEliJhKZRQQALII6Hmg4i91EqqWLNHJvahNKF7XWv9ExlT9ts6NjKg7LnIqwLCsIArMYEmXMQN2Zl6FSyrIsx3GUUryNAwAWUzUihmFollSv94gA/JqU0rIs13WJiACARUZEBBqWiYiO41iWRUQEACwmU5uaTqdNREySxKxzV+9xAUudKQoyhUBERADAIjMRMZPJBEFgZhG5FhFoEOZyRM/ziIgAgDmQUlZDnVkvtTErCaWUJoLWeyA4vPF1i+ZJheZVfdGZPyXNEoElx7wLeJ4nqGEGGolJ8KwTAQCoC3P0cV1XEBGBRkJEBADUERERaExERABAHRERgcZERAQA1BEREWhM1WoiXpgAgNmSUlYqlSAIlFJRFK1YsaK9vf3AgQPpdHrKherMsWaBVic51MbNOsuVSmXt2rWe5wVBsBC/HQuEfNJibCFEkiTV2Un+wM1r/N+OdadwWLzYgUbDqxIAUHccjIBGw6sSAFB3HIyARsOrEgBQdxyMgEbDqxIAUHccjIBGw6sSADA3WmvP855//vl9+/atWrWqUql0d3e/6U1v+uhHPzoyMjLlXUwz1YWoYNJaK6WmPKhJKcMwPPbYY9/whjcEQaC1dl33iSeeGBsba29vj6KotiNBTVQ7pgqySpOr/vnMH5SOqQAAAAAAAAAAAAAAAAAAAAAAAACwRGmtHcfZv3//bbfd9ra3va1UKpXL5Ve96lWrVq268847fd+fUH0qpfR937Zt27ZrXmpoNq6UsixrwvejKFq5cuVll122cuXKUqlkWVa5XP72t799qEJWAAvHFpQdt5AJZcf1HQwAAAAAAAAA/P/t3cuPHFfd//FzTlV1VXX39IydGHsSx1jGAXIhsWOBcbJBslhFyBJixZJlxF8AS9giJAQICYl/APhJ7GABEjskbr8g8fOTCxKBJ09wYnsufavrOc/ii/vX9HT3jO3urpqe92sRTXp62qe7Zno+c6o+5wAAAAAAAAAAAAAAgPqz1jabze9973vXrl175ZVXdnZ2nHPXr1+/cePGREdJWqzvv//+1tbWwvcplU1Q33vvvXa73W63rbUTdzDGJEkyGAystWfOnPn+97//u9/9rtPpHLwnaoLq4noYP3byMcXU9XHw6AIAAAAAAAAAAAAAAAAAAAAAAADAfM453/f39/e/8Y1v/PjHPz5//ny3293f3596zyAIut2u7/vGmLIsFzuMIAj6/X5ZlmVZTq2baq193z916tRvf/vbH/zgB3EcU6SqM6qLa2NiT03fjal2ZHh8o4NorZ3YrhoAAAAAAAAAAAAAAAAAAAAAAAAAxo3Xkdrt9ltvvfWVr3zlW9/61he/+EVjzMFqqGxq2u12tdbGmMVW0pxzxhjP87a2tqbumKoebJr63e9+94c//KG11vd955zWeoHDwAJRTF0PzjlrrfygzdwxlZ/DY2q8XSwfa635cQUAAMBqOKWsUk6pOQF0dB8AAACcBEREAAAATCAiAgAAYAIREQAAAAcREVdJtidtt9v9ft/zPOdcWZZxHN+9e/eNN974whe+cP369UuXLhVFMVE301rnef7qq68uo7hkjEnT9Ne//nWz2Zwopsq/++abb/7hD3/4/e9/H0WRDHv8GS18PHhM7Km5NiZ3TK12NFgsesV1I2s/VD0KAACwOrJK06xIZh5Yj8w28UQCpWKlrFJz0o9VKlYqGLtF8tJiXxN5tDr/+bo23wMAAOAoTlRE1FqPP5GGUrFSrgYRcWJgdcMsIgAAJ838iLiMOFSViWfqlPKVipUqjxARG2O3LPw1mX8IakKecp3nOQEAwAJJPpk1R7TeETF4jIi4vIHVExERAIAT5eRERHXggjpzhGsRnVINpcKxW5Z0LeJJOJPrnPM8r91u/+tf/xrdaK0Nw9A596tf/eqXv/yl70+2z4wx/X7/2rVrN2/enLqj6WMOyff93d3dN954IwiCqRk4yzLp007UHY0xjUaD2AysxpQdU6seEh7deO242pFAKaW1zrKs2+0u/LcsAACoM9/38zw/OLWhtR4Oh91utyzLSga2WHJlv6yAJU2DD5y7bW3i3JxJHatUU+s71hrPc0pprdM07Xa7RVEscGzGmCzLGo3G4XddOa21tbbb7XK+EACAE8X3/TRNp0bEwWDg+/7aRESlVFmW8oHR+r+dC61NjxARP3LOaO0erGy68IgoDxuG4eF3XTnJ1d1ut+arqwAAgMWaExGXMWNWIc/zZL5UWqn3lLpt7XBuRHRKhVr/01q9zIhojEmSxPO8BT7mAjnner2e7/tERAAATg7P8waDwcHb1z4ifujcoRHRKhVr/b61xhiJiGVZLvzCPNmR6eAF9zVhre31ehM7QQEAgPXmed5wOJw6iygzZmtzonniWsSuUretTZSaP4sYaP3Rg0A4Ouu62NfEGDM1pa8fa+329vbf/va3iRuVUp1OR03rKElld6ln4bXWzWZzVjG11Wo558b/KJC/FDY2Nk6fPn1wf1dUi+riGpDLWiaqixRT18fE0eVQVq4sS5kMqnogAABgdWSVsoN/0Eo2k+uc1iOnjdZjk9wZaf3/zp//r8Muk3LOGc8b9nrhhx/KfFKapr1eb9ReWBRrbVEUQRAcftfVKsvSOTccDqseCAAAWB1ZWzTLsoO3K6UkDq1TRJRc55SKPO//PvXUXw4LwPL69Pb3w7t3JSLKOVRr7TIiYt0WRpUTY9baE3I6EwAACIlAeZ5P/WyWZcuYMauERMR/BzCtQ6X+ce7cv+L40Eimtc7StPHBB+7BcsBLmkV0ztVthTtZ264syzRN0zStejgAAGB1tNZJkkz91JJOqlZCwvC//0frSOu/Pf30e2GoDj3RbEw6HIZ37ozWLlnGhXmjWcSFP/JjstZaa2d9hwAAgHU1iogH59PKsuz1egs/qVqJiYjYKMv7Tz75fzY2jvLsbFl6//M/zjk58bqMk+8T1ce1JAH73LlzFy9efPfdd+M4Hv/srKc/eqllonWxQ5IAPKq5TX18uXH8m0Ty/IsvvjhrgxlUxY1RVBePuYnq4mQxFcfXwdoxKuScy/M8jmP2wgIA4ESRKRJZCOqgIAjCMFybSQrP8zqdzv7+vrU2juN2HJsjbPGktY47nb379+XP/maz2Wg0FvuaaK2DIBgMBlEULfBhH59MFEZRxEYHAACcKM453/dnrbK/lhFRLpJrtVobcayPMFeptW5sbu7v7EhEbLfbC39NJCIOh8MgCOpz8mlUTo7jeG2WsAEAAEcxPyL6vh+G4dqs5m6M2dzc3N3dzfPc9/2N2cvbj9Naq0aju7PT7/dlFjEMw4Xv/6C1luy62Id9TLKcXxiGR3mhAADAOpEVkKd+ai0j4t7eXp7nQRB0ms2jTI5prZtBsL+zI5uGtdvtKIqWMbPa7/frNmFLRAQA4MQyxhxcAXn0KZkxW5uIeOrUqX6/L6eMN1qt5tFOGXue12+1dnd3lVJRFEVRtIxZxMFgsDZpfBZp9r700ktlWf7zn/88SsXMGJMkSVEUsnPpYsdjrZUrB5IkOWIM1lo3Go1r165tb2/TSq0hiqnrYfqOqQAWyxiTpqnv+7KcbdXDAQAAqzP/r/E1WxFGJhS2t7ezLOt0OkqpsizVYX/MO2uNMdvb271eLwzDOI4XPmUj658FQZCmaX0mF0YR0fM8IiIAACfK/BC4fhFxY2Pj3LlzeZ5vbm7+e+3YI0REz/O2t7f7/X4URZ1OZ+EnCyUiNhoNiYg1ecGNMXmeG2OMMUREAABOlBMVEcuyDMNwe3s7SZJWq+X5fnGUq+Ws1cacPXt2b28vCIKNjY1ZJY3H4ZwLwzDLsprMIkpqla10fd8nIgIAcNKcnIhYFEUcx9vb22mattttbcxRTjSPImK32200Gpubm8tYYURrLde+z1qNesWcc0ZeHyIiAAAn0lEuR1zleJanKIpms/n000/LKWNZluXwiKiUK8snn3xSlife3Nxc3izi0euRx5e11vO8z33uc5cuXbp3796hF3ZqrbMs+9jHPvab3/xm4a+Mc67RaPzjH//4zGc+c5Rwbq1ttVpnzpzpdDr1mfIFTgLfjal6MHhc7JhaB7JWhPwi5EAAAIC1t7W1JYtxOOeOMhMkNYA4jmWVLGvtMqYAJIylaVqfNeHKsiyKIgxDIiIAAFh7p06deoSI2Gq12u32v7usSyD7khVFUZ+I6JzL85yICAAA1p5zrtPpjBYuOVIY01qm+M6ePbu8iKgeXNxfq+XzsyyLooiICAAA1pjMB25ubj7ULKJExCiKms3msmcRy7KsT0R0zqVpyrWIAABgvUky/I9TxkcLY5Lfzpw5o2RfjeUwxsg+GTVZvmRJJKgXRXHmzJmzZ88e8avKsvzpT3+6jPHIwX355ZePfv+yLGml1hbVxbUxXl10zrFjKrBgxpiiKKIoqnogAACgAs45b8z4X1Baa7lxzf7olb8rtNYPNecy+vPS87ylDU3FcdztduswGeR5XlEUUuKteiwAAGDViIgP9VVqyRGx2Wzu7OzUJyKGYTjxXQEAAE6CWRFRrvsZ3bhOKfHRwt7KZhH7/T4REQAAVM4YI1FwPJmsfUSs7Sxiv99f6j9xRJ7nlWUZRRHFVAAATqZZEVEpJbeP/nc9PHLYW0FEjKIoSZLlPX59aK3zPH+oL2m1WksajKzS8lBfsk4/EcCx4Ctqx+ti/CByQCshr3m3293d3W232w/7+xgAAKwBOSm4u7u7u7s7cfGQtbbZbFprl7e6Pyb4vr+/v7+3t1f1QNTu7u7e3l6r1SIiAgBwAskqnru7uzs7O77vT0TEjY2NoiiIiCvjeV6v17t//37VA1GDweD+/ftERAAATqZZEVFrXRRFEARBEBRFwQU0q+F5Xr/fv3fvXtUDUf1+n4gIAMBJZozp9/sTq6pJRJSlK4iIK+P7frfbrcMsYpZld+/e9X1/MBhUPRYAAFABY8z+/v7BiFiWpXMujuOyLImIq2GMSZLk7t27J+EFf9jnuNQLHk7CC35CUF1cD6ODKAtpKYqpa0PebceLqZUO54SSo/D888/funWr3W5zQSEAACeT1jpJkizLJv4elpmgIAiIaitjjOn1ei+//LKqbnpC/t0rV64451qtFhERAICTSWudZVmSJAcjYrPZnGirYqnkWJw9e7baMSilLly4cOvWrU6nU5ZlhYMBAABVmRMRwzAMw5CIuDLGmOFwePHixaoHoj7xiU8QEQEAOMmkgzoYDA5GRDbMXDFjzGAw+PSnP13hGOTb4PTp07du3ZIlsCscDAAAqIrsXTkcDg9GxEajEUUREXFlJK5vbGzQkwQeDdXFtSEHcXRAJ4upvEseX+yYWjnZ/P3mzZs3b96seiwAAAD4D+OLxq3+33399ddff/31SgYAAACAWaqaDJeIePXq1atXr1YyAAAAAEzlnKsqIsqJ5hs3bty4caOSAQAAAGCWaldAvnjx4je/+c1KBgAAAICpZFE5ilfAw6KYuh5GB3H0gV/1kIB1w/q1AAAAdSPXdVWoKAqmogAAAGql8ojILCIAAECtaK0rn8FjFhEAAKBWtNZVLX88QkQEAAAAANSZr5QqH1DV7SOEx+ecK8tSpiGstfTIq2KMYTIIAACgPuoQjI0x/KkFAABQH3WIiHW4rA0AAADjKk+JWuvK108BAABArRARAQAA6oYFiIFHIH03Y4zMw1O5Or5G1UX5wFrrK6WCIAiCYHQRTOWnW/AInHPGmCAIRsVUrmo6itFm0PYAN6bqYQIAAGB1iIgAAACYQEQEAADAhPEcOCclVj1MAAAArA4REQAAALO4GaoeF7AiWmupLvJtf6yNVxflmHqe5xtjms1ms9mU4r61tigK3/erHi0egta6KIogCMIwlFvkYPMTe6gwDOM4DsOw2WzGcdxqteQHY7TrqTEmDEP5mZn1IPqBFQ4cAAAAD21+bJNPGWOiKIqiKI7jUURsNBq+78uup8453/cPjYijB1zOUwEAAMBiHHFmT2YRgyBotVpRFLVarTAMZapd1gfUWo8i4qETiQt+DgAAAFgoPWbOfcIwlIlEmUVsNptRFGVZJhFR/ktEBAAAWA+HRkT5VKPRiOPY8zzJhzKXKBHR8zzZT0YpJXGRiAgAAHCsHTEiGmPkykOp5DUajUajIfWfoijKsszzXPYeXPH4gRXTWjebzVExlericSTvXb7vNxoN+V95c/PVWPle7loURZUjxSPJ83z8ILJ8wqG01mVZ3r59+/3335cfDOF5XpZleZ5nWZZlWVEUOzs7WZbNf6iiKObfBwAAAJXLsixNU1mM9uBntdbW2n6//9e//jWKotE0kLRSR/kwy7KyLO/duydTQnNStzEmTVNiOQAAQJ1JRJyf65RS77zzzkcffSSziLI+oO/7RVGkaSpziXmeDwaD4XA4f3Zday0TuYt+HgAAAFiYPM/TNPV931o76z7GmLfffvuDDz4Yv54sCAI5azw60dzr9ZIkmfM4Sinf92XScglPBQAAAIshs4ie582KbXIB4d///vckSWSBkomIODrdnOd5t9udf66ZiAgAAFB/Moso04BT76C1zrKs2+1+9NFHUsmT1ZCjKMrzPEmSJEnSNB0Oh2mapmkaRdGKnwKwYhPVxTzP+bY/doqiOFhdnKwXS1tP3tcoNx4LxhiZvJC1+XEUzjlrbRzHX/va15rNpnyfy41yh9HaFfJBEASHPqDnefJQ/NQAAADUisSzRqPxox/9KM/z+auLOefyPFdjS72M0t14RJSVzA79p621ly5dmngcAAAAVE6yWavV+slPfnKUBWjzPJeZwzkR8SiziPK1Fy5cICICAADUkMSzb3/72/1+/9CT7+MrR4+fIx7Ph0eJiNJheOaZZ5xzo020AAAAUCvf+c53hsPhoRFR9rySj2dFRKVUEATzJyQlIn784x8nIgIAANSQJLSvf/3rX/3qV33fn5/WZm2pOrrRWmuM+dnPfvbOO+/EcbyUEQP1IxvJJEkSxzElrGPBGFOW5dTq4pRrqUcb+wRBIG+UHON6kuOaJMmsVqoxhnWzppI00Gg0rl+/7nnewh98sQ8IAACAxyHxzPO8T33qU9WOAQAAADUxugLsueeeq3YMAAAAqA9JaJcuXap2AAAAAKiby5cvV/VPExEBAADqRhLa+fPnz58/v6jHfOKJJ27fvs2iJMeXbHYyq4cMeXEO3phlmVKK6mLNjVcXp95hSjFVmsdBEDSbzZ2dnUajIat4cpjrYLR6VlmWvV6v0+kEQZAkied5E0fHWjsYDDhkU42+yXu93sbGhiwtlmXZe++99zgPy6a1AAAAdVbJoi1ERAAAgDojIgIAAGBCJddFEBEBAADqjIgIAACACUePiAf7eNbaCxcuRFGklCrL0vO8oigoNB5rRVEMBgOpKVU9ljrK8zzLsolvcnm5fN9vtVr379+nulgr49XFfr/fbrdnVRfVrGJqnueXLl360pe+9Kc//enPf/7z3bt3Pc/zfd/zPDrcFXLOlWVZFEVRFO12+/Of//xrr732l7/85Re/+EWz2Rw/ulKz3NnZ4WBNpbUuiqLVanmeJ/vKGmP6/f7t27c7nQ6/DAAAAAAAAAAAAAAAAAAAAAAAALAonuft7e11Op2nnnrKOWeMmbqZJI6XNE13dnaKoqCLNEuSJLIt6ugWqS5euHDhy1/+8ptvvvnHP/7x7t27xhiqi5Ubry62Wq3Pfvazr7322ltvvfXzn/984iCKKcVUYa2N4/jVV1+9cuXKu++++/bbb3/44Ye9Xi/LsqIolvwsMIV0g9vt9tbW1rPPPvvss8+ePn3a9/0571wsmjXLaKfsiRu3tra2trbKsqxqYAAAAAAAAAAAAAAAAAAAAAAAAFgz0rij6bNmRgUlupRTzXllrLVRFF2/fv2ll14aVRe73S7Vxap4nud5nlQXL1++/MlPfvKJJ56Y2kcdmV5Mlea953mDwSCKomvXrl29ejVN0729vW63e+fOHd4HV8xau7W1dfr06Y2NjWaz6ft+lmVpmgZB4Hle1aNbH7LgBPs+AwAAAAAAAAAAAAAAAAAAAAAAYFGksVL1KIC60Fp7njccDsMwfOWVV65cuSLVxV6vd+fOHYq+K2at3dzcPH36dKfTieM4CAKpLvq+P6dqN3PHVK217/tBEGitsyxTSgVBcO7cuaeeeur555+nubdiWuuyLK218t80TbXWjUZDDlDVo1sfo+95XlUAAAAAAAAAAAAAAAAAAAAAAAAshOd5QRBUPQqgLqS62Gg0lFKj6uLZs2e3t7efe+45qosrprWW3uLB6uKcRv3MYqp6sAHr+Bdba621eZ4vcuA4GqlKji+QYK2VA8QP26LIr3mKqQAAAAAAAAAAAAAAAAAAAAAAAFgUz/N8f16NCzhRZMdUz/PGO1zOubIsi6KocGAn1tTqouyYOutLDtkxdf4Xo1qjYmrVA1kf7JgKAAAAAAAAAAAAAAAAAAAAAACABXLOSUur6oEAteCck+piWZZ0uGrrsYqp5oHljA0L4Pv+rB8/5xw7qc5hrT34+kgxVT0oeQMAAAAAAAAAAAAAAAAAAAAAAACPwzkXBAHF1PXjxlQ9lpqa88pIb5EOV53JAZp1EKe/o0ntOAiCPM8pptbWobVj3tTmmPqm73kexVQAAAAAAAAAAAAAAAAAAAAAAAAsihRTPc+reiBYPIqpj4YdU+vPWhsEwSPumCqbRFNMrS0pps6pHeOhyK95iqkAAAAAAAAAAAAAAAAAAAAAAABYlFFjhboKICim1t+he2pSTD3GDj26eFjsmAoAAAAAAAAAAAAAAAAAAAAAAIAFGt9KDYCgmFpzh1YX6TQC/x/vZQAAAAAAAAAAAAAAAAAAAAAAAAAAzDFzx1TnXFEURVGwIWdtWWuLorDWVj2Q9VE8QEMVAAAAAAAAAAAAAAAAAAAAAAAAj885p7UuiqLqgQA1Qoer5g6tLh5STC3L0jm3nLHhcVlr5QDxE7goRVFkWZbnOS8pAAAAAAAAAAAAAAAAAAAAAAAAHp9zzjmX53nVAwHqwjlXlmVZlnS4ausRi6laa3ZMrT9rbZ7n7Ji6KLL4BG17AAAAAAAAAAAAAAAAAAAAAAAALIrsGlgUBdsHAmJUXaTDVVuPtWOq1I55y6ut0Y6pVQ9kfZRlmec5O6YCAAAAAAAAAAAAAAAAAAAAAABgIWTH1KIoqh4IUCPsmFpzo+rirGNEMfUYk6PLjqkLVBRFlmW07QEAAAAAAAAAAAAAAAAAAAAAALBAFFOBkVF1kQ5XbR1aXZxZTFVKyX64xpglDAwLIPvhzqkd42EVD/CSAgAAAAAAAAAAAAAAAAAAAAAAYCHYMRUY0VrLTwQdrjqT6uKjFFPl6LIhZ50denTxsIqiyPO8LMuqBwIAAAAAAAAAAAAAAAAAAAAAAIA1ISWgqkcB1AXF1Pqz1uZ5Pq+YqsfITVpr2SWV/XBrbnzH1PEjKA7egpGpr5hSqixLiqkAAAAAAAAAAAAAAAAAAAAAAABYoKnF1IOtLtTWnPYWR3CWqa/P6BaqizVnrS3L0jlnjJkonwo/z/MkSaIoGr27GWOSJEnTNM/zLMs4urVlrQ2CIMuyJEmMMRP94zRNqxpY/Wmti6Lwfd85N7rROZemaZqmbEILAAAAAAAAAAAAAAAAAAAAAACARfE8L03T8RqLUirP8zRNwzCkyVJ/cgQn2sXS6gqCgE3yptJaJ0ni+75soimoLh4X49VFrfXobUoOa5qm/rlz51544YVWqzX+uSzLnn766eFwmOd5dYPHIZxzg8Hg1KlTL774YhAEE7+cyrL0fb+qsdVfWZatVmv8JWo0Glrr4XBY4agAAAAAAAAAAAAAAAAAAAAAAACwZrTWzrlGozH6X6XUuXPnzp8/P97qQm0ZY1qt1tbWlnpw+JRSFy9e3NnZaTabE60ujBRFIfttjm6R6uIzzzyTJAnVxTqT6uLm5uYLL7wwXl3UWqdpevny5f8FXE+GKxvQkrgAAAAASUVORK5CYII=;strokeColor=none;points=[];labelBackgroundColor=none;rounded=0;html=1;whiteSpace=wrap;" parent="6eo6OXU-UzH0dI5WJR4X-10" vertex="1">
          <mxGeometry width="1078.3063820796626" height="96.0980297551589" as="geometry" />
        </mxCell>
        <mxCell id="6eo6OXU-UzH0dI5WJR4X-11" value="&lt;p style=&quot;line-height: 90%;&quot;&gt;1&lt;/p&gt;" style="text;html=1;strokeColor=none;fillColor=none;align=center;verticalAlign=middle;whiteSpace=wrap;rounded=0;fontColor=#ffffff;fontStyle=1" vertex="1" parent="6eo6OXU-UzH0dI5WJR4X-10">
          <mxGeometry x="140" y="13" width="24" height="14" as="geometry" />
        </mxCell>
        <mxCell id="6eo6OXU-UzH0dI5WJR4X-12" value="&lt;p style=&quot;line-height: 90%;&quot;&gt;2&lt;/p&gt;" style="text;html=1;strokeColor=none;fillColor=none;align=center;verticalAlign=middle;whiteSpace=wrap;rounded=0;fontColor=#ffffff;fontStyle=1" vertex="1" parent="6eo6OXU-UzH0dI5WJR4X-10">
          <mxGeometry x="140" y="33" width="24" height="14" as="geometry" />
        </mxCell>
        <mxCell id="6eo6OXU-UzH0dI5WJR4X-13" value="&lt;p style=&quot;line-height: 90%;&quot;&gt;3&lt;/p&gt;" style="text;html=1;strokeColor=none;fillColor=none;align=center;verticalAlign=middle;whiteSpace=wrap;rounded=0;fontColor=#ffffff;fontStyle=1" vertex="1" parent="6eo6OXU-UzH0dI5WJR4X-10">
          <mxGeometry x="140" y="53.64" width="24" height="14" as="geometry" />
        </mxCell>
        <mxCell id="6eo6OXU-UzH0dI5WJR4X-21" value="&lt;p style=&quot;line-height: 90%;&quot;&gt;4&lt;/p&gt;" style="text;html=1;strokeColor=none;fillColor=none;align=center;verticalAlign=middle;whiteSpace=wrap;rounded=0;fontColor=#ffffff;fontStyle=1" vertex="1" parent="6eo6OXU-UzH0dI5WJR4X-10">
          <mxGeometry x="140" y="74" width="24" height="14" as="geometry" />
        </mxCell>
        <mxCell id="6eo6OXU-UzH0dI5WJR4X-22" value="&lt;p style=&quot;line-height: 90%;&quot;&gt;5&lt;/p&gt;" style="text;html=1;strokeColor=none;fillColor=none;align=center;verticalAlign=middle;whiteSpace=wrap;rounded=0;fontColor=#ffffff;fontStyle=1" vertex="1" parent="6eo6OXU-UzH0dI5WJR4X-10">
          <mxGeometry x="326.99" y="13" width="24" height="14" as="geometry" />
        </mxCell>
        <mxCell id="6eo6OXU-UzH0dI5WJR4X-23" value="&lt;p style=&quot;line-height: 90%;&quot;&gt;6&lt;/p&gt;" style="text;html=1;strokeColor=none;fillColor=none;align=center;verticalAlign=middle;whiteSpace=wrap;rounded=0;fontColor=#ffffff;fontStyle=1" vertex="1" parent="6eo6OXU-UzH0dI5WJR4X-10">
          <mxGeometry x="326.99" y="33" width="24" height="14" as="geometry" />
        </mxCell>
        <mxCell id="6eo6OXU-UzH0dI5WJR4X-24" value="&lt;p style=&quot;line-height: 90%;&quot;&gt;7&lt;/p&gt;" style="text;html=1;strokeColor=none;fillColor=none;align=center;verticalAlign=middle;whiteSpace=wrap;rounded=0;fontColor=#ffffff;fontStyle=1" vertex="1" parent="6eo6OXU-UzH0dI5WJR4X-10">
          <mxGeometry x="326.99" y="53.64" width="24" height="14" as="geometry" />
        </mxCell>
        <mxCell id="6eo6OXU-UzH0dI5WJR4X-25" value="&lt;p style=&quot;line-height: 90%;&quot;&gt;8&lt;/p&gt;" style="text;html=1;strokeColor=none;fillColor=none;align=center;verticalAlign=middle;whiteSpace=wrap;rounded=0;fontColor=#ffffff;fontStyle=1" vertex="1" parent="6eo6OXU-UzH0dI5WJR4X-10">
          <mxGeometry x="326.99" y="74" width="24" height="14" as="geometry" />
        </mxCell>
        <mxCell id="6eo6OXU-UzH0dI5WJR4X-26" value="&lt;p style=&quot;line-height: 90%;&quot;&gt;9&lt;/p&gt;" style="text;html=1;strokeColor=none;fillColor=none;align=center;verticalAlign=middle;whiteSpace=wrap;rounded=0;fontColor=#ffffff;fontStyle=1" vertex="1" parent="6eo6OXU-UzH0dI5WJR4X-10">
          <mxGeometry x="512.99" y="13" width="24" height="14" as="geometry" />
        </mxCell>
        <mxCell id="6eo6OXU-UzH0dI5WJR4X-27" value="&lt;p style=&quot;line-height: 90%;&quot;&gt;10&lt;/p&gt;" style="text;html=1;strokeColor=none;fillColor=none;align=center;verticalAlign=middle;whiteSpace=wrap;rounded=0;fontColor=#ffffff;fontStyle=1" vertex="1" parent="6eo6OXU-UzH0dI5WJR4X-10">
          <mxGeometry x="512.99" y="33" width="24" height="14" as="geometry" />
        </mxCell>
        <mxCell id="6eo6OXU-UzH0dI5WJR4X-28" value="&lt;p style=&quot;line-height: 90%;&quot;&gt;11&lt;/p&gt;" style="text;html=1;strokeColor=none;fillColor=none;align=center;verticalAlign=middle;whiteSpace=wrap;rounded=0;fontColor=#ffffff;fontStyle=1" vertex="1" parent="6eo6OXU-UzH0dI5WJR4X-10">
          <mxGeometry x="512.99" y="53.64" width="24" height="14" as="geometry" />
        </mxCell>
        <mxCell id="6eo6OXU-UzH0dI5WJR4X-29" value="&lt;p style=&quot;line-height: 90%;&quot;&gt;12&lt;/p&gt;" style="text;html=1;strokeColor=none;fillColor=none;align=center;verticalAlign=middle;whiteSpace=wrap;rounded=0;fontColor=#ffffff;fontStyle=1" vertex="1" parent="6eo6OXU-UzH0dI5WJR4X-10">
          <mxGeometry x="512.99" y="74" width="24" height="14" as="geometry" />
        </mxCell>
        <mxCell id="6eo6OXU-UzH0dI5WJR4X-30" value="&lt;p style=&quot;line-height: 90%;&quot;&gt;13&lt;/p&gt;" style="text;html=1;strokeColor=none;fillColor=none;align=center;verticalAlign=middle;whiteSpace=wrap;rounded=0;fontColor=#ffffff;fontStyle=1" vertex="1" parent="6eo6OXU-UzH0dI5WJR4X-10">
          <mxGeometry x="699.99" y="13" width="24" height="14" as="geometry" />
        </mxCell>
        <mxCell id="6eo6OXU-UzH0dI5WJR4X-31" value="&lt;p style=&quot;line-height: 90%;&quot;&gt;14&lt;/p&gt;" style="text;html=1;strokeColor=none;fillColor=none;align=center;verticalAlign=middle;whiteSpace=wrap;rounded=0;fontColor=#ffffff;fontStyle=1" vertex="1" parent="6eo6OXU-UzH0dI5WJR4X-10">
          <mxGeometry x="699.99" y="33" width="24" height="14" as="geometry" />
        </mxCell>
        <mxCell id="6eo6OXU-UzH0dI5WJR4X-32" value="&lt;p style=&quot;line-height: 90%;&quot;&gt;15&lt;/p&gt;" style="text;html=1;strokeColor=none;fillColor=none;align=center;verticalAlign=middle;whiteSpace=wrap;rounded=0;fontColor=#ffffff;fontStyle=1" vertex="1" parent="6eo6OXU-UzH0dI5WJR4X-10">
          <mxGeometry x="699.99" y="53.64" width="24" height="14" as="geometry" />
        </mxCell>
        <mxCell id="6eo6OXU-UzH0dI5WJR4X-33" value="&lt;p style=&quot;line-height: 90%;&quot;&gt;16&lt;/p&gt;" style="text;html=1;strokeColor=none;fillColor=none;align=center;verticalAlign=middle;whiteSpace=wrap;rounded=0;fontColor=#ffffff;fontStyle=1" vertex="1" parent="6eo6OXU-UzH0dI5WJR4X-10">
          <mxGeometry x="699.99" y="74" width="24" height="14" as="geometry" />
        </mxCell>
        <mxCell id="6eo6OXU-UzH0dI5WJR4X-34" value="&lt;p style=&quot;line-height: 90%;&quot;&gt;17&lt;/p&gt;" style="text;html=1;strokeColor=none;fillColor=none;align=center;verticalAlign=middle;whiteSpace=wrap;rounded=0;fontColor=#ffffff;fontStyle=1" vertex="1" parent="6eo6OXU-UzH0dI5WJR4X-10">
          <mxGeometry x="885.99" y="13" width="24" height="14" as="geometry" />
        </mxCell>
        <mxCell id="6eo6OXU-UzH0dI5WJR4X-35" value="&lt;p style=&quot;line-height: 90%;&quot;&gt;18&lt;/p&gt;" style="text;html=1;strokeColor=none;fillColor=none;align=center;verticalAlign=middle;whiteSpace=wrap;rounded=0;fontColor=#ffffff;fontStyle=1" vertex="1" parent="6eo6OXU-UzH0dI5WJR4X-10">
          <mxGeometry x="885.99" y="33" width="24" height="14" as="geometry" />
        </mxCell>
        <mxCell id="6eo6OXU-UzH0dI5WJR4X-36" value="&lt;p style=&quot;line-height: 90%;&quot;&gt;19&lt;/p&gt;" style="text;html=1;strokeColor=none;fillColor=none;align=center;verticalAlign=middle;whiteSpace=wrap;rounded=0;fontColor=#ffffff;fontStyle=1" vertex="1" parent="6eo6OXU-UzH0dI5WJR4X-10">
          <mxGeometry x="885.99" y="53.64" width="24" height="14" as="geometry" />
        </mxCell>
        <mxCell id="6eo6OXU-UzH0dI5WJR4X-37" value="&lt;p style=&quot;line-height: 90%;&quot;&gt;20&lt;/p&gt;" style="text;html=1;strokeColor=none;fillColor=none;align=center;verticalAlign=middle;whiteSpace=wrap;rounded=0;fontColor=#ffffff;fontStyle=1" vertex="1" parent="6eo6OXU-UzH0dI5WJR4X-10">
          <mxGeometry x="885.99" y="74" width="24" height="14" as="geometry" />
        </mxCell>
      </root>
    </mxGraphModel>
  </diagram>
</mxfile>
